<?xml version="1.0" standalone="no"?>
<!DOCTYPE svg PUBLIC "-//W3C//DTD SVG 1.1//EN" "http://www.w3.org/Graphics/SVG/1.1/DTD/svg11.dtd" >
<svg xmlns="http://www.w3.org/2000/svg">
<metadata>
This is a custom SVG webfont generated by Font Squirrel.
Copyright   : Copyright 19881991 Adobe Systems Inc
</metadata>
<defs>
<font id="TrajanBold" horiz-adv-x="1898" >
<font-face units-per-em="2048" ascent="1638" descent="-410" />
<missing-glyph horiz-adv-x="614" />
<glyph unicode=" "  horiz-adv-x="614" />
<glyph unicode="&#x09;" horiz-adv-x="614" />
<glyph unicode="&#xa0;" horiz-adv-x="614" />
<glyph unicode="!" horiz-adv-x="655" d="M328 -35q53 2 86 37q30 35 30 86t-32 80q-31 29 -82 29q-62 -2 -88 -39q-27 -37 -27 -78q0 -39 27 -76q28 -37 86 -39zM324 336q28 0 30 65l86 879q13 115 23 182q10 70 10 82q0 25 -18 27q-35 0 -78 -21q-43 -14 -94 -49q-52 -33 -91 -80q-10 -12 -10 -33q2 -16 17 -53 q16 -67 28 -198q15 -134 15 -170q22 -228 51 -557q2 -74 31 -74z" />
<glyph unicode="$" horiz-adv-x="1145" d="M543 0q63 0 139 25q76 20 143 69q70 49 115 131q45 80 45 197q-2 166 -92 280q-92 113 -248 211l64 555q26 0 69 -14q39 -16 70 -47q41 -41 51 -78q12 -39 10 -80q0 -20 6 -31q7 -8 15 -8q18 -2 22 29q6 37 17 113q8 73 8 112q2 43 -35 51q-70 35 -225 39l24 187 q2 14 -16 10l-61 -14q-17 -2 -23 -19l-21 -164q-67 0 -143 -20q-76 -21 -141 -68q-66 -45 -107 -114q-43 -70 -43 -166q0 -140 84 -250q82 -113 250 -238l-65 -604q-45 0 -99 25q-57 22 -102 67q-35 41 -47 95q-15 51 -12 92q4 32 0 45q-3 10 -15 10q-20 0 -31 -49l-16 -88 q-14 -70 -14 -160q0 -39 14 -55q14 -17 55 -33q64 -20 144 -31q80 -12 114 -12l-20 -174q-4 -25 14 -21l64 13q16 2 20 16zM555 973q-74 57 -125 121q-57 63 -57 145q0 74 28 119q27 45 64 69q39 25 80 33q37 8 65 8zM612 637q78 -51 129 -119q52 -67 52 -162 q-3 -112 -66 -182q-66 -72 -170 -80z" />
<glyph unicode="%" horiz-adv-x="1778" d="M1321 0q205 2 295 127q86 119 86 264q0 131 -84 242q-88 114 -283 119q-200 -5 -289 -123q-90 -121 -88 -269q-2 -127 86 -239q84 -117 277 -121zM1329 70q-90 2 -141 104q-53 98 -53 215q0 123 49 207q47 84 141 86q94 -2 147 -102q54 -99 54 -218q0 -131 -49 -208 q-52 -84 -148 -84zM635 -8q14 0 20 24l588 1499q21 45 23 60q0 8 -21 8q-53 -2 -280 -23q-230 -22 -502 -24q-201 -4 -295 -125t-92 -268q-2 -127 86 -240q84 -117 276 -121q199 2 291 127q88 119 88 264q0 101 -39 177q-39 75 -92 106v4q160 10 451 33l-652 -1491 q-16 -35 21 -27zM446 852q-90 2 -141 104q-53 99 -53 215q0 123 49 207q47 84 141 86q95 -2 148 -102q53 -98 53 -217q0 -131 -49 -209q-51 -84 -148 -84z" />
<glyph unicode="&#x26;" horiz-adv-x="1700" d="M119 418q0 -66 28 -144q29 -77 93 -147q34 -33 77 -61q43 -31 99 -54q110 -45 272 -47q107 0 186 23q80 20 138 49q59 31 98 61q39 31 63 54q125 -99 222 -129q96 -29 262 -29h157q35 0 50 6q12 4 12 12q0 21 -29 19q-90 2 -219 71l-111 72q-69 47 -174 129 q195 227 201 485q0 19 -18 29q-19 10 -52 12q-172 15 -245 15q-31 0 -33 -21q2 -16 25 -16q24 0 53 -4q28 -8 47 -27q24 -18 33 -43q6 -24 6 -51q-2 -94 -33 -180q-33 -88 -66 -135q-38 38 -165 155q-129 119 -195 187q-129 137 -229 266q-109 131 -111 272q0 68 25 113 q22 45 55 71q35 27 72 39q34 11 67 11q86 0 144 -27q55 -27 84 -66q34 -41 49 -84q10 -47 10 -88q-2 -41 14 -38q11 0 17 8q6 6 8 26q18 105 22 262q0 19 -4 33q-4 13 -30 21q-91 41 -248 43q-264 -4 -383 -127q-58 -56 -86 -121q-29 -66 -29 -129q0 -66 23 -135 q20 -70 82 -156q-101 -45 -211 -174q-54 -61 -86 -139q-37 -80 -37 -172zM758 94q-164 0 -277 115q-114 113 -116 305q0 123 45 199q43 75 96 112q33 -43 104 -125l115 -131q135 -141 369 -352q-33 -35 -123 -76q-90 -45 -213 -47z" />
<glyph unicode="(" horiz-adv-x="737" d="M315 756q4 295 111 522q98 223 176 309q10 12 12 23q0 14 -14 16q-12 -2 -25 -12q-49 -31 -124 -109q-76 -78 -152 -196q-76 -117 -127 -263q-53 -147 -55 -317q6 -334 172 -557q155 -225 288 -313q13 -11 21 -11q14 0 16 15q-2 18 -16 31q-121 155 -201 364 q-82 207 -82 498z" />
<glyph unicode=")" horiz-adv-x="737" d="M422 719q-4 -295 -107 -518q-100 -224 -180 -314q-12 -10 -12 -22q0 -14 14 -17q12 3 25 13q112 69 278 309q172 235 180 575q-6 338 -167 562q-158 223 -293 309q-13 10 -21 10q-16 0 -16 -14q2 -19 16 -31q125 -152 205 -360q76 -209 78 -502z" />
<glyph unicode="*" horiz-adv-x="778" d="M379 1298q6 -2 8 -12q31 -113 72 -211q18 -29 32 -29q21 3 70 43q23 19 39 37q14 17 14 27q-2 16 -28 20q-23 11 -84 58q-29 22 -51 45q-25 18 -37 35q-6 10 -2 14q6 4 10 4q55 -4 139 -4h96q21 2 21 16q0 39 -17 97q-16 57 -32 61q-17 0 -29 -20q-14 -13 -66 -54 q-51 -43 -120 -67q-9 -2 -11 0q-2 8 0 12q23 66 45 143q21 78 23 119q0 23 -20 23q-31 0 -86 -17q-25 -8 -46 -18q-20 -10 -20 -23q0 -16 12 -32q8 -13 33 -76q23 -64 29 -117q0 -8 -2 -14q-6 -4 -15 2q-20 24 -98 80q-35 24 -70 43q-36 16 -61 16q-29 2 -27 -27 q0 -36 9 -88q6 -55 16 -57q16 0 35 4q20 4 84 4q61 0 100 -6q8 0 8 -6t-6 -12q-24 -15 -94 -74q-31 -29 -57 -51q-29 -25 -39 -39q-21 -23 -21 -35q0 -14 45 -31q41 -22 92 -22q23 0 25 16q0 25 10 47q8 31 33 92q22 62 31 78q4 6 8 6z" />
<glyph unicode="," horiz-adv-x="512" d="M131 145q0 -8 16 -20q13 -14 29 -35q16 -18 29 -47q12 -31 12 -76q0 -69 -59 -178q-15 -16 -17 -35q2 -18 17 -20q16 2 34 24q54 66 99 146q45 78 63 127q25 59 27 98q0 18 -8 45q-8 25 -37 62l-27 43q-10 8 -24 8q-49 -2 -99 -43q-53 -41 -55 -99z" />
<glyph unicode="-" horiz-adv-x="870" d="M154 891q-25 0 -33 -2q-10 -6 -17 -25l-30 -141q-4 -14 2 -25q2 -12 14 -12t37 14q22 11 53 19q74 18 262 53q187 33 267 45q90 8 92 45q0 19 -19 25q-18 4 -47 4h-581z" />
<glyph unicode="." horiz-adv-x="512" d="M254 0q59 0 94 41q33 37 33 90q0 57 -35 88t-90 31q-64 -2 -94 -43q-31 -39 -31 -82q0 -45 31 -82q28 -41 92 -43z" />
<glyph unicode="/" horiz-adv-x="1110" d="M109 -39q14 -8 26 12l940 1526q12 18 -2 25l-74 45q-14 12 -28 -11l-934 -1515q-14 -27 0 -35z" />
<glyph unicode="0" horiz-adv-x="1360" d="M1247 815q0 121 -22 252q-25 131 -86 244q-60 116 -166 188q-109 70 -277 72q-299 -4 -442 -240q-143 -235 -141 -608q0 -119 26 -248q25 -131 86 -246q62 -114 170 -188q107 -74 269 -76q298 4 442 244q141 233 141 606zM1001 735q-8 -672 -299 -678q-92 0 -157 68 q-68 63 -107 170q-82 225 -80 506q7 673 295 678q94 0 162 -64q68 -65 107 -174q79 -225 79 -506z" />
<glyph unicode="1" horiz-adv-x="967" d="M397 616q0 -309 -8 -460q-2 -47 -18 -72q-17 -27 -64 -37q-33 -6 -86 -8q-55 -6 -78 -6q-16 0 -16 -21q0 -18 33 -18l350 6q96 -2 342 -6q33 0 33 18q-2 21 -17 21q-57 0 -135 12q-47 12 -61 39q-8 12 -13 31q-6 18 -8 41q-10 151 -8 460v379q0 240 6 379q4 139 4 154 q0 16 -2 30q-6 13 -20 13q-27 -2 -54 -27l-260 -176l-143 -94q-63 -41 -70 -45q-20 -11 -20 -29q0 -22 14 -22q13 0 29 8q41 20 123 57l69 31q33 10 46 10q34 0 30 -74q0 -102 2 -268v-326z" />
<glyph unicode="2" horiz-adv-x="1180" d="M836 0q96 0 133 12q34 11 45 49q18 62 39 162q20 99 20 131q0 17 -2 29q-2 10 -14 10q-17 0 -25 -33q-16 -71 -72 -118q-55 -47 -161 -64q-207 -12 -353 -12h-139q-16 0 -4 14q105 80 223 185q119 102 230 225q110 123 180 260q69 137 72 285q0 186 -121 309 q-125 125 -393 127q-134 0 -222 -23q-45 -8 -82 -24q-36 -15 -67 -31q-14 -8 -19 -19q-6 -8 -6 -22q2 -154 13 -248q4 -39 18 -39q27 2 27 39q0 43 26 103q23 57 60 94q88 76 217 73q86 3 180 -71q45 -43 74 -119q26 -76 26 -199q-2 -159 -65 -301q-66 -143 -172 -266 q-226 -248 -457 -436q-16 -12 -27 -25q-14 -16 -14 -28q2 -29 29 -29h803z" />
<glyph unicode="3" horiz-adv-x="1196" d="M420 -35q303 4 475 158q170 147 172 368q0 97 -35 166q-35 68 -90 117q-117 98 -240 121v4q74 25 183 121q49 49 84 112q32 62 32 136q0 39 -16 90t-68 98q-47 51 -139 82q-94 33 -241 33q-127 -2 -218 -25q-45 -10 -81 -22q-37 -13 -64 -27q-16 -8 -22 -16q-7 -9 -7 -23 q0 -88 15 -205q4 -30 16 -28q16 -2 19 30q0 95 81 156q80 59 203 61q80 0 133 -26q54 -25 84 -66q31 -41 45 -82q11 -43 11 -77q0 -89 -35 -152q-35 -64 -88 -107q-52 -38 -103 -61q-53 -25 -92 -33q-37 -6 -37 -28q0 -13 15 -19q12 -8 51 -16q88 -10 211 -96 q57 -45 96 -117t39 -176q-2 -180 -109 -267q-104 -83 -262 -83q-153 2 -229 88q-78 82 -78 184q0 27 -18 29q-17 0 -23 -39q-14 -90 -14 -256q0 -17 8 -29q6 -14 27 -29q81 -45 309 -49z" />
<glyph unicode="4" horiz-adv-x="1378" d="M801 403q2 -104 -6 -247q-2 -47 -19 -78q-20 -31 -78 -39q-24 -2 -51 -2q-29 -4 -45 -4t-16 -21q0 -18 32 -18l281 6q90 -2 289 -6q33 0 33 18q-3 21 -19 21q-39 0 -92 8q-47 12 -66 41q-16 29 -20 74q-8 143 -6 247h180q27 0 39 9q12 6 16 18q13 27 25 70q10 43 10 59 q-2 25 -18 25q-15 -15 -95 -21h-157v666q0 231 2 307q0 33 -25 35q-28 -2 -53 -37l-866 -1047q-6 -6 -15 -18q-12 -16 -12 -35q0 -16 19 -22q14 -9 32 -9h701zM801 563h-535l529 633h6v-633z" />
<glyph unicode="5" horiz-adv-x="1180" d="M344 -35q354 6 516 187q158 176 158 389q-6 264 -223 403q-211 135 -455 170l29 250h372q64 0 101 -8q37 -9 53 -25q18 -16 24 -35q3 -20 3 -43q0 -28 16 -28q20 2 22 24q27 197 27 262q0 25 -2 33q-6 6 -18 6q-5 -10 -156 -14h-502q-35 0 -39 -27l-47 -540 q-2 -37 37 -41q64 -6 152 -37q86 -31 170 -90q84 -58 141 -146q53 -90 55 -213q-4 -196 -106 -284q-103 -90 -232 -90q-53 0 -102 14q-49 12 -90 43q-37 31 -60 86q-26 51 -26 131q0 35 -19 35q-16 -2 -22 -37q-2 -25 -2 -55q-4 -35 -4 -72q-2 -76 -2 -131q0 -29 8 -47 q6 -19 31 -33q86 -37 192 -37z" />
<glyph unicode="6" horiz-adv-x="1300" d="M653 -35q232 2 381 146q152 141 154 380q0 148 -99 279q-102 133 -319 137q-172 -2 -266 -74q-23 -10 -23 -30q0 -21 17 -21q18 2 45 13q37 14 106 14q109 0 197 -96q90 -101 92 -314q-2 -178 -74 -260q-74 -84 -184 -84q-78 0 -133 45q-58 43 -99 115q-79 150 -79 336 q0 184 49 338q47 153 123 274q161 242 350 344q18 10 35 23q16 10 16 22q-2 19 -25 19q-16 0 -45 -13q-338 -141 -544 -417q-213 -279 -215 -588q2 -279 153 -432q146 -154 387 -156z" />
<glyph unicode="7" horiz-adv-x="1098" d="M403 1536q-290 12 -276 20q-21 0 -21 -28q0 -27 -14 -146q-16 -118 -16 -190q-2 -31 16 -31q19 0 21 27q4 26 22 65q19 37 45 58q39 24 94 32q54 4 99 4h530q-469 -843 -602 -1273q-14 -51 -14 -84q-2 -25 28 -25q78 2 166 49q41 19 66 41q26 19 26 35q-2 33 0 76 q39 233 209 667q172 435 312 650q12 16 14 37q2 16 -49 16h-656z" />
<glyph unicode="8" horiz-adv-x="1315" d="M643 -35q260 4 401 137q140 131 142 318q0 96 -35 170q-37 74 -94 127q-58 55 -121 94q-66 41 -123 68q45 18 98 49q49 30 97 77q47 48 77 111q29 62 29 141q-2 152 -115 232q-114 82 -305 82q-258 -4 -372 -123q-58 -55 -84 -121q-29 -66 -29 -127q2 -129 86 -217 q82 -90 211 -158q-152 -57 -262 -172q-113 -114 -115 -286q2 -189 145 -293q140 -107 369 -109zM360 379q2 155 80 254q76 98 162 143q72 -39 133 -78q62 -39 109 -88q102 -92 104 -241q-2 -142 -82 -224q-84 -86 -207 -86q-125 2 -208 93q-89 90 -91 227zM897 1239 q0 -76 -21 -131q-22 -55 -55 -92q-31 -37 -65 -58q-35 -20 -60 -32q-276 141 -274 315q0 90 59 166q60 74 191 76q96 0 159 -64q64 -61 66 -180z" />
<glyph unicode="9" horiz-adv-x="1266" d="M627 1571q-240 -2 -379 -133q-144 -131 -146 -344q-2 -138 99 -261q100 -131 319 -135q82 0 154 25q71 24 116 70q9 10 11 22q-2 16 -17 18q-10 -2 -41 -22q-18 -10 -51 -16q-33 -9 -88 -9q-24 0 -70 19q-45 18 -92 59q-43 43 -75 119q-35 76 -35 190q0 136 67 220 q66 84 178 86q125 0 218 -123q92 -127 94 -400q-6 -364 -187 -606q-172 -241 -346 -342q-22 -12 -24 -35q2 -18 18 -20q23 0 37 8q215 90 475 356q121 134 201 308q78 174 80 389q0 239 -131 395q-133 158 -385 162z" />
<glyph unicode=":" horiz-adv-x="512" d="M254 61q59 0 94 41q33 37 33 90q0 58 -35 89q-35 30 -90 30q-64 -2 -94 -43q-31 -39 -31 -82q0 -45 31 -82q28 -41 92 -43zM254 754q59 0 94 41q33 36 33 90q0 57 -35 88q-35 30 -90 30q-64 -2 -94 -41q-31 -40 -31 -83t31 -82q28 -41 92 -43z" />
<glyph unicode=";" horiz-adv-x="512" d="M131 166q0 -8 16 -21q13 -14 29 -34q16 -19 29 -48q12 -30 12 -75q0 -70 -59 -178q-15 -17 -17 -35q2 -19 17 -21q16 2 34 25q54 65 99 145q45 78 63 127q25 60 27 98q0 19 -8 46q-8 24 -37 61q-19 31 -27 43q-10 8 -24 8q-49 -2 -99 -43q-53 -41 -55 -98zM254 754 q59 0 94 39q33 34 33 92q0 57 -35 88q-35 30 -90 30q-64 -2 -94 -41q-31 -38 -31 -86q0 -43 31 -79q28 -41 92 -43z" />
<glyph unicode="?" horiz-adv-x="1089" d="M512 1571q-135 0 -223 -27q-92 -27 -140 -55q-24 -17 -22 -33q0 -63 4 -137q0 -76 4 -103q2 -26 21 -26q16 2 18 41q6 78 72 170q26 32 76 57q49 23 118 23q140 -2 193 -82q28 -37 41 -82q10 -45 10 -92q0 -97 -37 -191q-41 -94 -143 -231l-135 -164q-43 -62 -41 -105 q0 -26 20 -55q19 -28 72 -74q37 -26 65 -43q27 -20 39 -20q19 2 19 16q0 11 -17 37q-32 51 -32 105q0 55 104 180q63 72 125 135q59 64 110 131q52 68 82 146q31 77 31 172q0 49 -18 102q-21 53 -70 100q-47 47 -133 76q-84 29 -213 29zM475 -35q53 2 86 37q31 35 31 86 t-33 80q-31 29 -82 29q-61 -2 -88 -39t-27 -78q0 -39 27 -76q29 -37 86 -39z" />
<glyph unicode="A" horiz-adv-x="1433" d="M874 528q15 0 21 -14l164 -434q10 -39 -19 -47q-28 -2 -28 -19q2 -16 61 -16q262 -4 387 -4q57 0 78 6q16 2 16 14q0 17 -26 17q-39 0 -86 8q-31 6 -76 47q-45 43 -105 176l-507 1260q-27 65 -52 65q-24 2 -57 -82l-514 -1286q-14 -37 -29 -67q-14 -33 -36 -58 q-39 -49 -109 -59q-31 -4 -63 -4q-25 0 -25 -17q0 -20 39 -20q184 4 241 6q107 -2 218 -6q34 0 34 20q2 17 -30 17h-31q-45 0 -64 20q-18 17 -18 43q0 43 31 125l110 293q4 16 19 16h456zM459 631q-13 0 -8 14l188 504q4 16 12 18q8 -2 10 -18l185 -506q4 -12 -10 -12h-377z " />
<glyph unicode="B" horiz-adv-x="1448" d="M336 588q0 -295 -10 -436q-4 -46 -17 -74q-12 -31 -43 -39q-26 -8 -74 -8q-34 0 -32 -17q0 -20 41 -20q155 4 258 6q157 -6 297 -12q282 4 415 143q131 133 131 303q-4 180 -122 291q-115 111 -250 151q88 68 149 152q58 84 60 207q4 92 -78 196q-45 48 -131 80 q-88 29 -228 31q-102 -4 -249 -6q-88 4 -279 6q-45 0 -45 -18q0 -21 35 -19q49 0 80 -6q51 -8 69 -37q17 -26 19 -80q4 -32 4 -434v-360zM582 1419q-2 31 18 35q29 4 68 4q67 0 116 -29q49 -30 80 -77q60 -99 60 -211q-2 -152 -84 -217q-50 -41 -148 -39q-69 0 -96 6 q-14 0 -14 22v506zM1051 342q0 -80 -25 -129q-25 -51 -64 -82q-38 -27 -79 -39q-43 -12 -80 -12q-68 -2 -150 24q-47 19 -59 60q-14 39 -12 137v485q0 15 12 15q39 0 88 -2q61 -2 100 -13q39 -12 70 -36q115 -84 160 -195q39 -115 39 -213z" />
<glyph unicode="C" horiz-adv-x="1638" d="M1069 -35q102 0 203 12q102 13 166 35q26 11 36 25q13 12 17 35q16 61 31 155q14 90 14 117q0 29 -19 31q-20 2 -26 -41q-14 -66 -70 -135q-112 -121 -375 -115q-219 0 -423 182q-213 182 -222 547q-2 152 39 291q41 137 150 239q127 125 385 127q299 -6 415 -127 q78 -86 80 -188q-2 -45 21 -45q24 0 24 47q5 90 7 221q8 99 10 113q0 20 -31 24q-45 7 -94 19q-51 10 -111 16q-123 21 -297 21q-225 0 -381 -58q-157 -57 -266 -159q-143 -140 -192 -295q-49 -156 -47 -266q-2 -150 53 -310q53 -159 201 -295q280 -227 702 -223z" />
<glyph unicode="D" horiz-adv-x="1917" d="M336 588q0 -295 -10 -436q-4 -46 -17 -74q-12 -31 -43 -39q-26 -8 -74 -8q-34 0 -32 -17q0 -20 41 -20q155 4 258 6q80 0 200 -12q121 -11 236 -13q285 5 450 86q86 39 144 80q59 41 92 76q90 90 156 234q65 145 67 337q-2 185 -59 314q-60 129 -139 207 q-173 168 -398 204q-223 33 -424 29q-202 -4 -315 -6q-109 4 -295 6q-45 0 -45 -18q0 -21 35 -19q49 0 80 -6q51 -8 69 -37q17 -26 19 -80q4 -32 4 -434v-360zM592 981q0 274 2 409q-2 31 24 41q17 7 60 13q41 2 74 2q122 2 280 -35q158 -39 301 -170q35 -31 70 -76 q35 -49 63 -112q62 -127 64 -324q0 -158 -37 -289q-39 -133 -135 -221q-170 -151 -471 -147q-119 0 -183 28q-65 25 -86 54q-12 20 -14 69q-6 47 -8 86q-4 74 -4 414v258z" />
<glyph unicode="E" horiz-adv-x="1294" d="M336 588q0 -295 -10 -436q-4 -46 -17 -74q-12 -31 -43 -39q-26 -8 -74 -8q-34 0 -32 -17q0 -20 41 -20q155 4 258 6q143 -6 567 -12q57 0 80 8q22 8 31 45q10 37 18 113q8 73 8 114q2 35 -16 37q-8 0 -15 -6q-6 -6 -8 -25q-16 -120 -92 -151q-41 -19 -96 -21 q-53 -4 -96 -4q-152 -2 -199 35q-47 35 -47 137q-2 152 0 318v162q-2 20 12 20h152q102 -2 139 -6q57 -6 84 -27q24 -22 31 -53q8 -41 8 -74q-2 -18 18 -18q15 0 17 14q2 12 2 25q0 49 8 137q14 143 16 149q0 17 -14 17q-12 0 -33 -27q-26 -26 -98 -31q-45 -2 -162 -2 q-119 -2 -166 -2q-16 0 -14 23v518q0 20 14 20q43 0 150 -2q106 -2 141 -6q74 -8 102 -26q29 -19 35 -47q13 -45 13 -74q-3 -29 18 -29q20 2 20 23q7 71 11 135q14 127 16 133q0 16 -12 18q-17 -2 -33 -8q-27 -6 -88 -12q-236 -2 -512 -2q-109 4 -295 6q-45 0 -45 -18 q0 -21 35 -19q49 0 80 -6q51 -8 69 -37q17 -26 19 -80q4 -32 4 -434v-360z" />
<glyph unicode="F" horiz-adv-x="1274" d="M594 754q0 18 14 18h148q106 0 155 -6q25 -2 43 -8q19 -8 31 -21q25 -22 31 -45q12 -39 12 -63q0 -27 16 -29q17 0 19 14q2 11 2 25q0 55 8 149q4 25 6 48q4 22 6 36q4 35 4 43q0 19 -12 19q-14 0 -26 -21q-31 -37 -89 -37q-40 -2 -92 -2l-262 -2q-16 0 -14 19v512 q0 28 18 28l316 -6q59 -2 92 -18q35 -21 43 -43q10 -21 12 -43v-35q2 -33 21 -33q20 0 20 29q6 86 10 166q15 76 17 92q0 16 -15 18q-14 -2 -32 -12q-29 -6 -84 -8q-248 -2 -541 -2q-113 4 -295 6q-47 0 -47 -20q0 -17 35 -17q49 0 80 -6q51 -8 69 -37q17 -26 19 -80 q4 -32 4 -434v-360q0 -301 -10 -436q-4 -46 -17 -74q-12 -31 -43 -39q-26 -8 -74 -8q-32 0 -30 -17q0 -20 43 -20q149 4 260 6q98 -2 311 -6q45 0 45 20q0 17 -35 17q-51 0 -102 8q-45 8 -59 39q-17 28 -21 74q-12 135 -10 436v166z" />
<glyph unicode="G" horiz-adv-x="1814" d="M1579 356q0 154 2 246q0 105 78 117q35 6 55 6q25 0 27 16q0 21 -41 21q-123 -4 -240 -6q-115 4 -297 6q-43 0 -43 -21q0 -16 31 -16q49 0 80 -6q51 -8 71 -37q19 -27 17 -80q2 -90 2 -242v-192q2 -53 -39 -76q-37 -14 -84 -18t-90 -4q-328 4 -516 221q-195 213 -197 549 q0 190 51 311q52 121 138 190q108 86 215 109q106 20 190 18q176 -2 293 -53q117 -53 164 -106q39 -43 53 -88q14 -43 16 -82q2 -27 21 -27q22 -2 22 43q9 344 15 336q2 22 -29 24q-84 7 -162 23q-106 27 -362 33q-129 2 -264 -21q-140 -24 -287 -112q-143 -84 -246 -254 q-108 -170 -110 -416q6 -422 286 -612q273 -191 660 -191q123 0 258 21q133 20 235 71q19 11 25 23q2 14 2 51v225z" />
<glyph unicode="H" horiz-adv-x="1991" d="M604 891q-12 0 -12 14v43q0 225 2 309q0 84 2 125q2 56 20 84q17 27 56 33q37 6 59 6q37 -2 37 19q0 18 -43 18q-152 -4 -258 -6q-107 4 -295 6q-43 0 -43 -18q0 -21 35 -19q49 0 80 -6q51 -8 69 -37q17 -26 19 -80q4 -32 4 -434v-360q0 -295 -10 -436q-4 -46 -17 -74 q-12 -31 -43 -39q-26 -8 -74 -8q-34 0 -32 -17q0 -20 41 -20q155 4 258 6l319 -6q39 0 41 20q0 17 -33 17q-53 0 -104 8q-45 8 -59 39q-17 28 -21 71q-12 144 -10 439v180q0 12 12 12h782q11 0 13 -12v-180q0 -295 -11 -436q-4 -46 -16 -74q-12 -31 -43 -39q-27 -8 -74 -8 q-34 0 -32 -17q0 -20 43 -20q153 4 256 6l319 -6q39 0 41 20q0 17 -33 17q-53 0 -104 8q-45 8 -60 39q-16 28 -20 71q-12 144 -10 439v360q0 225 2 309q0 84 2 125q2 56 20 84q17 27 56 33q36 6 59 6q37 -2 37 19q0 18 -43 18q-152 -4 -258 -6q-107 4 -295 6q-43 0 -43 -18 q0 -21 35 -19q49 0 80 -6q51 -8 69 -37q17 -26 19 -80q4 -32 4 -434v-43q-2 -14 -13 -14h-782z" />
<glyph unicode="I" horiz-adv-x="926" d="M336 588q0 -307 -10 -447q-4 -90 -60 -102q-26 -8 -74 -8q-34 0 -32 -17q0 -20 41 -20q155 4 258 6q100 -2 319 -6q37 0 39 20q0 17 -33 17q-53 0 -104 8q-45 6 -60 35q-16 24 -22 65q-10 142 -8 449v360q0 225 2 309q0 84 2 125q2 56 20 84q17 27 56 33q34 6 61 6 q33 -2 33 21q-2 16 -43 16q-146 -4 -250 -6q-119 4 -266 6q-49 0 -49 -16q0 -23 32 -21q39 0 74 -8q66 -12 70 -115q4 -32 4 -434v-360z" />
<glyph unicode="J" horiz-adv-x="852" d="M336 360q2 -297 -17 -473q-24 -176 -137 -290q-28 -29 -53 -48q-25 -18 -45 -30q-47 -25 -45 -37q0 -16 16 -16q19 0 41 12q64 31 103 53q288 191 348 387q30 86 41 182q8 95 8 181q-4 155 -6 288v379q0 225 2 309q0 84 2 125q2 56 20 84q17 27 56 33q30 6 59 6 q37 -2 37 19q0 18 -43 18q-152 -4 -258 -6q-105 4 -291 6q-45 0 -45 -18q0 -21 35 -19q49 0 80 -6q51 -8 69 -37q17 -26 19 -80q4 -32 4 -434v-588z" />
<glyph unicode="K" horiz-adv-x="1573" d="M586 948q0 225 2 309q0 84 2 125q2 56 20 84q17 27 56 33q32 6 57 6q27 -2 29 19q0 18 -43 18q-140 -4 -248 -6q-99 4 -287 6q-45 0 -45 -18q0 -21 35 -19q49 0 80 -6q51 -8 69 -37q17 -26 19 -80q4 -32 4 -434v-360q0 -295 -10 -436q-4 -46 -17 -74q-12 -31 -43 -39 q-26 -8 -74 -8q-34 0 -32 -17q0 -20 41 -20q155 4 258 6l295 -6q36 0 39 20q0 17 -27 17q-49 0 -100 8q-35 8 -54 39q-18 28 -20 71q-8 144 -6 439v186h10l22 -31l252 -297l170 -192q39 -43 70 -74q29 -33 45 -49q66 -59 121 -90q53 -33 133 -43q57 -4 141 -4h178q31 0 41 6 q9 6 9 14q-3 17 -27 17q-35 -2 -127 30q-82 37 -152 97q-73 59 -141 125q-80 79 -278 297q-201 215 -277 307l442 442q68 64 121 100q56 37 101 54q67 22 118 22q31 -2 31 19q-2 18 -35 18q-118 -4 -239 -6q-115 4 -211 6q-33 0 -33 -18q0 -17 27 -21q28 -6 28 -41 q0 -24 -28 -61q-29 -39 -74 -92q-57 -66 -209 -222l-219 -229h-10v90z" />
<glyph unicode="L" horiz-adv-x="1239" d="M592 948q0 225 2 309q0 84 2 125q2 56 20 84q17 27 56 33q41 6 80 6q36 -2 36 19q0 18 -43 18q-161 -4 -278 -6q-109 4 -281 6q-45 0 -45 -18q0 -21 35 -19q41 0 68 -6q51 -8 69 -37q17 -26 19 -80q4 -32 4 -434v-360q0 -295 -10 -436q-4 -46 -17 -74q-12 -31 -43 -39 q-26 -8 -74 -8q-34 0 -32 -17q0 -20 41 -20q155 4 258 6q200 -6 596 -12q77 0 102 12q21 10 27 43q12 53 22 133q8 80 8 103q0 34 -16 34q-23 -2 -23 -30q-10 -70 -53 -123q-37 -39 -96 -47q-61 -11 -143 -11q-117 0 -170 13q-54 12 -78 32q-29 27 -37 138q-8 106 -6 303 v360z" />
<glyph unicode="M" horiz-adv-x="2136" d="M209 199q-4 -56 -23 -101q-20 -49 -61 -61q-41 -8 -62 -6q-32 0 -32 -15q2 -22 37 -22q120 4 202 6l215 -6q47 0 49 22q-2 15 -30 15q-31 0 -86 10q-60 10 -62 65q0 46 6 97l107 815h8q148 -309 213 -455q27 -57 111 -217l125 -248q24 -45 43 -73q16 -29 28 -29 q17 -6 76 115l447 929h8l123 -901q6 -43 4 -63q-4 -21 -15 -25q-22 -8 -22 -22q-4 -17 59 -23q232 -10 416 -12q22 0 39 6q14 6 14 16q-2 15 -33 15q-39 -2 -127 20q-81 21 -100 207l-186 1266q-8 63 -37 63q-25 0 -45 -49l-557 -1169l-559 1155q-19 39 -31 53 q-12 10 -25 10q-24 0 -34 -53z" />
<glyph unicode="N" horiz-adv-x="1939" d="M428 1132h6q105 -120 488 -516l604 -602q18 -16 37 -28q16 -17 32 -17q27 0 27 64l22 1292q2 86 19 125q14 39 57 49q35 6 62 6q36 0 36 19q-2 20 -47 18q-75 0 -129 -2q-53 -4 -71 -4q-76 4 -248 6q-21 0 -37 -2q-16 -4 -16 -16q-2 -19 32 -19q54 2 109 -12 q37 -12 55 -51q15 -41 15 -133l20 -920h-10q-37 37 -184 195l-267 272q-522 532 -635 657q-22 29 -40 47q-17 17 -35 17q-29 -2 -27 -70l-18 -1212q2 -129 -11 -186q-14 -58 -53 -68q-47 -10 -92 -10q-33 0 -33 -17q0 -22 45 -20q176 4 221 6q58 -2 254 -6q45 0 48 20 q0 17 -35 17q-52 -2 -107 14q-31 10 -49 59q-18 52 -22 168z" />
<glyph unicode="O" d="M938 -35q395 6 620 246q226 235 228 594q-17 749 -828 766q-456 -8 -651 -269q-196 -253 -194 -534q-2 -287 192 -537q197 -258 633 -266zM1024 68q-297 4 -461 223q-168 213 -168 540q0 193 47 318q45 125 119 194q74 74 164 103q88 26 174 26q258 -2 428 -198 q168 -197 172 -545q-2 -219 -53 -350q-51 -133 -129 -201q-78 -65 -158 -88q-78 -22 -135 -22z" />
<glyph unicode="P" horiz-adv-x="1341" d="M336 588q0 -295 -10 -436q-4 -46 -17 -74q-12 -31 -43 -39q-26 -8 -74 -8q-34 0 -32 -17q0 -20 41 -20q155 4 258 6q98 -2 317 -6q37 0 39 20q0 17 -33 17q-53 0 -104 8q-45 8 -60 39q-16 28 -20 71q-12 144 -10 439v819q0 33 16 39q31 8 80 8q39 0 94 -12 q53 -17 111 -68q43 -37 69 -80q25 -43 35 -86q12 -41 15 -76q2 -36 2 -65q-5 -158 -93 -246q-90 -92 -182 -92q-31 0 -43 -4q-14 -6 -14 -18q2 -19 24 -19q23 -2 43 -2q224 2 363 139q139 135 141 357q-2 84 -33 149q-32 64 -69 94q-10 15 -35 33q-27 21 -70 39 q-43 20 -110 33q-68 12 -166 12q-156 -4 -297 -6q-109 4 -295 6q-45 0 -45 -18q0 -21 35 -19q49 0 80 -6q51 -8 69 -37q17 -26 19 -80q4 -32 4 -434v-360z" />
<glyph unicode="Q" horiz-adv-x="1905" d="M1589 -170q457 -283 866 -278q224 2 392 55q163 51 258 98q22 8 24 25q-2 18 -18 18q-13 0 -31 -10q-225 -74 -399 -72q-52 0 -129 8q-78 9 -183 33q-206 43 -532 203l-412 211q109 65 230 235q120 168 127 439q-4 362 -230 569q-225 205 -600 207q-444 -11 -643 -271 q-198 -251 -196 -522q-2 -293 192 -542q197 -263 641 -271q180 2 322 53zM1022 68q-254 0 -434 196q-187 195 -191 561q4 353 156 502q145 147 352 145q223 0 402 -180q182 -180 188 -553q0 -110 -12 -198q-13 -90 -37 -158q-23 -68 -53 -117q-35 -49 -72 -86 q-76 -67 -154 -90q-82 -22 -145 -22z" />
<glyph unicode="R" horiz-adv-x="1546" d="M336 588q0 -295 -10 -436q-4 -46 -17 -74q-12 -31 -43 -39q-26 -8 -74 -8q-34 0 -32 -17q0 -20 41 -20q157 4 250 6q83 -2 301 -6q41 0 41 20q0 17 -25 17q-45 0 -100 8q-45 8 -60 39q-16 28 -20 74q-13 141 -11 438v28q0 17 17 17l178 -4q23 0 37 -15q24 -26 82 -108 l121 -174q159 -234 280 -301q39 -21 88 -29q47 -10 131 -10h195q39 0 39 20q0 17 -25 17q-24 0 -57 6q-23 4 -82 29q-59 24 -148 110q-176 193 -444 539q154 125 215 237q57 109 55 221q-2 107 -47 181q-45 71 -92 100q-84 57 -180 74q-96 14 -197 14q-139 -4 -288 -6 q-90 4 -281 6q-45 0 -45 -18q0 -21 35 -19q49 0 80 -6q51 -8 69 -37q17 -26 19 -80q4 -32 4 -434v-360zM577 1409q-2 24 19 29q31 8 108 8q48 0 103 -17q53 -18 100 -61q51 -41 82 -115q29 -71 29 -182q-2 -125 -37 -199q-35 -75 -84 -108q-25 -19 -53 -27q-33 -8 -92 -8 q-84 0 -156 21q-21 6 -19 36v623z" />
<glyph unicode="S" horiz-adv-x="1192" d="M522 -35q84 0 166 19q84 18 160 65q108 76 153 172q39 94 39 184q0 146 -75 265q-78 120 -261 258l-57 43q-123 96 -170 161q-49 66 -47 134q0 94 68 153q61 58 176 58q100 -3 151 -35q51 -33 72 -66q33 -41 45 -80q8 -39 8 -55q0 -37 21 -37q22 -2 22 62q0 118 4 174 q4 55 4 71q0 21 -28 25q-39 12 -105 24q-67 11 -168 11q-215 -2 -342 -107q-131 -108 -131 -280q-2 -121 68 -238t235 -248l95 -73q127 -97 165 -174q23 -39 31 -76q4 -39 4 -78q0 -84 -67 -156q-68 -75 -207 -78q-96 0 -176 48q-80 47 -117 159q-18 60 -18 105q0 14 -2 24 q-2 11 -19 11q-22 -2 -24 -54q-9 -73 -11 -268q0 -31 8 -45q9 -14 31 -25q127 -53 299 -53z" />
<glyph unicode="T" horiz-adv-x="1454" d="M608 588q0 -295 -10 -436q-2 -46 -14 -74q-15 -31 -45 -39q-27 -8 -74 -8q-35 0 -33 -17q0 -20 41 -20q156 4 258 6q102 -2 322 -6q36 0 39 20q0 17 -33 17q-54 0 -105 8q-45 8 -59 39q-16 28 -21 71q-12 144 -10 439v839l258 -6q135 -4 189 -37q53 -34 53 -77l2 -23 q0 -43 22 -41q17 0 19 33q4 127 6 237q0 43 -16 43q-13 -14 -197 -20h-811q-108 0 -205 10q-37 4 -55 14q-20 11 -33 11q-16 0 -24 -39q-4 -21 -23 -111q-6 -41 -12 -76q-8 -34 -8 -49q-2 -32 18 -32q19 0 23 24q6 25 34 72q23 33 68 47q45 10 131 12l305 8v-839z" />
<glyph unicode="U" horiz-adv-x="1745" d="M248 649q0 -219 53 -346q51 -129 129 -197q117 -96 244 -120q127 -23 211 -21q102 0 209 29q108 29 217 119q125 114 163 280q33 164 31 336v219q0 225 2 309q0 84 2 125q2 56 21 84q16 27 55 33q31 6 59 6q37 -2 37 19q0 18 -43 18q-63 0 -135 -2q-76 -4 -98 -4 q-41 4 -236 6q-43 0 -43 -18q0 -21 35 -19q41 0 74 -6q51 -8 69 -37q17 -26 19 -80q4 -32 4 -434v-256q2 -158 -14 -289q-21 -133 -105 -219q-61 -59 -137 -84q-76 -26 -145 -26q-25 0 -56 4q-30 2 -63 10q-31 8 -66 27q-34 16 -71 43q-74 57 -115 174q-45 112 -45 329v287 q0 225 2 309q0 84 2 125q2 56 20 84q17 27 56 33q30 6 59 6q33 -2 33 19q0 18 -45 18q-143 -4 -252 -6q-115 4 -299 6q-45 0 -45 -18q0 -21 35 -19q49 0 80 -6q51 -8 69 -37q17 -26 19 -80q4 -32 4 -434v-299z" />
<glyph unicode="V" horiz-adv-x="1483" d="M664 90q28 -70 45 -96q14 -29 32 -29q21 0 39 33q17 33 56 119l272 624l246 555q43 97 69 137q25 37 43 48q29 18 58 22q28 2 43 2q32 -2 32 19q-2 18 -43 18q-49 0 -104 -2q-57 -4 -88 -4q-51 4 -215 6q-57 0 -57 -20q2 -19 34 -17q43 0 82 -10q27 -12 27 -39 q-2 -31 -19 -76l-403 -1020h-8l-352 930q-48 115 -48 158q0 29 21 43q29 14 80 14q28 -2 31 19q-3 18 -48 18l-251 -6q-121 4 -297 6q-21 0 -37 -2q-17 -4 -17 -16q0 -19 25 -19q29 0 80 -8q55 -12 90 -41q33 -31 65 -115z" />
<glyph unicode="W" horiz-adv-x="2222" d="M588 41q20 -76 47 -76q18 0 33 25q14 24 41 84q237 571 399 1018h4l426 -1026q22 -54 37 -78q12 -23 26 -23q21 0 33 23q12 22 27 73l409 1217q33 90 58 147q22 58 57 70q37 10 72 10q28 0 28 21q-2 16 -36 16q-54 0 -103 -2q-51 -4 -67 -4q-39 4 -213 6q-48 0 -48 -18 q0 -19 35 -19q60 0 80 -16q19 -19 19 -45q0 -21 -2 -51q-7 -31 -19 -68l-272 -917h-6l-426 1030q-17 49 -29 73q-14 23 -31 23q-10 0 -22 -14q-10 -17 -29 -60l-397 -1067h-6q-133 420 -262 871q-19 71 -31 120q-6 25 -8 43q-7 17 -7 25q-2 33 23 45q25 8 51 8q35 -2 37 19 q0 18 -43 18q-90 0 -149 -2q-62 -4 -78 -4q-54 4 -238 6q-43 0 -45 -18q2 -21 33 -19q39 0 82 -18q41 -31 76 -146z" />
<glyph unicode="X" horiz-adv-x="1458" d="M1180 1333q45 68 81 111q35 41 68 49q43 12 74 12q33 0 33 19q-3 18 -37 18q-58 0 -111 -2q-57 -4 -90 -4q-72 4 -205 6q-43 0 -43 -18q2 -21 25 -19q30 0 65 -6q33 -12 35 -37q0 -29 -22 -78q-31 -55 -127 -202l-152 -230l-260 453q-20 37 -20 59q-3 21 24 33q31 8 55 8 q29 -2 31 19q0 18 -41 18q-59 0 -125 -2q-67 -4 -94 -4q-190 4 -311 6q-41 0 -41 -16q2 -21 20 -21q35 0 86 -14q103 -33 170 -154l352 -583l-391 -559q-51 -72 -86 -107q-37 -35 -82 -47q-49 -10 -75 -10q-27 0 -29 -19q0 -18 31 -18h35q81 4 172 6q45 0 112 -2 q66 -4 80 -4h37q41 0 41 18q-2 19 -25 19q-26 0 -47 4q-12 4 -22 12q-13 10 -17 23q-2 34 29 86l303 489l324 -557q12 -18 8 -31q-2 -12 -13 -16q-28 -4 -28 -23q-2 -18 69 -20q267 -4 369 -4h62q36 0 38 20q-2 17 -26 17q-27 -2 -78 12q-74 23 -119 86q-55 80 -217 348 l-231 373z" />
<glyph unicode="Y" horiz-adv-x="1372" d="M565 356q0 -61 -6 -204q-2 -46 -16 -74q-17 -31 -47 -39q-29 -8 -72 -8q-33 0 -33 -17q0 -20 45 -20q148 4 256 6l313 -6q41 0 44 20q0 17 -33 17q-51 0 -103 8q-45 8 -61 39q-21 28 -23 74q-8 143 -6 204v168q0 51 4 103q4 24 11 51q6 24 16 51q16 37 70 129l116 201 q142 235 205 321q57 76 111 101q53 24 90 24t39 21q-2 16 -37 16q-105 -4 -219 -6q-90 4 -193 6q-35 0 -35 -18q2 -17 37 -21q27 -6 35 -18q8 -17 8 -33q0 -39 -28 -107l-156 -286l-96 -174q-45 -80 -56 -103l-174 307l-108 195l-66 111q-24 45 -24 69q0 29 28 37 q45 8 45 23q0 18 -30 18q-68 0 -125 -2q-60 -4 -94 -4q-152 4 -258 6q-37 0 -39 -18q2 -21 30 -19q41 -2 86 -26q62 -35 142 -150q69 -104 202 -321l109 -177q45 -75 49 -92q23 -41 35 -88t12 -127v-168z" />
<glyph unicode="Z" horiz-adv-x="1454" d="M455 113l882 1368q15 20 17 39q-2 16 -35 16h-625q-104 -2 -377 6q-65 10 -81 14q-19 0 -25 -39l-23 -151q-18 -98 -18 -143q-2 -35 16 -35q19 -2 25 37t33 86q28 45 78 73q53 29 135 37q80 6 159 6h402l-866 -1345q-33 -47 -31 -62q0 -20 35 -20q604 -6 1099 -10 q52 0 62 53q14 45 26 121q15 76 15 129q0 37 -2 51q-6 12 -19 12q-16 0 -20 -32q-8 -45 -37 -99q-21 -47 -92 -78q-74 -34 -230 -34h-503z" />
<glyph unicode="[" horiz-adv-x="737" d="M385 1362q0 117 14 182q52 23 113 31q61 10 108 12q35 2 35 21q0 18 -24 18h-391q-35 2 -33 -27v-1718q0 -20 6 -26q6 -7 27 -7h389q24 0 24 19q0 20 -35 20q-47 7 -108 15q-64 8 -111 28q-14 64 -14 191v1241z" />
<glyph unicode="]" horiz-adv-x="737" d="M352 113q0 -117 -14 -183q-47 -20 -109 -28q-63 -8 -112 -15q-35 -2 -35 -20q0 -19 24 -19h392q20 0 28 7q4 6 4 20v1718q0 25 -4 29t-28 4h-389q-25 0 -25 -18q0 -19 35 -21q49 -2 112 -12q62 -8 107 -31q14 -63 14 -190v-1241z" />
<glyph unicode="_" horiz-adv-x="1024" d="M0 -154v-102h1024v102h-1024z" />
<glyph unicode="`" d="M1100 1714q-4 16 -43 37q-74 57 -142 123q-67 63 -86 86q-24 45 -32 45q-11 0 -39 -14q-60 -25 -138 -52q-26 -4 -26 -18q2 -23 67 -51l211 -90l136 -54q57 -26 69 -26q21 0 23 14z" />
<glyph unicode="a" horiz-adv-x="1433" d="M874 528q15 0 21 -14l164 -434q10 -39 -19 -47q-28 -2 -28 -19q2 -16 61 -16q262 -4 387 -4q57 0 78 6q16 2 16 14q0 17 -26 17q-39 0 -86 8q-31 6 -76 47q-45 43 -105 176l-507 1260q-27 65 -52 65q-24 2 -57 -82l-514 -1286q-14 -37 -29 -67q-14 -33 -36 -58 q-39 -49 -109 -59q-31 -4 -63 -4q-25 0 -25 -17q0 -20 39 -20q184 4 241 6q107 -2 218 -6q34 0 34 20q2 17 -30 17h-31q-45 0 -64 20q-18 17 -18 43q0 43 31 125l110 293q4 16 19 16h456zM459 631q-13 0 -8 14l188 504q4 16 12 18q8 -2 10 -18l185 -506q4 -12 -10 -12h-377z " />
<glyph unicode="b" horiz-adv-x="1448" d="M336 588q0 -295 -10 -436q-4 -46 -17 -74q-12 -31 -43 -39q-26 -8 -74 -8q-34 0 -32 -17q0 -20 41 -20q155 4 258 6q157 -6 297 -12q282 4 415 143q131 133 131 303q-4 180 -122 291q-115 111 -250 151q88 68 149 152q58 84 60 207q4 92 -78 196q-45 48 -131 80 q-88 29 -228 31q-102 -4 -249 -6q-88 4 -279 6q-45 0 -45 -18q0 -21 35 -19q49 0 80 -6q51 -8 69 -37q17 -26 19 -80q4 -32 4 -434v-360zM582 1419q-2 31 18 35q29 4 68 4q67 0 116 -29q49 -30 80 -77q60 -99 60 -211q-2 -152 -84 -217q-50 -41 -148 -39q-69 0 -96 6 q-14 0 -14 22v506zM1051 342q0 -80 -25 -129q-25 -51 -64 -82q-38 -27 -79 -39q-43 -12 -80 -12q-68 -2 -150 24q-47 19 -59 60q-14 39 -12 137v485q0 15 12 15q39 0 88 -2q61 -2 100 -13q39 -12 70 -36q115 -84 160 -195q39 -115 39 -213z" />
<glyph unicode="c" horiz-adv-x="1638" d="M1069 -35q102 0 203 12q102 13 166 35q26 11 36 25q13 12 17 35q16 61 31 155q14 90 14 117q0 29 -19 31q-20 2 -26 -41q-14 -66 -70 -135q-112 -121 -375 -115q-219 0 -423 182q-213 182 -222 547q-2 152 39 291q41 137 150 239q127 125 385 127q299 -6 415 -127 q78 -86 80 -188q-2 -45 21 -45q24 0 24 47q5 90 7 221q8 99 10 113q0 20 -31 24q-45 7 -94 19q-51 10 -111 16q-123 21 -297 21q-225 0 -381 -58q-157 -57 -266 -159q-143 -140 -192 -295q-49 -156 -47 -266q-2 -150 53 -310q53 -159 201 -295q280 -227 702 -223z" />
<glyph unicode="d" horiz-adv-x="1917" d="M336 588q0 -295 -10 -436q-4 -46 -17 -74q-12 -31 -43 -39q-26 -8 -74 -8q-34 0 -32 -17q0 -20 41 -20q155 4 258 6q80 0 200 -12q121 -11 236 -13q285 5 450 86q86 39 144 80q59 41 92 76q90 90 156 234q65 145 67 337q-2 185 -59 314q-60 129 -139 207 q-173 168 -398 204q-223 33 -424 29q-202 -4 -315 -6q-109 4 -295 6q-45 0 -45 -18q0 -21 35 -19q49 0 80 -6q51 -8 69 -37q17 -26 19 -80q4 -32 4 -434v-360zM592 981q0 274 2 409q-2 31 24 41q17 7 60 13q41 2 74 2q122 2 280 -35q158 -39 301 -170q35 -31 70 -76 q35 -49 63 -112q62 -127 64 -324q0 -158 -37 -289q-39 -133 -135 -221q-170 -151 -471 -147q-119 0 -183 28q-65 25 -86 54q-12 20 -14 69q-6 47 -8 86q-4 74 -4 414v258z" />
<glyph unicode="e" horiz-adv-x="1294" d="M336 588q0 -295 -10 -436q-4 -46 -17 -74q-12 -31 -43 -39q-26 -8 -74 -8q-34 0 -32 -17q0 -20 41 -20q155 4 258 6q143 -6 567 -12q57 0 80 8q22 8 31 45q10 37 18 113q8 73 8 114q2 35 -16 37q-8 0 -15 -6q-6 -6 -8 -25q-16 -120 -92 -151q-41 -19 -96 -21 q-53 -4 -96 -4q-152 -2 -199 35q-47 35 -47 137q-2 152 0 318v162q-2 20 12 20h152q102 -2 139 -6q57 -6 84 -27q24 -22 31 -53q8 -41 8 -74q-2 -18 18 -18q15 0 17 14q2 12 2 25q0 49 8 137q14 143 16 149q0 17 -14 17q-12 0 -33 -27q-26 -26 -98 -31q-45 -2 -162 -2 q-119 -2 -166 -2q-16 0 -14 23v518q0 20 14 20q43 0 150 -2q106 -2 141 -6q74 -8 102 -26q29 -19 35 -47q13 -45 13 -74q-3 -29 18 -29q20 2 20 23q7 71 11 135q14 127 16 133q0 16 -12 18q-17 -2 -33 -8q-27 -6 -88 -12q-236 -2 -512 -2q-109 4 -295 6q-45 0 -45 -18 q0 -21 35 -19q49 0 80 -6q51 -8 69 -37q17 -26 19 -80q4 -32 4 -434v-360z" />
<glyph unicode="f" horiz-adv-x="1274" d="M594 754q0 18 14 18h148q106 0 155 -6q25 -2 43 -8q19 -8 31 -21q25 -22 31 -45q12 -39 12 -63q0 -27 16 -29q17 0 19 14q2 11 2 25q0 55 8 149q4 25 6 48q4 22 6 36q4 35 4 43q0 19 -12 19q-14 0 -26 -21q-31 -37 -89 -37q-40 -2 -92 -2l-262 -2q-16 0 -14 19v512 q0 28 18 28l316 -6q59 -2 92 -18q35 -21 43 -43q10 -21 12 -43v-35q2 -33 21 -33q20 0 20 29q6 86 10 166q15 76 17 92q0 16 -15 18q-14 -2 -32 -12q-29 -6 -84 -8q-248 -2 -541 -2q-113 4 -295 6q-47 0 -47 -20q0 -17 35 -17q49 0 80 -6q51 -8 69 -37q17 -26 19 -80 q4 -32 4 -434v-360q0 -301 -10 -436q-4 -46 -17 -74q-12 -31 -43 -39q-26 -8 -74 -8q-32 0 -30 -17q0 -20 43 -20q149 4 260 6q98 -2 311 -6q45 0 45 20q0 17 -35 17q-51 0 -102 8q-45 8 -59 39q-17 28 -21 74q-12 135 -10 436v166z" />
<glyph unicode="g" horiz-adv-x="1814" d="M1579 356q0 154 2 246q0 105 78 117q35 6 55 6q25 0 27 16q0 21 -41 21q-123 -4 -240 -6q-115 4 -297 6q-43 0 -43 -21q0 -16 31 -16q49 0 80 -6q51 -8 71 -37q19 -27 17 -80q2 -90 2 -242v-192q2 -53 -39 -76q-37 -14 -84 -18t-90 -4q-328 4 -516 221q-195 213 -197 549 q0 190 51 311q52 121 138 190q108 86 215 109q106 20 190 18q176 -2 293 -53q117 -53 164 -106q39 -43 53 -88q14 -43 16 -82q2 -27 21 -27q22 -2 22 43q9 344 15 336q2 22 -29 24q-84 7 -162 23q-106 27 -362 33q-129 2 -264 -21q-140 -24 -287 -112q-143 -84 -246 -254 q-108 -170 -110 -416q6 -422 286 -612q273 -191 660 -191q123 0 258 21q133 20 235 71q19 11 25 23q2 14 2 51v225z" />
<glyph unicode="h" horiz-adv-x="1991" d="M604 891q-12 0 -12 14v43q0 225 2 309q0 84 2 125q2 56 20 84q17 27 56 33q37 6 59 6q37 -2 37 19q0 18 -43 18q-152 -4 -258 -6q-107 4 -295 6q-43 0 -43 -18q0 -21 35 -19q49 0 80 -6q51 -8 69 -37q17 -26 19 -80q4 -32 4 -434v-360q0 -295 -10 -436q-4 -46 -17 -74 q-12 -31 -43 -39q-26 -8 -74 -8q-34 0 -32 -17q0 -20 41 -20q155 4 258 6l319 -6q39 0 41 20q0 17 -33 17q-53 0 -104 8q-45 8 -59 39q-17 28 -21 71q-12 144 -10 439v180q0 12 12 12h782q11 0 13 -12v-180q0 -295 -11 -436q-4 -46 -16 -74q-12 -31 -43 -39q-27 -8 -74 -8 q-34 0 -32 -17q0 -20 43 -20q153 4 256 6l319 -6q39 0 41 20q0 17 -33 17q-53 0 -104 8q-45 8 -60 39q-16 28 -20 71q-12 144 -10 439v360q0 225 2 309q0 84 2 125q2 56 20 84q17 27 56 33q36 6 59 6q37 -2 37 19q0 18 -43 18q-152 -4 -258 -6q-107 4 -295 6q-43 0 -43 -18 q0 -21 35 -19q49 0 80 -6q51 -8 69 -37q17 -26 19 -80q4 -32 4 -434v-43q-2 -14 -13 -14h-782z" />
<glyph unicode="i" horiz-adv-x="926" d="M336 588q0 -307 -10 -447q-4 -90 -60 -102q-26 -8 -74 -8q-34 0 -32 -17q0 -20 41 -20q155 4 258 6q100 -2 319 -6q37 0 39 20q0 17 -33 17q-53 0 -104 8q-45 6 -60 35q-16 24 -22 65q-10 142 -8 449v360q0 225 2 309q0 84 2 125q2 56 20 84q17 27 56 33q34 6 61 6 q33 -2 33 21q-2 16 -43 16q-146 -4 -250 -6q-119 4 -266 6q-49 0 -49 -16q0 -23 32 -21q39 0 74 -8q66 -12 70 -115q4 -32 4 -434v-360z" />
<glyph unicode="j" horiz-adv-x="852" d="M336 360q2 -297 -17 -473q-24 -176 -137 -290q-28 -29 -53 -48q-25 -18 -45 -30q-47 -25 -45 -37q0 -16 16 -16q19 0 41 12q64 31 103 53q288 191 348 387q30 86 41 182q8 95 8 181q-4 155 -6 288v379q0 225 2 309q0 84 2 125q2 56 20 84q17 27 56 33q30 6 59 6 q37 -2 37 19q0 18 -43 18q-152 -4 -258 -6q-105 4 -291 6q-45 0 -45 -18q0 -21 35 -19q49 0 80 -6q51 -8 69 -37q17 -26 19 -80q4 -32 4 -434v-588z" />
<glyph unicode="k" horiz-adv-x="1573" d="M586 948q0 225 2 309q0 84 2 125q2 56 20 84q17 27 56 33q32 6 57 6q27 -2 29 19q0 18 -43 18q-140 -4 -248 -6q-99 4 -287 6q-45 0 -45 -18q0 -21 35 -19q49 0 80 -6q51 -8 69 -37q17 -26 19 -80q4 -32 4 -434v-360q0 -295 -10 -436q-4 -46 -17 -74q-12 -31 -43 -39 q-26 -8 -74 -8q-34 0 -32 -17q0 -20 41 -20q155 4 258 6l295 -6q36 0 39 20q0 17 -27 17q-49 0 -100 8q-35 8 -54 39q-18 28 -20 71q-8 144 -6 439v186h10l22 -31l252 -297l170 -192q39 -43 70 -74q29 -33 45 -49q66 -59 121 -90q53 -33 133 -43q57 -4 141 -4h178q31 0 41 6 q9 6 9 14q-3 17 -27 17q-35 -2 -127 30q-82 37 -152 97q-73 59 -141 125q-80 79 -278 297q-201 215 -277 307l442 442q68 64 121 100q56 37 101 54q67 22 118 22q31 -2 31 19q-2 18 -35 18q-118 -4 -239 -6q-115 4 -211 6q-33 0 -33 -18q0 -17 27 -21q28 -6 28 -41 q0 -24 -28 -61q-29 -39 -74 -92q-57 -66 -209 -222l-219 -229h-10v90z" />
<glyph unicode="l" horiz-adv-x="1239" d="M592 948q0 225 2 309q0 84 2 125q2 56 20 84q17 27 56 33q41 6 80 6q36 -2 36 19q0 18 -43 18q-161 -4 -278 -6q-109 4 -281 6q-45 0 -45 -18q0 -21 35 -19q41 0 68 -6q51 -8 69 -37q17 -26 19 -80q4 -32 4 -434v-360q0 -295 -10 -436q-4 -46 -17 -74q-12 -31 -43 -39 q-26 -8 -74 -8q-34 0 -32 -17q0 -20 41 -20q155 4 258 6q200 -6 596 -12q77 0 102 12q21 10 27 43q12 53 22 133q8 80 8 103q0 34 -16 34q-23 -2 -23 -30q-10 -70 -53 -123q-37 -39 -96 -47q-61 -11 -143 -11q-117 0 -170 13q-54 12 -78 32q-29 27 -37 138q-8 106 -6 303 v360z" />
<glyph unicode="m" horiz-adv-x="2136" d="M209 199q-4 -56 -23 -101q-20 -49 -61 -61q-41 -8 -62 -6q-32 0 -32 -15q2 -22 37 -22q120 4 202 6l215 -6q47 0 49 22q-2 15 -30 15q-31 0 -86 10q-60 10 -62 65q0 46 6 97l107 815h8q148 -309 213 -455q27 -57 111 -217l125 -248q24 -45 43 -73q16 -29 28 -29 q17 -6 76 115l447 929h8l123 -901q6 -43 4 -63q-4 -21 -15 -25q-22 -8 -22 -22q-4 -17 59 -23q232 -10 416 -12q22 0 39 6q14 6 14 16q-2 15 -33 15q-39 -2 -127 20q-81 21 -100 207l-186 1266q-8 63 -37 63q-25 0 -45 -49l-557 -1169l-559 1155q-19 39 -31 53 q-12 10 -25 10q-24 0 -34 -53z" />
<glyph unicode="n" horiz-adv-x="1939" d="M428 1132h6q105 -120 488 -516l604 -602q18 -16 37 -28q16 -17 32 -17q27 0 27 64l22 1292q2 86 19 125q14 39 57 49q35 6 62 6q36 0 36 19q-2 20 -47 18q-75 0 -129 -2q-53 -4 -71 -4q-76 4 -248 6q-21 0 -37 -2q-16 -4 -16 -16q-2 -19 32 -19q54 2 109 -12 q37 -12 55 -51q15 -41 15 -133l20 -920h-10q-37 37 -184 195l-267 272q-522 532 -635 657q-22 29 -40 47q-17 17 -35 17q-29 -2 -27 -70l-18 -1212q2 -129 -11 -186q-14 -58 -53 -68q-47 -10 -92 -10q-33 0 -33 -17q0 -22 45 -20q176 4 221 6q58 -2 254 -6q45 0 48 20 q0 17 -35 17q-52 -2 -107 14q-31 10 -49 59q-18 52 -22 168z" />
<glyph unicode="o" d="M938 -35q395 6 620 246q226 235 228 594q-17 749 -828 766q-456 -8 -651 -269q-196 -253 -194 -534q-2 -287 192 -537q197 -258 633 -266zM1024 68q-297 4 -461 223q-168 213 -168 540q0 193 47 318q45 125 119 194q74 74 164 103q88 26 174 26q258 -2 428 -198 q168 -197 172 -545q-2 -219 -53 -350q-51 -133 -129 -201q-78 -65 -158 -88q-78 -22 -135 -22z" />
<glyph unicode="p" horiz-adv-x="1341" d="M336 588q0 -295 -10 -436q-4 -46 -17 -74q-12 -31 -43 -39q-26 -8 -74 -8q-34 0 -32 -17q0 -20 41 -20q155 4 258 6q98 -2 317 -6q37 0 39 20q0 17 -33 17q-53 0 -104 8q-45 8 -60 39q-16 28 -20 71q-12 144 -10 439v819q0 33 16 39q31 8 80 8q39 0 94 -12 q53 -17 111 -68q43 -37 69 -80q25 -43 35 -86q12 -41 15 -76q2 -36 2 -65q-5 -158 -93 -246q-90 -92 -182 -92q-31 0 -43 -4q-14 -6 -14 -18q2 -19 24 -19q23 -2 43 -2q224 2 363 139q139 135 141 357q-2 84 -33 149q-32 64 -69 94q-10 15 -35 33q-27 21 -70 39 q-43 20 -110 33q-68 12 -166 12q-156 -4 -297 -6q-109 4 -295 6q-45 0 -45 -18q0 -21 35 -19q49 0 80 -6q51 -8 69 -37q17 -26 19 -80q4 -32 4 -434v-360z" />
<glyph unicode="q" horiz-adv-x="1905" d="M1589 -170q457 -283 866 -278q224 2 392 55q163 51 258 98q22 8 24 25q-2 18 -18 18q-13 0 -31 -10q-225 -74 -399 -72q-52 0 -129 8q-78 9 -183 33q-206 43 -532 203l-412 211q109 65 230 235q120 168 127 439q-4 362 -230 569q-225 205 -600 207q-444 -11 -643 -271 q-198 -251 -196 -522q-2 -293 192 -542q197 -263 641 -271q180 2 322 53zM1022 68q-254 0 -434 196q-187 195 -191 561q4 353 156 502q145 147 352 145q223 0 402 -180q182 -180 188 -553q0 -110 -12 -198q-13 -90 -37 -158q-23 -68 -53 -117q-35 -49 -72 -86 q-76 -67 -154 -90q-82 -22 -145 -22z" />
<glyph unicode="r" horiz-adv-x="1546" d="M336 588q0 -295 -10 -436q-4 -46 -17 -74q-12 -31 -43 -39q-26 -8 -74 -8q-34 0 -32 -17q0 -20 41 -20q157 4 250 6q83 -2 301 -6q41 0 41 20q0 17 -25 17q-45 0 -100 8q-45 8 -60 39q-16 28 -20 74q-13 141 -11 438v28q0 17 17 17l178 -4q23 0 37 -15q24 -26 82 -108 l121 -174q159 -234 280 -301q39 -21 88 -29q47 -10 131 -10h195q39 0 39 20q0 17 -25 17q-24 0 -57 6q-23 4 -82 29q-59 24 -148 110q-176 193 -444 539q154 125 215 237q57 109 55 221q-2 107 -47 181q-45 71 -92 100q-84 57 -180 74q-96 14 -197 14q-139 -4 -288 -6 q-90 4 -281 6q-45 0 -45 -18q0 -21 35 -19q49 0 80 -6q51 -8 69 -37q17 -26 19 -80q4 -32 4 -434v-360zM577 1409q-2 24 19 29q31 8 108 8q48 0 103 -17q53 -18 100 -61q51 -41 82 -115q29 -71 29 -182q-2 -125 -37 -199q-35 -75 -84 -108q-25 -19 -53 -27q-33 -8 -92 -8 q-84 0 -156 21q-21 6 -19 36v623z" />
<glyph unicode="s" horiz-adv-x="1192" d="M522 -35q84 0 166 19q84 18 160 65q108 76 153 172q39 94 39 184q0 146 -75 265q-78 120 -261 258l-57 43q-123 96 -170 161q-49 66 -47 134q0 94 68 153q61 58 176 58q100 -3 151 -35q51 -33 72 -66q33 -41 45 -80q8 -39 8 -55q0 -37 21 -37q22 -2 22 62q0 118 4 174 q4 55 4 71q0 21 -28 25q-39 12 -105 24q-67 11 -168 11q-215 -2 -342 -107q-131 -108 -131 -280q-2 -121 68 -238t235 -248l95 -73q127 -97 165 -174q23 -39 31 -76q4 -39 4 -78q0 -84 -67 -156q-68 -75 -207 -78q-96 0 -176 48q-80 47 -117 159q-18 60 -18 105q0 14 -2 24 q-2 11 -19 11q-22 -2 -24 -54q-9 -73 -11 -268q0 -31 8 -45q9 -14 31 -25q127 -53 299 -53z" />
<glyph unicode="t" horiz-adv-x="1454" d="M608 588q0 -295 -10 -436q-2 -46 -14 -74q-15 -31 -45 -39q-27 -8 -74 -8q-35 0 -33 -17q0 -20 41 -20q156 4 258 6q102 -2 322 -6q36 0 39 20q0 17 -33 17q-54 0 -105 8q-45 8 -59 39q-16 28 -21 71q-12 144 -10 439v839l258 -6q135 -4 189 -37q53 -34 53 -77l2 -23 q0 -43 22 -41q17 0 19 33q4 127 6 237q0 43 -16 43q-11 0 -56 -10t-141 -10h-811q-108 0 -205 10q-37 4 -55 14q-20 11 -33 11q-16 0 -24 -39q-4 -21 -23 -111q-6 -41 -12 -76q-8 -34 -8 -49q-2 -32 18 -32q19 0 23 24q6 25 34 72q23 33 68 47q45 10 131 12l305 8v-839z" />
<glyph unicode="u" horiz-adv-x="1745" d="M248 649q0 -219 53 -346q51 -129 129 -197q117 -96 244 -120q127 -23 211 -21q102 0 209 29q108 29 217 119q125 114 163 280q33 164 31 336v219q0 225 2 309q0 84 2 125q2 56 21 84q16 27 55 33q31 6 59 6q37 -2 37 19q0 18 -43 18q-63 0 -135 -2q-76 -4 -98 -4 q-41 4 -236 6q-43 0 -43 -18q0 -21 35 -19q41 0 74 -6q51 -8 69 -37q17 -26 19 -80q4 -32 4 -434v-256q2 -158 -14 -289q-21 -133 -105 -219q-61 -59 -137 -84q-76 -26 -145 -26q-25 0 -56 4q-30 2 -63 10q-31 8 -66 27q-34 16 -71 43q-74 57 -115 174q-45 112 -45 329v287 q0 225 2 309q0 84 2 125q2 56 20 84q17 27 56 33q30 6 59 6q33 -2 33 19q0 18 -45 18q-143 -4 -252 -6q-115 4 -299 6q-45 0 -45 -18q0 -21 35 -19q49 0 80 -6q51 -8 69 -37q17 -26 19 -80q4 -32 4 -434v-299z" />
<glyph unicode="v" horiz-adv-x="1483" d="M664 90q28 -70 45 -96q14 -29 32 -29q21 0 39 33q17 33 56 119l272 624l246 555q43 97 69 137q25 37 43 48q29 18 58 22q28 2 43 2q32 -2 32 19q-2 18 -43 18q-49 0 -104 -2q-57 -4 -88 -4q-51 4 -215 6q-57 0 -57 -20q2 -19 34 -17q43 0 82 -10q27 -12 27 -39 q-2 -31 -19 -76l-403 -1020h-8l-352 930q-48 115 -48 158q0 29 21 43q29 14 80 14q28 -2 31 19q-3 18 -48 18l-251 -6q-121 4 -297 6q-21 0 -37 -2q-17 -4 -17 -16q0 -19 25 -19q29 0 80 -8q55 -12 90 -41q33 -31 65 -115z" />
<glyph unicode="w" horiz-adv-x="2222" d="M588 41q20 -76 47 -76q18 0 33 25q14 24 41 84q237 571 399 1018h4l426 -1026q22 -54 37 -78q12 -23 26 -23q21 0 33 23q12 22 27 73l409 1217q33 90 58 147q22 58 57 70q37 10 72 10q28 0 28 21q-2 16 -36 16q-54 0 -103 -2q-51 -4 -67 -4q-39 4 -213 6q-48 0 -48 -18 q0 -19 35 -19q60 0 80 -16q19 -19 19 -45q0 -21 -2 -51q-7 -31 -19 -68l-272 -917h-6l-426 1030q-17 49 -29 73q-14 23 -31 23q-10 0 -22 -14q-10 -17 -29 -60l-397 -1067h-6q-133 420 -262 871q-19 71 -31 120q-6 25 -8 43q-7 17 -7 25q-2 33 23 45q25 8 51 8q35 -2 37 19 q0 18 -43 18q-90 0 -149 -2q-62 -4 -78 -4q-54 4 -238 6q-43 0 -45 -18q2 -21 33 -19q39 0 82 -18q41 -31 76 -146z" />
<glyph unicode="x" horiz-adv-x="1458" d="M1180 1333q45 68 81 111q35 41 68 49q43 12 74 12q33 0 33 19q-3 18 -37 18q-58 0 -111 -2q-57 -4 -90 -4q-72 4 -205 6q-43 0 -43 -18q2 -21 25 -19q30 0 65 -6q33 -12 35 -37q0 -29 -22 -78q-31 -55 -127 -202l-152 -230l-260 453q-20 37 -20 59q-3 21 24 33q31 8 55 8 q29 -2 31 19q0 18 -41 18q-59 0 -125 -2q-67 -4 -94 -4q-190 4 -311 6q-41 0 -41 -16q2 -21 20 -21q35 0 86 -14q103 -33 170 -154l352 -583l-391 -559q-51 -72 -86 -107q-37 -35 -82 -47q-49 -10 -75 -10q-27 0 -29 -19q0 -18 31 -18h35q81 4 172 6q45 0 112 -2 q66 -4 80 -4h37q41 0 41 18q-2 19 -25 19q-26 0 -47 4q-12 4 -22 12q-13 10 -17 23q-2 34 29 86l303 489l324 -557q12 -18 8 -31q-2 -12 -13 -16q-28 -4 -28 -23q-2 -18 69 -20q267 -4 369 -4h62q36 0 38 20q-2 17 -26 17q-27 -2 -78 12q-74 23 -119 86q-55 80 -217 348 l-231 373z" />
<glyph unicode="y" horiz-adv-x="1372" d="M565 356q0 -61 -6 -204q-2 -46 -16 -74q-17 -31 -47 -39q-29 -8 -72 -8q-33 0 -33 -17q0 -20 45 -20q148 4 256 6l313 -6q41 0 44 20q0 17 -33 17q-51 0 -103 8q-45 8 -61 39q-21 28 -23 74q-8 143 -6 204v168q0 51 4 103q4 24 11 51q6 24 16 51q16 37 70 129l116 201 q142 235 205 321q57 76 111 101q53 24 90 24t39 21q-2 16 -37 16q-105 -4 -219 -6q-90 4 -193 6q-35 0 -35 -18q2 -17 37 -21q27 -6 35 -18q8 -17 8 -33q0 -39 -28 -107l-156 -286l-96 -174q-45 -80 -56 -103l-174 307l-108 195l-66 111q-24 45 -24 69q0 29 28 37 q45 8 45 23q0 18 -30 18q-68 0 -125 -2q-60 -4 -94 -4q-152 4 -258 6q-37 0 -39 -18q2 -21 30 -19q41 -2 86 -26q62 -35 142 -150q69 -104 202 -321l109 -177q45 -75 49 -92q23 -41 35 -88t12 -127v-168z" />
<glyph unicode="z" horiz-adv-x="1454" d="M455 113l882 1368q15 20 17 39q-2 16 -35 16h-625q-104 -2 -377 6q-65 10 -81 14q-19 0 -25 -39l-23 -151q-18 -98 -18 -143q-2 -35 16 -35q19 -2 25 37t33 86q28 45 78 73q53 29 135 37q80 6 159 6h402l-866 -1345q-33 -47 -31 -62q0 -20 35 -20q604 -6 1099 -10 q52 0 62 53q14 45 26 121q15 76 15 129q0 37 -2 51q-6 12 -19 12q-16 0 -20 -32q-8 -45 -37 -99q-21 -47 -92 -78q-74 -34 -230 -34h-503z" />
<glyph unicode="{" horiz-adv-x="737" d="M442 348q4 201 -20 307q-19 62 -57 105q-41 41 -86 55v4v-2q45 14 90 59q43 43 57 97q20 108 16 368q0 68 21 115q16 45 43 76q28 31 55 45t45 16q37 4 37 19q0 14 -41 14q-55 0 -115 -18q-59 -23 -108 -66q-60 -49 -94 -129q-37 -78 -37 -231q0 -39 12 -101 q8 -63 8 -123q0 -34 -4 -59q-6 -29 -20 -41q-29 -22 -60 -25q-30 -4 -57 -6q-31 0 -29 -22q-2 -19 29 -21q88 -6 123 -51q14 -22 14 -61q0 -37 -8 -103q-8 -63 -8 -116q0 -213 35 -314q14 -51 32 -88q19 -39 37 -65q60 -76 123 -107q62 -31 96 -31q78 0 74 15q2 14 -49 26 q-55 9 -102 107q-52 100 -52 352z" />
<glyph unicode="}" horiz-adv-x="737" d="M295 348q-2 -252 -49 -352q-23 -51 -47 -76q-29 -24 -58 -31q-51 -12 -49 -26q-6 -15 74 -15q39 0 100 31q62 31 119 107q41 51 74 153q16 53 24 129q6 78 6 185q0 53 -8 116q-8 66 -8 103q0 39 14 61q35 45 123 51q29 2 29 21q0 22 -29 22q-22 2 -55 6q-33 3 -61 25 q-15 12 -19 41q-6 25 -6 59q0 60 12 123q8 62 8 101q0 153 -34 231q-37 80 -97 129q-47 43 -106 66q-60 18 -117 18q-41 0 -41 -14q0 -15 37 -19q43 -4 100 -61q29 -31 48 -76q16 -47 16 -115q-4 -260 16 -368q17 -54 62 -97q43 -45 86 -59v2v-4q-43 -14 -82 -55 q-41 -43 -62 -105q-24 -106 -20 -307z" />
<glyph unicode="&#xa1;" horiz-adv-x="655" d="M332 1200q-29 0 -31 -65l-86 -879q-10 -115 -20 -180q-13 -68 -13 -84q0 -25 19 -27q35 2 78 21q45 18 96 53q51 33 88 76q10 14 10 32q-2 19 -16 54q-13 71 -27 202q-12 131 -16 166q-23 228 -52 557q-2 72 -30 74zM346 1571q-53 0 -84 -35q-33 -35 -33 -88 q0 -49 33 -78q33 -31 82 -31q61 2 88 41q27 37 27 76q0 43 -25 78q-26 35 -88 37z" />
<glyph unicode="&#xa2;" horiz-adv-x="1206" d="M782 1198q78 -2 127 -25q49 -22 72 -51q43 -51 49 -135q2 -22 19 -22q18 0 20 22q10 111 12 211v33q-2 8 -14 10q-76 31 -150 43q-75 10 -120 10l28 221q2 17 -22 13l-66 -8q-20 -3 -20 -21l-23 -205q-262 0 -422 -139q-47 -37 -100 -133q-57 -96 -59 -244 q2 -223 131 -356q127 -135 329 -174l-36 -307q-3 -15 18 -13l76 11q14 2 16 22l29 275q35 -3 92 -3q98 -2 252 35q24 6 29 35q10 45 18 119t8 104q0 25 -16 25q-17 0 -27 -33q-29 -106 -94 -141q-66 -37 -162 -35q-35 0 -86 8zM588 373q-76 24 -160 141q-88 117 -92 319 q2 158 100 265q96 106 244 100z" />
<glyph unicode="&#xa3;" horiz-adv-x="1241" d="M833 735q52 0 52 17l24 69q6 19 -14 21q-10 -6 -90 -9h-258l39 277q65 375 290 373q129 0 189 -76q24 -31 37 -76q12 -45 12 -76q0 -32 21 -32q20 0 20 28q14 70 16 242q0 43 -20 43q-27 4 -55 10q-70 23 -185 25q-88 0 -174 -21q-86 -24 -180 -106q-106 -92 -154 -223 q-49 -134 -69 -281l-17 -109h-157q-25 0 -31 -14l-20 -59q-7 -25 6 -25q10 2 45 4h145l-26 -221q-19 -180 -66 -299q-49 -121 -166 -151q-61 -13 -61 -41q0 -27 61 -25h414q348 -6 526 -10q82 0 107 8q20 8 22 33q19 78 31 174q8 96 8 125q0 20 -2 28q-6 4 -16 4 q-17 0 -23 -24q-12 -96 -76 -135q-63 -37 -217 -39l-518 -6l-4 14q61 53 104 121q43 65 68 133q49 141 53 217l10 92h299z" />
<glyph unicode="&#xa5;" horiz-adv-x="1311" d="M754 586h313q22 0 27 16l14 62q4 20 -16 20h-330q67 137 198 377q132 239 189 321q33 43 55 66q21 24 51 37q45 18 95 18q28 0 30 21q-2 18 -33 18q-114 -4 -206 -6q-68 4 -183 6q-28 0 -28 -20q0 -19 32 -23q33 -8 43 -18q9 -11 9 -23q0 -45 -27 -111 q-123 -251 -291 -561l-325 607q-23 49 -23 69q-2 29 35 37q39 6 39 23q-2 20 -29 20q-69 0 -125 -2q-55 -4 -94 -4q-113 4 -225 6q-35 0 -35 -20q2 -21 27 -19q39 2 94 -24q59 -29 129 -146l192 -325q129 -224 178 -324h-290q-19 0 -23 -12l-18 -70q-2 -16 12 -16h332v-248 q0 -111 -2 -193q2 -92 -97 -106q-51 -6 -104 -6q-29 0 -27 -21q-2 -18 31 -18q221 4 299 6q80 -2 305 -6q29 0 29 18q0 21 -29 21q-51 0 -102 6q-49 8 -70 35q-22 24 -24 71q-2 82 -2 193v248z" />
<glyph unicode="&#xa8;" d="M1163 1700q47 0 74 30q24 29 24 72q-4 88 -96 90q-49 -2 -69 -31q-25 -32 -25 -65t23 -64q20 -32 69 -32zM731 1700q47 0 74 30q24 29 24 72q-4 86 -96 88q-49 -2 -69 -31q-25 -30 -25 -63t22 -64q21 -32 70 -32z" />
<glyph unicode="&#xa9;" horiz-adv-x="1847" d="M926 -35q346 4 575 236q229 225 234 565q-5 354 -230 575q-225 226 -579 230q-349 -4 -576 -234q-233 -227 -237 -571q4 -350 233 -571q223 -226 580 -230zM244 768q2 309 194 506q187 196 488 200q292 -4 483 -208q190 -203 194 -498q-4 -301 -190 -500 q-186 -205 -487 -207q-289 5 -482 209q-198 201 -200 498zM979 313q67 -4 219 25q25 6 33 16q6 8 10 41q12 60 18 105q5 41 5 55q0 20 -15 22q-16 -2 -20 -24q-6 -25 -15 -51q-8 -27 -30 -49q-19 -19 -62 -35q-43 -19 -119 -19q-120 0 -227 113q-112 113 -117 321 q0 156 84 242q80 84 211 84q54 0 92 -6q41 -8 68 -21q55 -26 70 -47q37 -45 39 -96q2 -29 18 -31q14 0 16 21q7 31 9 96q2 66 2 82q2 37 -2 39q-11 -2 -23 -2q-8 0 -49 12q-45 8 -74 12q-117 17 -168 17q-227 2 -360 -117q-43 -37 -86 -121q-47 -86 -49 -211 q2 -219 145 -344q143 -127 377 -129z" />
<glyph unicode="&#xaa;" horiz-adv-x="870" d="M520 1055q8 0 14 -13l68 -157q4 -17 -6 -19q-14 -2 -14 -16q0 -10 30 -10q156 -4 213 -4q49 0 47 14q0 14 -12 14q-20 0 -43 4q-14 2 -33 21q-20 20 -49 73q-168 367 -264 594q-10 29 -31 31q-14 2 -35 -39l-284 -606q-25 -68 -86 -76q-17 -2 -31 -2q-12 0 -14 -14 q2 -14 18 -14q88 2 141 4q62 -4 115 -4q17 0 19 14q0 14 -17 14h-14q-19 0 -27 10q-8 11 -8 17q0 16 8 47l39 104q6 13 15 13h241zM305 1124q-8 0 -6 6l86 209q6 19 16 21q9 0 17 -27l82 -203q0 -6 -4 -6h-191z" />
<glyph unicode="&#xab;" horiz-adv-x="1126" d="M979 506q8 8 8 14q0 4 -29 31l-163 164q-88 90 -123 129q45 63 157 196l146 174q10 11 12 27q-2 14 -25 16q-12 0 -38 -22q-37 -29 -191 -170l-205 -186q-41 -37 -39 -46q-2 -14 37 -49l289 -313q61 -72 66 -68q8 0 20 15zM575 506q9 8 9 14q0 4 -29 31l-164 164 q-88 90 -123 129q45 63 158 196l145 174q11 11 13 27q-2 14 -25 16q-12 0 -39 -22q-37 -29 -190 -170l-205 -186q-41 -37 -39 -46q-2 -14 37 -49l289 -313q61 -72 65 -68q8 0 21 15z" />
<glyph unicode="&#xad;" horiz-adv-x="870" d="M154 891q-25 0 -33 -2q-10 -6 -17 -25l-30 -141q-4 -14 2 -25q2 -12 14 -12t37 14q22 11 53 19q74 18 262 53q187 33 267 45q90 8 92 45q0 19 -19 25q-18 4 -47 4h-581z" />
<glyph unicode="&#xae;" horiz-adv-x="1847" d="M926 -35q346 4 575 236q229 225 234 565q-5 354 -230 575q-225 226 -579 230q-349 -4 -576 -234q-233 -227 -237 -571q4 -350 233 -571q223 -226 580 -230zM244 768q2 309 194 506q187 196 488 200q292 -4 483 -208q190 -203 194 -498q-4 -301 -190 -500 q-186 -205 -487 -207q-289 5 -482 209q-198 201 -200 498zM932 696l117 -172q49 -65 88 -108q36 -43 71 -64q31 -14 72 -16q39 -6 76 -6h49q26 0 24 14q0 16 -20 18q-33 3 -94 72l-260 307q96 84 127 148q28 63 28 121q-2 63 -24 102q-23 37 -56 57q-24 23 -79 37 q-56 15 -177 15q-90 -5 -145 -5q-100 2 -141 5h-35q-25 0 -25 -15q0 -18 19 -18q92 4 96 -64q2 -59 2 -245v-207q0 -199 -4 -246q-2 -41 -18 -51q-17 -10 -70 -13q-23 0 -23 -16t19 -16h37q39 2 135 4h90q43 -4 53 -4h39q21 0 23 18q-2 17 -21 17q-72 0 -78 14q-6 4 -12 43 t-6 180v94h123zM809 1151q18 8 53 8q88 0 137 -57q50 -58 50 -154q0 -133 -70 -174q-19 -12 -41 -14q-25 -4 -47 -4q-43 0 -82 22v373z" />
<glyph unicode="&#xaf;" d="M1184 1755q20 0 22 12l17 74q6 20 -17 20h-491q-21 0 -23 -18l-16 -74q-4 -14 16 -14h492z" />
<glyph unicode="&#xb2;" horiz-adv-x="909" d="M633 625q82 -2 100 34q21 54 33 113q14 57 14 76q0 16 -12 18q-12 0 -21 -20q-12 -47 -45 -72q-34 -27 -106 -33q-117 -8 -236 -8h-59q-8 0 -2 10q207 162 326 295q118 131 120 291q0 96 -79 168q-82 72 -258 74q-158 -2 -246 -51q-17 -5 -15 -29q0 -31 5 -82 q4 -57 4 -59q2 -33 14 -33q16 0 18 22q4 68 43 105q56 57 142 57q59 0 123 -43q28 -25 47 -63q16 -43 16 -101q0 -153 -115 -297q-116 -145 -338 -323q-6 -6 -14 -15q-10 -8 -10 -18q0 -16 22 -16h529z" />
<glyph unicode="&#xb3;" horiz-adv-x="866" d="M309 616q199 2 316 97q114 90 116 221q0 57 -26 100q-25 43 -66 72q-41 26 -82 45q-43 16 -76 18v4q54 19 123 78q31 29 54 66q20 37 20 80q2 51 -53 110q-31 29 -88 47q-60 17 -152 17q-80 0 -139 -11q-57 -12 -92 -26q-33 -17 -29 -33q0 -68 12 -131q2 -23 17 -23 q12 0 12 27q0 57 53 94q50 35 121 37q96 -2 133 -55q33 -51 33 -92q0 -47 -22 -84q-23 -37 -56 -62q-30 -24 -59 -37q-31 -12 -45 -16q-43 -4 -41 -24q-2 -15 45 -21q72 -4 145 -59q35 -27 58 -68q22 -43 22 -102q-8 -101 -69 -146q-62 -49 -144 -49q-110 0 -155 47 q-48 41 -54 105q-2 20 -16 20q-8 0 -12 -22q-7 -60 -7 -131q0 -33 5 -43q4 -15 18 -23q25 -12 76 -18q24 -5 53 -5q27 -4 51 -4z" />
<glyph unicode="&#xb4;" d="M1229 1991q-11 24 -29 24q-10 0 -41 -18q-35 -23 -145 -107q-113 -86 -185 -151q-18 -15 -18 -27q2 -12 12 -12q8 0 35 16q61 33 164 72q100 37 186 49q58 2 70 0q22 -2 10 31q-35 82 -59 123z" />
<glyph unicode="&#xb5;" horiz-adv-x="2136" d="M209 199q-4 -56 -23 -101q-20 -49 -61 -61q-41 -8 -62 -6q-32 0 -32 -15q2 -22 37 -22q120 4 202 6l215 -6q47 0 49 22q-2 15 -30 15q-31 0 -86 10q-60 10 -62 65q0 46 6 97l107 815h8q148 -309 213 -455q27 -57 111 -217l125 -248q24 -45 43 -73q16 -29 28 -29 q17 -6 76 115l447 929h8l123 -901q6 -43 4 -63q-4 -21 -15 -25q-22 -8 -22 -22q-4 -17 59 -23q232 -10 416 -12q22 0 39 6q14 6 14 16q-2 15 -33 15q-39 -2 -127 20q-81 21 -100 207l-186 1266q-8 63 -37 63q-25 0 -45 -49l-557 -1169l-559 1155q-19 39 -31 53 q-12 10 -25 10q-24 0 -34 -53z" />
<glyph unicode="&#xb8;" d="M993 0l-205 -137q-41 -25 -41 -33q0 -10 41 -18q62 -13 101 -29q39 -18 59 -39q39 -41 37 -84q-2 -61 -61 -94q-58 -33 -142 -43q-20 0 -37 -6q-16 -6 -16 -21q2 -20 35 -20q88 0 215 28q65 19 129 68q29 25 47 55q16 31 16 68q0 70 -69 113q-72 40 -195 51v4l207 137 h-121z" />
<glyph unicode="&#xb9;" horiz-adv-x="696" d="M279 993q0 -166 -7 -260q-2 -24 -12 -41q-14 -14 -49 -24q-68 -11 -117 -11q-28 0 -28 -18q0 -21 36 -19q164 3 248 5q82 -5 248 -5q37 0 37 21q-2 16 -31 16q-39 0 -94 11q-33 10 -45 24q-12 17 -14 41q-9 94 -7 260v225q0 150 4 230q3 80 3 96q0 25 -17 27 q-20 -2 -55 -25l-168 -100l-102 -64q-46 -28 -52 -32q-10 -5 -10 -17q2 -18 12 -18q13 0 23 6l88 39q57 24 82 26q22 0 24 -36q3 -35 3 -132v-225z" />
<glyph unicode="&#xba;" horiz-adv-x="967" d="M477 829q201 2 313 113q113 109 115 274q-8 349 -418 355q-227 -4 -327 -123q-101 -117 -99 -248q-2 -135 99 -248q98 -119 317 -123zM721 1186q0 -94 -21 -152q-22 -59 -57 -90t-70 -39q-34 -12 -63 -12q-55 0 -102 29q-48 28 -84 73q-76 94 -78 228q0 86 20 141 q19 55 49 86q33 33 70 47q37 10 72 10q116 -2 190 -88q72 -88 74 -233z" />
<glyph unicode="&#xbb;" horiz-adv-x="1126" d="M147 1155q-8 -6 -8 -14q-2 -2 29 -31l168 -160q88 -90 119 -133q-17 -27 -58 -78l-96 -116l-149 -177q-13 -10 -13 -26q2 -17 25 -17q14 0 39 23l192 172l203 184q39 37 39 45q0 15 -37 49l-289 314q-61 69 -65 67q-8 0 -21 -14zM551 1155q-8 -6 -8 -14q-2 -2 28 -31 l168 -160q88 -90 119 -133q-16 -27 -57 -78l-97 -116l-149 -177q-12 -10 -12 -26q2 -17 24 -17q15 0 39 23l193 172l202 184q39 37 39 45q0 15 -37 49l-288 314q-62 69 -66 67q-8 0 -20 -14z" />
<glyph unicode="&#xbf;" horiz-adv-x="1089" d="M577 -35q136 2 228 29q90 24 135 53q25 16 22 33v141q-2 72 -8 98q-2 27 -20 27q-17 -2 -19 -41q-4 -78 -71 -170q-25 -31 -74 -53q-49 -27 -121 -27q-67 0 -115 27q-49 22 -75 59q-27 37 -39 84q-15 45 -15 88q0 99 41 193q39 92 140 227q61 78 135 164q41 61 41 104 q0 27 -17 58q-20 30 -75 71q-35 29 -64 48q-29 16 -41 16q-18 -2 -18 -16q0 -11 16 -37q33 -52 33 -105q0 -55 -105 -180l-118 -131q-62 -66 -115 -133q-49 -68 -82 -144q-33 -77 -33 -176q0 -45 23 -98q20 -53 70 -100q49 -47 135 -76q82 -31 206 -33zM606 1571 q-53 0 -84 -35q-33 -35 -33 -88q0 -49 33 -78q33 -31 82 -31q62 2 88 41q27 37 27 76q0 43 -25 78q-26 35 -88 37z" />
<glyph unicode="&#xc0;" horiz-adv-x="1433" d="M874 528q15 0 21 -14l164 -434q10 -39 -19 -47q-28 -2 -28 -19q2 -16 61 -16q262 -4 387 -4q57 0 78 6q16 2 16 14q0 17 -26 17q-39 0 -86 8q-31 6 -76 47q-45 43 -105 176l-507 1260q-27 65 -52 65q-24 2 -57 -82l-514 -1286q-14 -37 -29 -67q-14 -33 -36 -58 q-39 -49 -109 -59q-31 -4 -63 -4q-25 0 -25 -17q0 -20 39 -20q184 4 241 6q107 -2 218 -6q34 0 34 20q2 17 -30 17h-31q-45 0 -64 20q-18 17 -18 43q0 43 31 125l110 293q4 16 19 16h456zM459 631q-13 0 -8 14l188 504q4 16 12 18q8 -2 10 -18l185 -506q4 -12 -10 -12h-377z M885 1714q-4 16 -43 37q-74 57 -142 123q-67 63 -86 86q-24 45 -32 45q-11 0 -39 -14q-60 -25 -138 -52q-26 -4 -26 -18q2 -23 67 -51l211 -90l136 -54q57 -26 69 -26q21 0 23 14z" />
<glyph unicode="&#xc1;" horiz-adv-x="1433" d="M874 528q15 0 21 -14l164 -434q10 -39 -19 -47q-28 -2 -28 -19q2 -16 61 -16q262 -4 387 -4q57 0 78 6q16 2 16 14q0 17 -26 17q-39 0 -86 8q-31 6 -76 47q-45 43 -105 176l-507 1260q-27 65 -52 65q-24 2 -57 -82l-514 -1286q-14 -37 -29 -67q-14 -33 -36 -58 q-39 -49 -109 -59q-31 -4 -63 -4q-25 0 -25 -17q0 -20 39 -20q184 4 241 6q107 -2 218 -6q34 0 34 20q2 17 -30 17h-31q-45 0 -64 20q-18 17 -18 43q0 43 31 125l110 293q4 16 19 16h456zM459 631q-13 0 -8 14l188 504q4 16 12 18q8 -2 10 -18l185 -506q4 -12 -10 -12h-377z M1021 1991q-11 24 -29 24q-10 0 -41 -18q-35 -23 -145 -107q-113 -86 -185 -151q-18 -15 -18 -27q2 -12 12 -12q8 0 35 16q61 33 164 72q100 37 186 49q58 2 70 0q22 -2 10 31q-35 82 -59 123z" />
<glyph unicode="&#xc2;" horiz-adv-x="1433" d="M874 528q15 0 21 -14l164 -434q10 -39 -19 -47q-28 -2 -28 -19q2 -16 61 -16q262 -4 387 -4q57 0 78 6q16 2 16 14q0 17 -26 17q-39 0 -86 8q-31 6 -76 47q-45 43 -105 176l-507 1260q-27 65 -52 65q-24 2 -57 -82l-514 -1286q-14 -37 -29 -67q-14 -33 -36 -58 q-39 -49 -109 -59q-31 -4 -63 -4q-25 0 -25 -17q0 -20 39 -20q184 4 241 6q107 -2 218 -6q34 0 34 20q2 17 -30 17h-31q-45 0 -64 20q-18 17 -18 43q0 43 31 125l110 293q4 16 19 16h456zM459 631q-13 0 -8 14l188 504q4 16 12 18q8 -2 10 -18l185 -506q4 -12 -10 -12h-377z M744 2009q-14 0 -43 -25q-32 -28 -135 -127q-104 -96 -135 -127q-18 -18 -18 -30q0 -21 18 -21q12 -2 41 25q113 92 217 151q19 11 31 11t26 -13q23 -14 87 -65q61 -51 94 -86q22 -23 30 -23q15 0 27 15l59 59q11 10 11 20q0 7 -29 29q-33 27 -127 96l-117 88q-30 23 -37 23 z" />
<glyph unicode="&#xc3;" horiz-adv-x="1433" d="M874 528q15 0 21 -14l164 -434q10 -39 -19 -47q-28 -2 -28 -19q2 -16 61 -16q262 -4 387 -4q57 0 78 6q16 2 16 14q0 17 -26 17q-39 0 -86 8q-31 6 -76 47q-45 43 -105 176l-507 1260q-27 65 -52 65q-24 2 -57 -82l-514 -1286q-14 -37 -29 -67q-14 -33 -36 -58 q-39 -49 -109 -59q-31 -4 -63 -4q-25 0 -25 -17q0 -20 39 -20q184 4 241 6q107 -2 218 -6q34 0 34 20q2 17 -30 17h-31q-45 0 -64 20q-18 17 -18 43q0 43 31 125l110 293q4 16 19 16h456zM459 631q-13 0 -8 14l188 504q4 16 12 18q8 -2 10 -18l185 -506q4 -12 -10 -12h-377z M877 1700q75 2 131 65q28 27 47 51q16 25 22 37q10 19 13 35q-3 17 -17 17t-33 -27q-6 -8 -36 -33q-31 -27 -89 -29q-71 0 -147 45q-33 23 -72 41q-39 17 -92 17q-74 -2 -131 -60q-29 -24 -47 -51q-23 -28 -35 -47q-4 -6 -8 -16q-8 -13 -8 -23q0 -14 14 -14q8 -2 33 20 q12 19 47 45q35 27 92 29q43 0 74 -14q31 -15 57 -31q33 -16 78 -35q43 -22 107 -22z" />
<glyph unicode="&#xc4;" horiz-adv-x="1433" d="M874 528q15 0 21 -14l164 -434q10 -39 -19 -47q-28 -2 -28 -19q2 -16 61 -16q262 -4 387 -4q57 0 78 6q16 2 16 14q0 17 -26 17q-39 0 -86 8q-31 6 -76 47q-45 43 -105 176l-507 1260q-27 65 -52 65q-24 2 -57 -82l-514 -1286q-14 -37 -29 -67q-14 -33 -36 -58 q-39 -49 -109 -59q-31 -4 -63 -4q-25 0 -25 -17q0 -20 39 -20q184 4 241 6q107 -2 218 -6q34 0 34 20q2 17 -30 17h-31q-45 0 -64 20q-18 17 -18 43q0 43 31 125l110 293q4 16 19 16h456zM459 631q-13 0 -8 14l188 504q4 16 12 18q8 -2 10 -18l185 -506q4 -12 -10 -12h-377z M949 1700q47 0 74 30q24 29 24 72q-4 88 -96 90q-49 -2 -69 -31q-25 -32 -25 -65t23 -64q20 -32 69 -32zM517 1700q47 0 74 30q24 29 24 72q-4 86 -96 88q-49 -2 -69 -31q-25 -30 -25 -63t22 -64q21 -32 70 -32z" />
<glyph unicode="&#xc5;" horiz-adv-x="1433" d="M874 528q15 0 21 -14l164 -434q10 -39 -19 -47q-28 -2 -28 -19q2 -16 61 -16q262 -4 387 -4q57 0 78 6q16 2 16 14q0 17 -26 17q-39 0 -86 8q-31 6 -76 47q-45 43 -105 176l-507 1260q-27 65 -52 65q-24 2 -57 -82l-514 -1286q-14 -37 -29 -67q-14 -33 -36 -58 q-39 -49 -109 -59q-31 -4 -63 -4q-25 0 -25 -17q0 -20 39 -20q184 4 241 6q107 -2 218 -6q34 0 34 20q2 17 -30 17h-31q-45 0 -64 20q-18 17 -18 43q0 43 31 125l110 293q4 16 19 16h456zM459 631q-13 0 -8 14l188 504q4 16 12 18q8 -2 10 -18l185 -506q4 -12 -10 -12h-377z M682 1679q106 0 199 51q45 25 69 58q25 33 25 76q0 53 -51 86q-54 32 -144 32q-123 -2 -198 -53q-82 -53 -82 -127q0 -53 51 -86q47 -37 131 -37zM625 1831q2 53 43 78q36 22 73 22q56 0 84 -26q25 -29 25 -68q0 -45 -35 -74q-35 -33 -88 -33q-39 0 -68 29q-34 25 -34 72z " />
<glyph unicode="&#xc6;" d="M954 588q0 -295 -10 -436q-4 -46 -16 -74q-13 -31 -43 -39q-29 -8 -72 -8q-14 0 -20 -2q-7 -6 -7 -17q-2 -18 39 -18q137 4 238 6q143 -6 567 -12q57 0 80 8q22 8 31 45q10 37 18 113q8 73 8 114q2 35 -16 37q-8 0 -14 -6q-7 -6 -9 -25q-16 -120 -92 -151 q-41 -19 -96 -21q-53 -4 -96 -4q-152 -2 -199 35q-47 35 -47 137q0 115 2 318v96q-2 20 12 20q154 0 291 -8q57 -6 84 -26q25 -23 31 -54q8 -41 8 -73q-2 -19 18 -19q15 0 17 15q2 12 2 24q0 49 8 137q14 144 16 150q0 18 -14 18q-12 0 -33 -26q-26 -27 -98 -31 q-45 -2 -162 -2q-119 -2 -166 -2q-16 0 -14 22v584q0 20 14 20q43 0 150 -2q106 -2 141 -6q74 -8 103 -26q28 -19 34 -47q13 -45 13 -74q-2 -29 18 -29q21 2 21 23q6 71 10 135q14 127 16 133q0 16 -12 18q-16 -2 -33 -8q-26 -6 -88 -12q-235 -2 -512 -2q-92 4 -108 6 q-21 -2 -27 -29q-2 -18 -45 -90l-361 -565q-303 -471 -391 -596q-28 -43 -77 -104q-52 -66 -140 -109q-53 -20 -88 -18q-28 0 -28 -17q0 -20 28 -20q182 4 260 6q80 -2 293 -6q37 0 39 20q0 17 -31 17q-59 0 -104 18q-33 14 -35 57q0 21 21 70q18 45 69 131l117 201 q80 141 104 180q13 14 35 14h330q18 0 18 -16v-98zM954 815q0 -16 -18 -16h-275q-22 -2 -10 20q27 51 137 234l156 258h10v-496z" />
<glyph unicode="&#xc7;" horiz-adv-x="1638" d="M1069 -35q102 0 203 12q102 13 166 35q26 11 36 25q13 12 17 35q16 61 31 155q14 90 14 117q0 29 -19 31q-20 2 -26 -41q-14 -66 -70 -135q-112 -121 -375 -115q-219 0 -423 182q-213 182 -222 547q-2 152 39 291q41 137 150 239q127 125 385 127q299 -6 415 -127 q78 -86 80 -188q-2 -45 21 -45q24 0 24 47q5 90 7 221q8 99 10 113q0 20 -31 24q-45 7 -94 19q-51 10 -111 16q-123 21 -297 21q-225 0 -381 -58q-157 -57 -266 -159q-143 -140 -192 -295q-49 -156 -47 -266q-2 -150 53 -310q53 -159 201 -295q280 -227 702 -223zM877 0 l-205 -137q-41 -25 -41 -33q0 -10 41 -18q62 -13 101 -29q39 -18 59 -39q39 -41 37 -84q-2 -61 -61 -94q-58 -33 -142 -43q-20 0 -37 -6q-16 -6 -16 -21q2 -20 35 -20q88 0 215 28q65 19 129 68q29 25 47 55q16 31 16 68q0 70 -69 113q-72 40 -195 51v4l207 137h-121z" />
<glyph unicode="&#xc8;" horiz-adv-x="1294" d="M336 588q0 -295 -10 -436q-4 -46 -17 -74q-12 -31 -43 -39q-26 -8 -74 -8q-34 0 -32 -17q0 -20 41 -20q155 4 258 6q143 -6 567 -12q57 0 80 8q22 8 31 45q10 37 18 113q8 73 8 114q2 35 -16 37q-8 0 -15 -6q-6 -6 -8 -25q-16 -120 -92 -151q-41 -19 -96 -21 q-53 -4 -96 -4q-152 -2 -199 35q-47 35 -47 137q-2 152 0 318v162q-2 20 12 20h152q102 -2 139 -6q57 -6 84 -27q24 -22 31 -53q8 -41 8 -74q-2 -18 18 -18q15 0 17 14q2 12 2 25q0 49 8 137q14 143 16 149q0 17 -14 17q-12 0 -33 -27q-26 -26 -98 -31q-45 -2 -162 -2 q-119 -2 -166 -2q-16 0 -14 23v518q0 20 14 20q43 0 150 -2q106 -2 141 -6q74 -8 102 -26q29 -19 35 -47q13 -45 13 -74q-3 -29 18 -29q20 2 20 23q7 71 11 135q14 127 16 133q0 16 -12 18q-17 -2 -33 -8q-27 -6 -88 -12q-236 -2 -512 -2q-109 4 -295 6q-45 0 -45 -18 q0 -21 35 -19q49 0 80 -6q51 -8 69 -37q17 -26 19 -80q4 -32 4 -434v-360zM837 1714q-4 16 -43 37q-74 57 -142 123q-67 63 -86 86q-24 45 -32 45q-11 0 -39 -14q-60 -25 -138 -52q-26 -4 -26 -18q2 -23 67 -51l211 -90l136 -54q57 -26 69 -26q21 0 23 14z" />
<glyph unicode="&#xc9;" horiz-adv-x="1294" d="M336 588q0 -295 -10 -436q-4 -46 -17 -74q-12 -31 -43 -39q-26 -8 -74 -8q-34 0 -32 -17q0 -20 41 -20q155 4 258 6q143 -6 567 -12q57 0 80 8q22 8 31 45q10 37 18 113q8 73 8 114q2 35 -16 37q-8 0 -15 -6q-6 -6 -8 -25q-16 -120 -92 -151q-41 -19 -96 -21 q-53 -4 -96 -4q-152 -2 -199 35q-47 35 -47 137q-2 152 0 318v162q-2 20 12 20h152q102 -2 139 -6q57 -6 84 -27q24 -22 31 -53q8 -41 8 -74q-2 -18 18 -18q15 0 17 14q2 12 2 25q0 49 8 137q14 143 16 149q0 17 -14 17q-12 0 -33 -27q-26 -26 -98 -31q-45 -2 -162 -2 q-119 -2 -166 -2q-16 0 -14 23v518q0 20 14 20q43 0 150 -2q106 -2 141 -6q74 -8 102 -26q29 -19 35 -47q13 -45 13 -74q-3 -29 18 -29q20 2 20 23q7 71 11 135q14 127 16 133q0 16 -12 18q-17 -2 -33 -8q-27 -6 -88 -12q-236 -2 -512 -2q-109 4 -295 6q-45 0 -45 -18 q0 -21 35 -19q49 0 80 -6q51 -8 69 -37q17 -26 19 -80q4 -32 4 -434v-360zM960 1991q-11 24 -29 24q-10 0 -41 -18q-35 -23 -145 -107q-113 -86 -185 -151q-18 -15 -18 -27q2 -12 12 -12q8 0 35 16q61 33 164 72q100 37 186 49q58 2 70 0q22 -2 10 31q-35 82 -59 123z" />
<glyph unicode="&#xca;" horiz-adv-x="1294" d="M336 588q0 -295 -10 -436q-4 -46 -17 -74q-12 -31 -43 -39q-26 -8 -74 -8q-34 0 -32 -17q0 -20 41 -20q155 4 258 6q143 -6 567 -12q57 0 80 8q22 8 31 45q10 37 18 113q8 73 8 114q2 35 -16 37q-8 0 -15 -6q-6 -6 -8 -25q-16 -120 -92 -151q-41 -19 -96 -21 q-53 -4 -96 -4q-152 -2 -199 35q-47 35 -47 137q-2 152 0 318v162q-2 20 12 20h152q102 -2 139 -6q57 -6 84 -27q24 -22 31 -53q8 -41 8 -74q-2 -18 18 -18q15 0 17 14q2 12 2 25q0 49 8 137q14 143 16 149q0 17 -14 17q-12 0 -33 -27q-26 -26 -98 -31q-45 -2 -162 -2 q-119 -2 -166 -2q-16 0 -14 23v518q0 20 14 20q43 0 150 -2q106 -2 141 -6q74 -8 102 -26q29 -19 35 -47q13 -45 13 -74q-3 -29 18 -29q20 2 20 23q7 71 11 135q14 127 16 133q0 16 -12 18q-17 -2 -33 -8q-27 -6 -88 -12q-236 -2 -512 -2q-109 4 -295 6q-45 0 -45 -18 q0 -21 35 -19q49 0 80 -6q51 -8 69 -37q17 -26 19 -80q4 -32 4 -434v-360zM666 2009q-14 0 -43 -25q-32 -28 -135 -127q-104 -96 -135 -127q-18 -18 -18 -30q0 -21 18 -21q12 -2 41 25q113 92 217 151q19 11 31 11t26 -13q23 -14 87 -65q61 -51 94 -86q22 -23 30 -23 q15 0 27 15l59 59q11 10 11 20q0 7 -29 29q-33 27 -127 96l-117 88q-30 23 -37 23z" />
<glyph unicode="&#xcb;" horiz-adv-x="1294" d="M336 588q0 -295 -10 -436q-4 -46 -17 -74q-12 -31 -43 -39q-26 -8 -74 -8q-34 0 -32 -17q0 -20 41 -20q155 4 258 6q143 -6 567 -12q57 0 80 8q22 8 31 45q10 37 18 113q8 73 8 114q2 35 -16 37q-8 0 -15 -6q-6 -6 -8 -25q-16 -120 -92 -151q-41 -19 -96 -21 q-53 -4 -96 -4q-152 -2 -199 35q-47 35 -47 137q-2 152 0 318v162q-2 20 12 20h152q102 -2 139 -6q57 -6 84 -27q24 -22 31 -53q8 -41 8 -74q-2 -18 18 -18q15 0 17 14q2 12 2 25q0 49 8 137q14 143 16 149q0 17 -14 17q-12 0 -33 -27q-26 -26 -98 -31q-45 -2 -162 -2 q-119 -2 -166 -2q-16 0 -14 23v518q0 20 14 20q43 0 150 -2q106 -2 141 -6q74 -8 102 -26q29 -19 35 -47q13 -45 13 -74q-3 -29 18 -29q20 2 20 23q7 71 11 135q14 127 16 133q0 16 -12 18q-17 -2 -33 -8q-27 -6 -88 -12q-236 -2 -512 -2q-109 4 -295 6q-45 0 -45 -18 q0 -21 35 -19q49 0 80 -6q51 -8 69 -37q17 -26 19 -80q4 -32 4 -434v-360zM911 1700q47 0 74 30q24 29 24 72q-4 88 -96 90q-49 -2 -69 -31q-25 -32 -25 -65t23 -64q20 -32 69 -32zM479 1700q47 0 74 30q24 29 24 72q-4 86 -96 88q-49 -2 -69 -31q-25 -30 -25 -63t22 -64 q21 -32 70 -32z" />
<glyph unicode="&#xcc;" horiz-adv-x="926" d="M336 588q0 -307 -10 -447q-4 -90 -60 -102q-26 -8 -74 -8q-34 0 -32 -17q0 -20 41 -20q155 4 258 6q100 -2 319 -6q37 0 39 20q0 17 -33 17q-53 0 -104 8q-45 6 -60 35q-16 24 -22 65q-10 142 -8 449v360q0 225 2 309q0 84 2 125q2 56 20 84q17 27 56 33q34 6 61 6 q33 -2 33 21q-2 16 -43 16q-146 -4 -250 -6q-119 4 -266 6q-49 0 -49 -16q0 -23 32 -21q39 0 74 -8q66 -12 70 -115q4 -32 4 -434v-360zM614 1714q-4 16 -43 37q-74 57 -142 123q-67 63 -86 86q-24 45 -32 45q-11 0 -39 -14q-60 -25 -138 -52q-26 -4 -26 -18q2 -23 67 -51 l211 -90l136 -54q57 -26 69 -26q21 0 23 14z" />
<glyph unicode="&#xcd;" horiz-adv-x="926" d="M336 588q0 -307 -10 -447q-4 -90 -60 -102q-26 -8 -74 -8q-34 0 -32 -17q0 -20 41 -20q155 4 258 6q100 -2 319 -6q37 0 39 20q0 17 -33 17q-53 0 -104 8q-45 6 -60 35q-16 24 -22 65q-10 142 -8 449v360q0 225 2 309q0 84 2 125q2 56 20 84q17 27 56 33q34 6 61 6 q33 -2 33 21q-2 16 -43 16q-146 -4 -250 -6q-119 4 -266 6q-49 0 -49 -16q0 -23 32 -21q39 0 74 -8q66 -12 70 -115q4 -32 4 -434v-360zM769 1991q-11 24 -29 24q-10 0 -41 -18q-35 -23 -145 -107q-113 -86 -185 -151q-18 -15 -18 -27q2 -12 12 -12q8 0 35 16q61 33 164 72 q100 37 186 49q58 2 70 0q22 -2 10 31q-35 82 -59 123z" />
<glyph unicode="&#xce;" horiz-adv-x="926" d="M336 588q0 -307 -10 -447q-4 -90 -60 -102q-26 -8 -74 -8q-34 0 -32 -17q0 -20 41 -20q155 4 258 6q100 -2 319 -6q37 0 39 20q0 17 -33 17q-53 0 -104 8q-45 6 -60 35q-16 24 -22 65q-10 142 -8 449v360q0 225 2 309q0 84 2 125q2 56 20 84q17 27 56 33q34 6 61 6 q33 -2 33 21q-2 16 -43 16q-146 -4 -250 -6q-119 4 -266 6q-49 0 -49 -16q0 -23 32 -21q39 0 74 -8q66 -12 70 -115q4 -32 4 -434v-360zM475 2009q-14 0 -43 -25q-32 -28 -135 -127q-104 -96 -135 -127q-18 -18 -18 -30q0 -21 18 -21q12 -2 41 25q113 92 217 151 q19 11 31 11t26 -13q23 -14 87 -65q61 -51 94 -86q22 -23 30 -23q15 0 27 15l59 59q11 10 11 20q0 7 -29 29q-33 27 -127 96l-117 88q-30 23 -37 23z" />
<glyph unicode="&#xcf;" horiz-adv-x="926" d="M336 588q0 -307 -10 -447q-4 -90 -60 -102q-26 -8 -74 -8q-34 0 -32 -17q0 -20 41 -20q155 4 258 6q100 -2 319 -6q37 0 39 20q0 17 -33 17q-53 0 -104 8q-45 6 -60 35q-16 24 -22 65q-10 142 -8 449v360q0 225 2 309q0 84 2 125q2 56 20 84q17 27 56 33q34 6 61 6 q33 -2 33 21q-2 16 -43 16q-146 -4 -250 -6q-119 4 -266 6q-49 0 -49 -16q0 -23 32 -21q39 0 74 -8q66 -12 70 -115q4 -32 4 -434v-360zM678 1700q47 0 74 30q24 29 24 72q-4 88 -96 90q-49 -2 -69 -31q-25 -32 -25 -65t23 -64q20 -32 69 -32zM246 1700q47 0 74 30 q24 29 24 72q-4 86 -96 88q-49 -2 -69 -31q-25 -30 -25 -63t22 -64q21 -32 70 -32z" />
<glyph unicode="&#xd0;" horiz-adv-x="1917" d="M336 723v-135q0 -295 -10 -436q-4 -46 -17 -74q-12 -31 -43 -39q-26 -8 -74 -8q-34 0 -32 -17q0 -20 41 -20q155 4 258 6q61 0 209 -12q145 -11 260 -13q239 5 411 84q172 78 244 154q90 90 154 238q65 145 67 337q-2 185 -59 314q-60 129 -139 207q-173 168 -398 204 q-223 33 -424 29q-202 -4 -315 -6q-109 4 -295 6q-45 0 -45 -18q0 -21 35 -19q49 0 80 -6q51 -8 69 -37q17 -26 19 -80q4 -32 4 -434v-119h-180q-25 0 -27 -20l-10 -62q-6 -24 10 -24h207zM592 831v150q0 274 2 409q-2 31 24 41q17 7 60 13q41 2 74 2q122 2 280 -35 q158 -39 301 -170q35 -31 70 -76q35 -49 63 -112q62 -127 64 -324q0 -160 -37 -291q-39 -131 -127 -213q-174 -155 -479 -153q-119 0 -183 28q-65 27 -86 56q-12 20 -14 69q-6 47 -8 86q-4 99 -4 316v94h387q22 0 24 18l13 68q6 24 -15 24h-409z" />
<glyph unicode="&#xd1;" horiz-adv-x="1939" d="M428 1132h6q105 -120 488 -516l604 -602q18 -16 37 -28q16 -17 32 -17q27 0 27 64l22 1292q2 86 19 125q14 39 57 49q35 6 62 6q36 0 36 19q-2 20 -47 18q-75 0 -129 -2q-53 -4 -71 -4q-76 4 -248 6q-21 0 -37 -2q-16 -4 -16 -16q-2 -19 32 -19q54 2 109 -12 q37 -12 55 -51q15 -41 15 -133l20 -920h-10q-37 37 -184 195l-267 272q-522 532 -635 657q-22 29 -40 47q-17 17 -35 17q-29 -2 -27 -70l-18 -1212q2 -129 -11 -186q-14 -58 -53 -68q-47 -10 -92 -10q-33 0 -33 -17q0 -22 45 -20q176 4 221 6q58 -2 254 -6q45 0 48 20 q0 17 -35 17q-52 -2 -107 14q-31 10 -49 59q-18 52 -22 168zM1172 1700q75 2 131 65q28 27 47 51q16 25 22 37q10 19 13 35q-3 17 -17 17t-33 -27q-6 -8 -36 -33q-31 -27 -89 -29q-71 0 -147 45q-33 23 -72 41q-39 17 -92 17q-74 -2 -131 -60q-29 -24 -47 -51 q-23 -28 -35 -47q-4 -6 -8 -16q-8 -13 -8 -23q0 -14 14 -14q8 -2 33 20q12 19 47 45q35 27 92 29q43 0 74 -14q31 -15 57 -31q33 -16 78 -35q43 -22 107 -22z" />
<glyph unicode="&#xd2;" d="M938 -35q395 6 620 246q226 235 228 594q-17 749 -828 766q-456 -8 -651 -269q-196 -253 -194 -534q-2 -287 192 -537q197 -258 633 -266zM1024 68q-297 4 -461 223q-168 213 -168 540q0 193 47 318q45 125 119 194q74 74 164 103q88 26 174 26q258 -2 428 -198 q168 -197 172 -545q-2 -219 -53 -350q-51 -133 -129 -201q-78 -65 -158 -88q-78 -22 -135 -22zM1113 1714q-4 16 -43 37q-74 57 -142 123q-67 63 -86 86q-24 45 -32 45q-11 0 -39 -14q-60 -25 -138 -52q-26 -4 -26 -18q2 -23 67 -51l211 -90l136 -54q57 -26 69 -26 q21 0 23 14z" />
<glyph unicode="&#xd3;" d="M938 -35q395 6 620 246q226 235 228 594q-17 749 -828 766q-456 -8 -651 -269q-196 -253 -194 -534q-2 -287 192 -537q197 -258 633 -266zM1024 68q-297 4 -461 223q-168 213 -168 540q0 193 47 318q45 125 119 194q74 74 164 103q88 26 174 26q258 -2 428 -198 q168 -197 172 -545q-2 -219 -53 -350q-51 -133 -129 -201q-78 -65 -158 -88q-78 -22 -135 -22zM1248 1991q-11 24 -29 24q-10 0 -41 -18q-35 -23 -145 -107q-113 -86 -185 -151q-18 -15 -18 -27q2 -12 12 -12q8 0 35 16q61 33 164 72q100 37 186 49q58 2 70 0q22 -2 10 31 q-35 82 -59 123z" />
<glyph unicode="&#xd4;" d="M938 -35q395 6 620 246q226 235 228 594q-17 749 -828 766q-456 -8 -651 -269q-196 -253 -194 -534q-2 -287 192 -537q197 -258 633 -266zM1024 68q-297 4 -461 223q-168 213 -168 540q0 193 47 318q45 125 119 194q74 74 164 103q88 26 174 26q258 -2 428 -198 q168 -197 172 -545q-2 -219 -53 -350q-51 -133 -129 -201q-78 -65 -158 -88q-78 -22 -135 -22zM974 2009q-14 0 -43 -25q-32 -28 -135 -127q-104 -96 -135 -127q-18 -18 -18 -30q0 -21 18 -21q12 -2 41 25q113 92 217 151q19 11 31 11t26 -13q23 -14 87 -65q61 -51 94 -86 q22 -23 30 -23q15 0 27 15l59 59q11 10 11 20q0 7 -29 29q-33 27 -127 96l-117 88q-30 23 -37 23z" />
<glyph unicode="&#xd5;" d="M938 -35q395 6 620 246q226 235 228 594q-17 749 -828 766q-456 -8 -651 -269q-196 -253 -194 -534q-2 -287 192 -537q197 -258 633 -266zM1024 68q-297 4 -461 223q-168 213 -168 540q0 193 47 318q45 125 119 194q74 74 164 103q88 26 174 26q258 -2 428 -198 q168 -197 172 -545q-2 -219 -53 -350q-51 -133 -129 -201q-78 -65 -158 -88q-78 -22 -135 -22zM1107 1700q75 2 131 65q28 27 47 51q16 25 22 37q10 19 13 35q-3 17 -17 17t-33 -27q-6 -8 -36 -33q-31 -27 -89 -29q-71 0 -147 45q-33 23 -72 41q-39 17 -92 17 q-74 -2 -131 -60q-29 -24 -47 -51q-23 -28 -35 -47q-4 -6 -8 -16q-8 -13 -8 -23q0 -14 14 -14q8 -2 33 20q12 19 47 45q35 27 92 29q43 0 74 -14q31 -15 57 -31q33 -16 78 -35q43 -22 107 -22z" />
<glyph unicode="&#xd6;" d="M938 -35q395 6 620 246q226 235 228 594q-17 749 -828 766q-456 -8 -651 -269q-196 -253 -194 -534q-2 -287 192 -537q197 -258 633 -266zM1024 68q-297 4 -461 223q-168 213 -168 540q0 193 47 318q45 125 119 194q74 74 164 103q88 26 174 26q258 -2 428 -198 q168 -197 172 -545q-2 -219 -53 -350q-51 -133 -129 -201q-78 -65 -158 -88q-78 -22 -135 -22zM1177 1700q47 0 74 30q24 29 24 72q-4 88 -96 90q-49 -2 -69 -31q-25 -32 -25 -65t23 -64q20 -32 69 -32zM745 1700q47 0 74 30q24 29 24 72q-4 86 -96 88q-49 -2 -69 -31 q-25 -30 -25 -63t22 -64q21 -32 70 -32z" />
<glyph unicode="&#xd8;" d="M418 125q190 -156 520 -160q395 6 620 246q226 235 228 594q-2 342 -207 542l151 160q11 10 0 23l-57 49q-16 16 -29 4l-153 -162q-195 148 -533 150q-456 -8 -651 -269q-196 -253 -194 -534q0 -72 16 -145q12 -78 39 -152q51 -149 168 -272l-172 -183q-8 -8 4 -20 l57 -51q13 -11 21 0zM1401 1159q98 -176 100 -432q-2 -219 -53 -350q-51 -133 -129 -201q-78 -65 -158 -88q-78 -22 -135 -22q-145 0 -260 61q-117 57 -199 156zM504 377q-107 192 -107 452q0 193 47 318q45 125 119 194q74 74 164 103q88 26 174 26q266 -2 436 -213z" />
<glyph unicode="&#xd9;" horiz-adv-x="1745" d="M248 649q0 -219 53 -346q51 -129 129 -197q117 -96 244 -120q127 -23 211 -21q102 0 209 29q108 29 217 119q125 114 163 280q33 164 31 336v219q0 225 2 309q0 84 2 125q2 56 21 84q16 27 55 33q31 6 59 6q37 -2 37 19q0 18 -43 18q-63 0 -135 -2q-76 -4 -98 -4 q-41 4 -236 6q-43 0 -43 -18q0 -21 35 -19q41 0 74 -6q51 -8 69 -37q17 -26 19 -80q4 -32 4 -434v-256q2 -158 -14 -289q-21 -133 -105 -219q-61 -59 -137 -84q-76 -26 -145 -26q-25 0 -56 4q-30 2 -63 10q-31 8 -66 27q-34 16 -71 43q-74 57 -115 174q-45 112 -45 329v287 q0 225 2 309q0 84 2 125q2 56 20 84q17 27 56 33q30 6 59 6q33 -2 33 19q0 18 -45 18q-143 -4 -252 -6q-115 4 -299 6q-45 0 -45 -18q0 -21 35 -19q49 0 80 -6q51 -8 69 -37q17 -26 19 -80q4 -32 4 -434v-299zM1039 1714q-4 16 -43 37q-74 57 -142 123q-67 63 -86 86 q-24 45 -32 45q-11 0 -39 -14q-60 -25 -138 -52q-26 -4 -26 -18q2 -23 67 -51l211 -90l136 -54q57 -26 69 -26q21 0 23 14z" />
<glyph unicode="&#xda;" horiz-adv-x="1745" d="M248 649q0 -219 53 -346q51 -129 129 -197q117 -96 244 -120q127 -23 211 -21q102 0 209 29q108 29 217 119q125 114 163 280q33 164 31 336v219q0 225 2 309q0 84 2 125q2 56 21 84q16 27 55 33q31 6 59 6q37 -2 37 19q0 18 -43 18q-63 0 -135 -2q-76 -4 -98 -4 q-41 4 -236 6q-43 0 -43 -18q0 -21 35 -19q41 0 74 -6q51 -8 69 -37q17 -26 19 -80q4 -32 4 -434v-256q2 -158 -14 -289q-21 -133 -105 -219q-61 -59 -137 -84q-76 -26 -145 -26q-25 0 -56 4q-30 2 -63 10q-31 8 -66 27q-34 16 -71 43q-74 57 -115 174q-45 112 -45 329v287 q0 225 2 309q0 84 2 125q2 56 20 84q17 27 56 33q30 6 59 6q33 -2 33 19q0 18 -45 18q-143 -4 -252 -6q-115 4 -299 6q-45 0 -45 -18q0 -21 35 -19q49 0 80 -6q51 -8 69 -37q17 -26 19 -80q4 -32 4 -434v-299zM1249 1991q-11 24 -29 24q-10 0 -41 -18q-35 -23 -145 -107 q-113 -86 -185 -151q-18 -15 -18 -27q2 -12 12 -12q8 0 35 16q61 33 164 72q100 37 186 49q58 2 70 0q22 -2 10 31q-35 82 -59 123z" />
<glyph unicode="&#xdb;" horiz-adv-x="1745" d="M248 649q0 -219 53 -346q51 -129 129 -197q117 -96 244 -120q127 -23 211 -21q102 0 209 29q108 29 217 119q125 114 163 280q33 164 31 336v219q0 225 2 309q0 84 2 125q2 56 21 84q16 27 55 33q31 6 59 6q37 -2 37 19q0 18 -43 18q-63 0 -135 -2q-76 -4 -98 -4 q-41 4 -236 6q-43 0 -43 -18q0 -21 35 -19q41 0 74 -6q51 -8 69 -37q17 -26 19 -80q4 -32 4 -434v-256q2 -158 -14 -289q-21 -133 -105 -219q-61 -59 -137 -84q-76 -26 -145 -26q-25 0 -56 4q-30 2 -63 10q-31 8 -66 27q-34 16 -71 43q-74 57 -115 174q-45 112 -45 329v287 q0 225 2 309q0 84 2 125q2 56 20 84q17 27 56 33q30 6 59 6q33 -2 33 19q0 18 -45 18q-143 -4 -252 -6q-115 4 -299 6q-45 0 -45 -18q0 -21 35 -19q49 0 80 -6q51 -8 69 -37q17 -26 19 -80q4 -32 4 -434v-299zM932 2009q-14 0 -43 -25q-32 -28 -135 -127q-104 -96 -135 -127 q-18 -18 -18 -30q0 -21 18 -21q12 -2 41 25q113 92 217 151q19 11 31 11t26 -13q23 -14 87 -65q61 -51 94 -86q22 -23 30 -23q15 0 27 15l59 59q11 10 11 20q0 7 -29 29q-33 27 -127 96l-117 88q-30 23 -37 23z" />
<glyph unicode="&#xdc;" horiz-adv-x="1745" d="M248 649q0 -219 53 -346q51 -129 129 -197q117 -96 244 -120q127 -23 211 -21q102 0 209 29q108 29 217 119q125 114 163 280q33 164 31 336v219q0 225 2 309q0 84 2 125q2 56 21 84q16 27 55 33q31 6 59 6q37 -2 37 19q0 18 -43 18q-63 0 -135 -2q-76 -4 -98 -4 q-41 4 -236 6q-43 0 -43 -18q0 -21 35 -19q41 0 74 -6q51 -8 69 -37q17 -26 19 -80q4 -32 4 -434v-256q2 -158 -14 -289q-21 -133 -105 -219q-61 -59 -137 -84q-76 -26 -145 -26q-25 0 -56 4q-30 2 -63 10q-31 8 -66 27q-34 16 -71 43q-74 57 -115 174q-45 112 -45 329v287 q0 225 2 309q0 84 2 125q2 56 20 84q17 27 56 33q30 6 59 6q33 -2 33 19q0 18 -45 18q-143 -4 -252 -6q-115 4 -299 6q-45 0 -45 -18q0 -21 35 -19q49 0 80 -6q51 -8 69 -37q17 -26 19 -80q4 -32 4 -434v-299zM1155 1700q47 0 74 30q24 29 24 72q-4 88 -96 90 q-49 -2 -69 -31q-25 -32 -25 -65t23 -64q20 -32 69 -32zM723 1700q47 0 74 30q24 29 24 72q-4 86 -96 88q-49 -2 -69 -31q-25 -30 -25 -63t22 -64q21 -32 70 -32z" />
<glyph unicode="&#xdd;" horiz-adv-x="1372" d="M565 356q0 -61 -6 -204q-2 -46 -16 -74q-17 -31 -47 -39q-29 -8 -72 -8q-33 0 -33 -17q0 -20 45 -20q148 4 256 6l313 -6q41 0 44 20q0 17 -33 17q-51 0 -103 8q-45 8 -61 39q-21 28 -23 74q-8 143 -6 204v168q0 51 4 103q4 24 11 51q6 24 16 51q16 37 70 129l116 201 q142 235 205 321q57 76 111 101q53 24 90 24t39 21q-2 16 -37 16q-105 -4 -219 -6q-90 4 -193 6q-35 0 -35 -18q2 -17 37 -21q27 -6 35 -18q8 -17 8 -33q0 -39 -28 -107l-156 -286l-96 -174q-45 -80 -56 -103l-174 307l-108 195l-66 111q-24 45 -24 69q0 29 28 37 q45 8 45 23q0 18 -30 18q-68 0 -125 -2q-60 -4 -94 -4q-152 4 -258 6q-37 0 -39 -18q2 -21 30 -19q41 -2 86 -26q62 -35 142 -150q69 -104 202 -321l109 -177q45 -75 49 -92q23 -41 35 -88t12 -127v-168zM1094 1991q-11 24 -29 24q-10 0 -41 -18q-35 -23 -145 -107 q-113 -86 -185 -151q-18 -15 -18 -27q2 -12 12 -12q8 0 35 16q61 33 164 72q100 37 186 49q58 2 70 0q22 -2 10 31q-35 82 -59 123z" />
<glyph unicode="&#xde;" horiz-adv-x="1341" d="M336 588q0 -295 -10 -436q-4 -46 -17 -74q-12 -31 -43 -39q-26 -8 -74 -8q-34 0 -32 -17q0 -20 41 -20q155 4 258 6l305 -6q39 0 41 20q0 17 -27 17q-49 0 -100 8q-45 8 -60 39q-16 28 -20 71q-12 144 -10 439v487q0 33 16 39q33 12 88 12q39 0 92 -8q52 -12 105 -63 q43 -41 65 -84q25 -45 35 -88q12 -43 14 -78v-66q-4 -147 -88 -235q-86 -94 -180 -94q-57 0 -57 -23q2 -20 24 -18q23 -2 43 -2q224 2 363 135q139 131 141 352q-2 82 -31 147q-30 64 -69 95q-10 14 -35 32q-27 21 -72 39q-43 21 -110 33q-66 12 -164 12q-104 0 -180 -8 q0 60 4 184q-2 93 92 109q49 8 78 8q28 0 31 19q-3 18 -39 18q-185 -4 -287 -6q-107 4 -293 6q-45 0 -45 -18q0 -21 35 -19q49 0 80 -6q51 -8 69 -37q17 -26 19 -80q4 -32 4 -434v-360z" />
<glyph unicode="&#xdf;" horiz-adv-x="2384" d="M522 -35q84 0 166 19q84 18 160 65q108 76 153 172q39 94 39 184q0 146 -75 265q-78 120 -261 258l-57 43q-123 96 -170 161q-49 66 -47 134q0 94 68 153q61 58 176 58q100 -3 151 -35q51 -33 72 -66q33 -41 45 -80q8 -39 8 -55q0 -37 21 -37q22 -2 22 62q0 118 4 174 q4 55 4 71q0 21 -28 25q-39 12 -105 24q-67 11 -168 11q-215 -2 -342 -107q-131 -108 -131 -280q-2 -121 68 -238t235 -248l95 -73q127 -97 165 -174q23 -39 31 -76q4 -39 4 -78q0 -84 -67 -156q-68 -75 -207 -78q-96 0 -176 48q-80 47 -117 159q-18 60 -18 105q0 14 -2 24 q-2 11 -19 11q-22 -2 -24 -54q-9 -73 -11 -268q0 -31 8 -45q9 -14 31 -25q127 -53 299 -53zM1714 -35q84 0 166 19q84 18 160 65q108 76 153 172q39 94 39 184q0 146 -76 265q-77 120 -260 258l-57 43q-123 96 -170 161q-49 66 -47 134q0 94 67 153q62 58 177 58 q100 -3 151 -35q51 -33 72 -66q33 -41 45 -80q8 -39 8 -55q0 -37 21 -37q22 -2 22 62q0 118 4 174q4 55 4 71q0 21 -28 25q-39 12 -105 24q-67 11 -168 11q-215 -2 -342 -107q-131 -108 -131 -280q-2 -121 68 -238q69 -117 235 -248l94 -73q127 -97 166 -174q23 -39 31 -76 q4 -39 4 -78q0 -84 -67 -156q-68 -75 -207 -78q-97 0 -176 48q-80 47 -117 159q-19 60 -19 105q0 14 -2 24q-2 11 -18 11q-23 -2 -25 -54q-8 -73 -10 -268q0 -31 8 -45q9 -14 31 -25q127 -53 299 -53z" />
<glyph unicode="&#xe0;" horiz-adv-x="1433" d="M874 528q15 0 21 -14l164 -434q10 -39 -19 -47q-28 -2 -28 -19q2 -16 61 -16q262 -4 387 -4q57 0 78 6q16 2 16 14q0 17 -26 17q-39 0 -86 8q-31 6 -76 47q-45 43 -105 176l-507 1260q-27 65 -52 65q-24 2 -57 -82l-514 -1286q-14 -37 -29 -67q-14 -33 -36 -58 q-39 -49 -109 -59q-31 -4 -63 -4q-25 0 -25 -17q0 -20 39 -20q184 4 241 6q107 -2 218 -6q34 0 34 20q2 17 -30 17h-31q-45 0 -64 20q-18 17 -18 43q0 43 31 125l110 293q4 16 19 16h456zM459 631q-13 0 -8 14l188 504q4 16 12 18q8 -2 10 -18l185 -506q4 -12 -10 -12h-377z M885 1714q-4 16 -43 37q-74 57 -142 123q-67 63 -86 86q-24 45 -32 45q-11 0 -39 -14q-60 -25 -138 -52q-26 -4 -26 -18q2 -23 67 -51l211 -90l136 -54q57 -26 69 -26q21 0 23 14z" />
<glyph unicode="&#xe1;" horiz-adv-x="1433" d="M874 528q15 0 21 -14l164 -434q10 -39 -19 -47q-28 -2 -28 -19q2 -16 61 -16q262 -4 387 -4q57 0 78 6q16 2 16 14q0 17 -26 17q-39 0 -86 8q-31 6 -76 47q-45 43 -105 176l-507 1260q-27 65 -52 65q-24 2 -57 -82l-514 -1286q-14 -37 -29 -67q-14 -33 -36 -58 q-39 -49 -109 -59q-31 -4 -63 -4q-25 0 -25 -17q0 -20 39 -20q184 4 241 6q107 -2 218 -6q34 0 34 20q2 17 -30 17h-31q-45 0 -64 20q-18 17 -18 43q0 43 31 125l110 293q4 16 19 16h456zM459 631q-13 0 -8 14l188 504q4 16 12 18q8 -2 10 -18l185 -506q4 -12 -10 -12h-377z M1021 1991q-11 24 -29 24q-10 0 -41 -18q-35 -23 -145 -107q-113 -86 -185 -151q-18 -15 -18 -27q2 -12 12 -12q8 0 35 16q61 33 164 72q100 37 186 49q58 2 70 0q22 -2 10 31q-35 82 -59 123z" />
<glyph unicode="&#xe2;" horiz-adv-x="1433" d="M874 528q15 0 21 -14l164 -434q10 -39 -19 -47q-28 -2 -28 -19q2 -16 61 -16q262 -4 387 -4q57 0 78 6q16 2 16 14q0 17 -26 17q-39 0 -86 8q-31 6 -76 47q-45 43 -105 176l-507 1260q-27 65 -52 65q-24 2 -57 -82l-514 -1286q-14 -37 -29 -67q-14 -33 -36 -58 q-39 -49 -109 -59q-31 -4 -63 -4q-25 0 -25 -17q0 -20 39 -20q184 4 241 6q107 -2 218 -6q34 0 34 20q2 17 -30 17h-31q-45 0 -64 20q-18 17 -18 43q0 43 31 125l110 293q4 16 19 16h456zM459 631q-13 0 -8 14l188 504q4 16 12 18q8 -2 10 -18l185 -506q4 -12 -10 -12h-377z M744 2009q-14 0 -43 -25q-32 -28 -135 -127q-104 -96 -135 -127q-18 -18 -18 -30q0 -21 18 -21q12 -2 41 25q113 92 217 151q19 11 31 11t26 -13q23 -14 87 -65q61 -51 94 -86q22 -23 30 -23q15 0 27 15l59 59q11 10 11 20q0 7 -29 29q-33 27 -127 96l-117 88q-30 23 -37 23 z" />
<glyph unicode="&#xe3;" horiz-adv-x="1433" d="M874 528q15 0 21 -14l164 -434q10 -39 -19 -47q-28 -2 -28 -19q2 -16 61 -16q262 -4 387 -4q57 0 78 6q16 2 16 14q0 17 -26 17q-39 0 -86 8q-31 6 -76 47q-45 43 -105 176l-507 1260q-27 65 -52 65q-24 2 -57 -82l-514 -1286q-14 -37 -29 -67q-14 -33 -36 -58 q-39 -49 -109 -59q-31 -4 -63 -4q-25 0 -25 -17q0 -20 39 -20q184 4 241 6q107 -2 218 -6q34 0 34 20q2 17 -30 17h-31q-45 0 -64 20q-18 17 -18 43q0 43 31 125l110 293q4 16 19 16h456zM459 631q-13 0 -8 14l188 504q4 16 12 18q8 -2 10 -18l185 -506q4 -12 -10 -12h-377z M877 1700q75 2 131 65q28 27 47 51q16 25 22 37q10 19 13 35q-3 17 -17 17t-33 -27q-6 -8 -36 -33q-31 -27 -89 -29q-71 0 -147 45q-33 23 -72 41q-39 17 -92 17q-74 -2 -131 -60q-29 -24 -47 -51q-23 -28 -35 -47q-4 -6 -8 -16q-8 -13 -8 -23q0 -14 14 -14q8 -2 33 20 q12 19 47 45q35 27 92 29q43 0 74 -14q31 -15 57 -31q33 -16 78 -35q43 -22 107 -22z" />
<glyph unicode="&#xe4;" horiz-adv-x="1433" d="M874 528q15 0 21 -14l164 -434q10 -39 -19 -47q-28 -2 -28 -19q2 -16 61 -16q262 -4 387 -4q57 0 78 6q16 2 16 14q0 17 -26 17q-39 0 -86 8q-31 6 -76 47q-45 43 -105 176l-507 1260q-27 65 -52 65q-24 2 -57 -82l-514 -1286q-14 -37 -29 -67q-14 -33 -36 -58 q-39 -49 -109 -59q-31 -4 -63 -4q-25 0 -25 -17q0 -20 39 -20q184 4 241 6q107 -2 218 -6q34 0 34 20q2 17 -30 17h-31q-45 0 -64 20q-18 17 -18 43q0 43 31 125l110 293q4 16 19 16h456zM459 631q-13 0 -8 14l188 504q4 16 12 18q8 -2 10 -18l185 -506q4 -12 -10 -12h-377z M949 1700q47 0 74 30q24 29 24 72q-4 88 -96 90q-49 -2 -69 -31q-25 -32 -25 -65t23 -64q20 -32 69 -32zM517 1700q47 0 74 30q24 29 24 72q-4 86 -96 88q-49 -2 -69 -31q-25 -30 -25 -63t22 -64q21 -32 70 -32z" />
<glyph unicode="&#xe5;" horiz-adv-x="1433" d="M874 528q15 0 21 -14l164 -434q10 -39 -19 -47q-28 -2 -28 -19q2 -16 61 -16q262 -4 387 -4q57 0 78 6q16 2 16 14q0 17 -26 17q-39 0 -86 8q-31 6 -76 47q-45 43 -105 176l-507 1260q-27 65 -52 65q-24 2 -57 -82l-514 -1286q-14 -37 -29 -67q-14 -33 -36 -58 q-39 -49 -109 -59q-31 -4 -63 -4q-25 0 -25 -17q0 -20 39 -20q184 4 241 6q107 -2 218 -6q34 0 34 20q2 17 -30 17h-31q-45 0 -64 20q-18 17 -18 43q0 43 31 125l110 293q4 16 19 16h456zM459 631q-13 0 -8 14l188 504q4 16 12 18q8 -2 10 -18l185 -506q4 -12 -10 -12h-377z M682 1679q106 0 199 51q45 25 69 58q25 33 25 76q0 53 -51 86q-54 32 -144 32q-123 -2 -198 -53q-82 -53 -82 -127q0 -53 51 -86q47 -37 131 -37zM625 1831q2 53 43 78q36 22 73 22q56 0 84 -26q25 -29 25 -68q0 -45 -35 -74q-35 -33 -88 -33q-39 0 -68 29q-34 25 -34 72z " />
<glyph unicode="&#xe6;" d="M954 588q0 -295 -10 -436q-4 -46 -16 -74q-13 -31 -43 -39q-29 -8 -72 -8q-14 0 -20 -2q-7 -6 -7 -17q-2 -18 39 -18q137 4 238 6q143 -6 567 -12q57 0 80 8q22 8 31 45q10 37 18 113q8 73 8 114q2 35 -16 37q-8 0 -14 -6q-7 -6 -9 -25q-16 -120 -92 -151 q-41 -19 -96 -21q-53 -4 -96 -4q-152 -2 -199 35q-47 35 -47 137q0 115 2 318v96q-2 20 12 20q154 0 291 -8q57 -6 84 -26q25 -23 31 -54q8 -41 8 -73q-2 -19 18 -19q15 0 17 15q2 12 2 24q0 49 8 137q14 144 16 150q0 18 -14 18q-12 0 -33 -26q-26 -27 -98 -31 q-45 -2 -162 -2q-119 -2 -166 -2q-16 0 -14 22v584q0 20 14 20q43 0 150 -2q106 -2 141 -6q74 -8 103 -26q28 -19 34 -47q13 -45 13 -74q-2 -29 18 -29q21 2 21 23q6 71 10 135q14 127 16 133q0 16 -12 18q-16 -2 -33 -8q-26 -6 -88 -12q-235 -2 -512 -2q-92 4 -108 6 q-21 -2 -27 -29q-2 -18 -45 -90l-361 -565q-303 -471 -391 -596q-28 -43 -77 -104q-52 -66 -140 -109q-53 -20 -88 -18q-28 0 -28 -17q0 -20 28 -20q182 4 260 6q80 -2 293 -6q37 0 39 20q0 17 -31 17q-59 0 -104 18q-33 14 -35 57q0 21 21 70q18 45 69 131l117 201 q80 141 104 180q13 14 35 14h330q18 0 18 -16v-98zM954 815q0 -16 -18 -16h-275q-22 -2 -10 20q27 51 137 234l156 258h10v-496z" />
<glyph unicode="&#xe7;" horiz-adv-x="1638" d="M1069 -35q102 0 203 12q102 13 166 35q26 11 36 25q13 12 17 35q16 61 31 155q14 90 14 117q0 29 -19 31q-20 2 -26 -41q-14 -66 -70 -135q-112 -121 -375 -115q-219 0 -423 182q-213 182 -222 547q-2 152 39 291q41 137 150 239q127 125 385 127q299 -6 415 -127 q78 -86 80 -188q-2 -45 21 -45q24 0 24 47q5 90 7 221q8 99 10 113q0 20 -31 24q-45 7 -94 19q-51 10 -111 16q-123 21 -297 21q-225 0 -381 -58q-157 -57 -266 -159q-143 -140 -192 -295q-49 -156 -47 -266q-2 -150 53 -310q53 -159 201 -295q280 -227 702 -223zM877 0 l-205 -137q-41 -25 -41 -33q0 -10 41 -18q62 -13 101 -29q39 -18 59 -39q39 -41 37 -84q-2 -61 -61 -94q-58 -33 -142 -43q-20 0 -37 -6q-16 -6 -16 -21q2 -20 35 -20q88 0 215 28q65 19 129 68q29 25 47 55q16 31 16 68q0 70 -69 113q-72 40 -195 51v4l207 137h-121z" />
<glyph unicode="&#xe8;" horiz-adv-x="1294" d="M336 588q0 -295 -10 -436q-4 -46 -17 -74q-12 -31 -43 -39q-26 -8 -74 -8q-34 0 -32 -17q0 -20 41 -20q155 4 258 6q143 -6 567 -12q57 0 80 8q22 8 31 45q10 37 18 113q8 73 8 114q2 35 -16 37q-8 0 -15 -6q-6 -6 -8 -25q-16 -120 -92 -151q-41 -19 -96 -21 q-53 -4 -96 -4q-152 -2 -199 35q-47 35 -47 137q-2 152 0 318v162q-2 20 12 20h152q102 -2 139 -6q57 -6 84 -27q24 -22 31 -53q8 -41 8 -74q-2 -18 18 -18q15 0 17 14q2 12 2 25q0 49 8 137q14 143 16 149q0 17 -14 17q-12 0 -33 -27q-26 -26 -98 -31q-45 -2 -162 -2 q-119 -2 -166 -2q-16 0 -14 23v518q0 20 14 20q43 0 150 -2q106 -2 141 -6q74 -8 102 -26q29 -19 35 -47q13 -45 13 -74q-3 -29 18 -29q20 2 20 23q7 71 11 135q14 127 16 133q0 16 -12 18q-17 -2 -33 -8q-27 -6 -88 -12q-236 -2 -512 -2q-109 4 -295 6q-45 0 -45 -18 q0 -21 35 -19q49 0 80 -6q51 -8 69 -37q17 -26 19 -80q4 -32 4 -434v-360zM837 1714q-4 16 -43 37q-74 57 -142 123q-67 63 -86 86q-24 45 -32 45q-11 0 -39 -14q-60 -25 -138 -52q-26 -4 -26 -18q2 -23 67 -51l211 -90l136 -54q57 -26 69 -26q21 0 23 14z" />
<glyph unicode="&#xe9;" horiz-adv-x="1294" d="M336 588q0 -295 -10 -436q-4 -46 -17 -74q-12 -31 -43 -39q-26 -8 -74 -8q-34 0 -32 -17q0 -20 41 -20q155 4 258 6q143 -6 567 -12q57 0 80 8q22 8 31 45q10 37 18 113q8 73 8 114q2 35 -16 37q-8 0 -15 -6q-6 -6 -8 -25q-16 -120 -92 -151q-41 -19 -96 -21 q-53 -4 -96 -4q-152 -2 -199 35q-47 35 -47 137q-2 152 0 318v162q-2 20 12 20h152q102 -2 139 -6q57 -6 84 -27q24 -22 31 -53q8 -41 8 -74q-2 -18 18 -18q15 0 17 14q2 12 2 25q0 49 8 137q14 143 16 149q0 17 -14 17q-12 0 -33 -27q-26 -26 -98 -31q-45 -2 -162 -2 q-119 -2 -166 -2q-16 0 -14 23v518q0 20 14 20q43 0 150 -2q106 -2 141 -6q74 -8 102 -26q29 -19 35 -47q13 -45 13 -74q-3 -29 18 -29q20 2 20 23q7 71 11 135q14 127 16 133q0 16 -12 18q-17 -2 -33 -8q-27 -6 -88 -12q-236 -2 -512 -2q-109 4 -295 6q-45 0 -45 -18 q0 -21 35 -19q49 0 80 -6q51 -8 69 -37q17 -26 19 -80q4 -32 4 -434v-360zM960 1991q-11 24 -29 24q-10 0 -41 -18q-35 -23 -145 -107q-113 -86 -185 -151q-18 -15 -18 -27q2 -12 12 -12q8 0 35 16q61 33 164 72q100 37 186 49q58 2 70 0q22 -2 10 31q-35 82 -59 123z" />
<glyph unicode="&#xea;" horiz-adv-x="1294" d="M336 588q0 -295 -10 -436q-4 -46 -17 -74q-12 -31 -43 -39q-26 -8 -74 -8q-34 0 -32 -17q0 -20 41 -20q155 4 258 6q143 -6 567 -12q57 0 80 8q22 8 31 45q10 37 18 113q8 73 8 114q2 35 -16 37q-8 0 -15 -6q-6 -6 -8 -25q-16 -120 -92 -151q-41 -19 -96 -21 q-53 -4 -96 -4q-152 -2 -199 35q-47 35 -47 137q-2 152 0 318v162q-2 20 12 20h152q102 -2 139 -6q57 -6 84 -27q24 -22 31 -53q8 -41 8 -74q-2 -18 18 -18q15 0 17 14q2 12 2 25q0 49 8 137q14 143 16 149q0 17 -14 17q-12 0 -33 -27q-26 -26 -98 -31q-45 -2 -162 -2 q-119 -2 -166 -2q-16 0 -14 23v518q0 20 14 20q43 0 150 -2q106 -2 141 -6q74 -8 102 -26q29 -19 35 -47q13 -45 13 -74q-3 -29 18 -29q20 2 20 23q7 71 11 135q14 127 16 133q0 16 -12 18q-17 -2 -33 -8q-27 -6 -88 -12q-236 -2 -512 -2q-109 4 -295 6q-45 0 -45 -18 q0 -21 35 -19q49 0 80 -6q51 -8 69 -37q17 -26 19 -80q4 -32 4 -434v-360zM666 2009q-14 0 -43 -25q-32 -28 -135 -127q-104 -96 -135 -127q-18 -18 -18 -30q0 -21 18 -21q12 -2 41 25q113 92 217 151q19 11 31 11t26 -13q23 -14 87 -65q61 -51 94 -86q22 -23 30 -23 q15 0 27 15l59 59q11 10 11 20q0 7 -29 29q-33 27 -127 96l-117 88q-30 23 -37 23z" />
<glyph unicode="&#xeb;" horiz-adv-x="1294" d="M336 588q0 -295 -10 -436q-4 -46 -17 -74q-12 -31 -43 -39q-26 -8 -74 -8q-34 0 -32 -17q0 -20 41 -20q155 4 258 6q143 -6 567 -12q57 0 80 8q22 8 31 45q10 37 18 113q8 73 8 114q2 35 -16 37q-8 0 -15 -6q-6 -6 -8 -25q-16 -120 -92 -151q-41 -19 -96 -21 q-53 -4 -96 -4q-152 -2 -199 35q-47 35 -47 137q-2 152 0 318v162q-2 20 12 20h152q102 -2 139 -6q57 -6 84 -27q24 -22 31 -53q8 -41 8 -74q-2 -18 18 -18q15 0 17 14q2 12 2 25q0 49 8 137q14 143 16 149q0 17 -14 17q-12 0 -33 -27q-26 -26 -98 -31q-45 -2 -162 -2 q-119 -2 -166 -2q-16 0 -14 23v518q0 20 14 20q43 0 150 -2q106 -2 141 -6q74 -8 102 -26q29 -19 35 -47q13 -45 13 -74q-3 -29 18 -29q20 2 20 23q7 71 11 135q14 127 16 133q0 16 -12 18q-17 -2 -33 -8q-27 -6 -88 -12q-236 -2 -512 -2q-109 4 -295 6q-45 0 -45 -18 q0 -21 35 -19q49 0 80 -6q51 -8 69 -37q17 -26 19 -80q4 -32 4 -434v-360zM911 1700q47 0 74 30q24 29 24 72q-4 88 -96 90q-49 -2 -69 -31q-25 -32 -25 -65t23 -64q20 -32 69 -32zM479 1700q47 0 74 30q24 29 24 72q-4 86 -96 88q-49 -2 -69 -31q-25 -30 -25 -63t22 -64 q21 -32 70 -32z" />
<glyph unicode="&#xec;" horiz-adv-x="926" d="M336 588q0 -307 -10 -447q-4 -90 -60 -102q-26 -8 -74 -8q-34 0 -32 -17q0 -20 41 -20q155 4 258 6q100 -2 319 -6q37 0 39 20q0 17 -33 17q-53 0 -104 8q-45 6 -60 35q-16 24 -22 65q-10 142 -8 449v360q0 225 2 309q0 84 2 125q2 56 20 84q17 27 56 33q34 6 61 6 q33 -2 33 21q-2 16 -43 16q-146 -4 -250 -6q-119 4 -266 6q-49 0 -49 -16q0 -23 32 -21q39 0 74 -8q66 -12 70 -115q4 -32 4 -434v-360zM614 1714q-4 16 -43 37q-74 57 -142 123q-67 63 -86 86q-24 45 -32 45q-11 0 -39 -14q-60 -25 -138 -52q-26 -4 -26 -18q2 -23 67 -51 l211 -90l136 -54q57 -26 69 -26q21 0 23 14z" />
<glyph unicode="&#xed;" horiz-adv-x="926" d="M336 588q0 -307 -10 -447q-4 -90 -60 -102q-26 -8 -74 -8q-34 0 -32 -17q0 -20 41 -20q155 4 258 6q100 -2 319 -6q37 0 39 20q0 17 -33 17q-53 0 -104 8q-45 6 -60 35q-16 24 -22 65q-10 142 -8 449v360q0 225 2 309q0 84 2 125q2 56 20 84q17 27 56 33q34 6 61 6 q33 -2 33 21q-2 16 -43 16q-146 -4 -250 -6q-119 4 -266 6q-49 0 -49 -16q0 -23 32 -21q39 0 74 -8q66 -12 70 -115q4 -32 4 -434v-360zM769 1991q-11 24 -29 24q-10 0 -41 -18q-35 -23 -145 -107q-113 -86 -185 -151q-18 -15 -18 -27q2 -12 12 -12q8 0 35 16q61 33 164 72 q100 37 186 49q58 2 70 0q22 -2 10 31q-35 82 -59 123z" />
<glyph unicode="&#xee;" horiz-adv-x="926" d="M336 588q0 -307 -10 -447q-4 -90 -60 -102q-26 -8 -74 -8q-34 0 -32 -17q0 -20 41 -20q155 4 258 6q100 -2 319 -6q37 0 39 20q0 17 -33 17q-53 0 -104 8q-45 6 -60 35q-16 24 -22 65q-10 142 -8 449v360q0 225 2 309q0 84 2 125q2 56 20 84q17 27 56 33q34 6 61 6 q33 -2 33 21q-2 16 -43 16q-146 -4 -250 -6q-119 4 -266 6q-49 0 -49 -16q0 -23 32 -21q39 0 74 -8q66 -12 70 -115q4 -32 4 -434v-360zM475 2009q-14 0 -43 -25q-32 -28 -135 -127q-104 -96 -135 -127q-18 -18 -18 -30q0 -21 18 -21q12 -2 41 25q113 92 217 151 q19 11 31 11t26 -13q23 -14 87 -65q61 -51 94 -86q22 -23 30 -23q15 0 27 15l59 59q11 10 11 20q0 7 -29 29q-33 27 -127 96l-117 88q-30 23 -37 23z" />
<glyph unicode="&#xef;" horiz-adv-x="926" d="M336 588q0 -307 -10 -447q-4 -90 -60 -102q-26 -8 -74 -8q-34 0 -32 -17q0 -20 41 -20q155 4 258 6q100 -2 319 -6q37 0 39 20q0 17 -33 17q-53 0 -104 8q-45 6 -60 35q-16 24 -22 65q-10 142 -8 449v360q0 225 2 309q0 84 2 125q2 56 20 84q17 27 56 33q34 6 61 6 q33 -2 33 21q-2 16 -43 16q-146 -4 -250 -6q-119 4 -266 6q-49 0 -49 -16q0 -23 32 -21q39 0 74 -8q66 -12 70 -115q4 -32 4 -434v-360zM678 1700q47 0 74 30q24 29 24 72q-4 88 -96 90q-49 -2 -69 -31q-25 -32 -25 -65t23 -64q20 -32 69 -32zM246 1700q47 0 74 30 q24 29 24 72q-4 86 -96 88q-49 -2 -69 -31q-25 -30 -25 -63t22 -64q21 -32 70 -32z" />
<glyph unicode="&#xf0;" horiz-adv-x="1917" d="M336 723v-135q0 -295 -10 -436q-4 -46 -17 -74q-12 -31 -43 -39q-26 -8 -74 -8q-34 0 -32 -17q0 -20 41 -20q155 4 258 6q61 0 209 -12q145 -11 260 -13q239 5 411 84q172 78 244 154q90 90 154 238q65 145 67 337q-2 185 -59 314q-60 129 -139 207q-173 168 -398 204 q-223 33 -424 29q-202 -4 -315 -6q-109 4 -295 6q-45 0 -45 -18q0 -21 35 -19q49 0 80 -6q51 -8 69 -37q17 -26 19 -80q4 -32 4 -434v-119h-180q-25 0 -27 -20l-10 -62q-6 -24 10 -24h207zM592 831v150q0 274 2 409q-2 31 24 41q17 7 60 13q41 2 74 2q122 2 280 -35 q158 -39 301 -170q35 -31 70 -76q35 -49 63 -112q62 -127 64 -324q0 -160 -37 -291q-39 -131 -127 -213q-174 -155 -479 -153q-119 0 -183 28q-65 27 -86 56q-12 20 -14 69q-6 47 -8 86q-4 99 -4 316v94h387q22 0 24 18l13 68q6 24 -15 24h-409z" />
<glyph unicode="&#xf1;" horiz-adv-x="1939" d="M428 1132h6q105 -120 488 -516l604 -602q18 -16 37 -28q16 -17 32 -17q27 0 27 64l22 1292q2 86 19 125q14 39 57 49q35 6 62 6q36 0 36 19q-2 20 -47 18q-75 0 -129 -2q-53 -4 -71 -4q-76 4 -248 6q-21 0 -37 -2q-16 -4 -16 -16q-2 -19 32 -19q54 2 109 -12 q37 -12 55 -51q15 -41 15 -133l20 -920h-10q-37 37 -184 195l-267 272q-522 532 -635 657q-22 29 -40 47q-17 17 -35 17q-29 -2 -27 -70l-18 -1212q2 -129 -11 -186q-14 -58 -53 -68q-47 -10 -92 -10q-33 0 -33 -17q0 -22 45 -20q176 4 221 6q58 -2 254 -6q45 0 48 20 q0 17 -35 17q-52 -2 -107 14q-31 10 -49 59q-18 52 -22 168zM1172 1700q75 2 131 65q28 27 47 51q16 25 22 37q10 19 13 35q-3 17 -17 17t-33 -27q-6 -8 -36 -33q-31 -27 -89 -29q-71 0 -147 45q-33 23 -72 41q-39 17 -92 17q-74 -2 -131 -60q-29 -24 -47 -51 q-23 -28 -35 -47q-4 -6 -8 -16q-8 -13 -8 -23q0 -14 14 -14q8 -2 33 20q12 19 47 45q35 27 92 29q43 0 74 -14q31 -15 57 -31q33 -16 78 -35q43 -22 107 -22z" />
<glyph unicode="&#xf2;" d="M938 -35q395 6 620 246q226 235 228 594q-17 749 -828 766q-456 -8 -651 -269q-196 -253 -194 -534q-2 -287 192 -537q197 -258 633 -266zM1024 68q-297 4 -461 223q-168 213 -168 540q0 193 47 318q45 125 119 194q74 74 164 103q88 26 174 26q258 -2 428 -198 q168 -197 172 -545q-2 -219 -53 -350q-51 -133 -129 -201q-78 -65 -158 -88q-78 -22 -135 -22zM1113 1714q-4 16 -43 37q-74 57 -142 123q-67 63 -86 86q-24 45 -32 45q-11 0 -39 -14q-60 -25 -138 -52q-26 -4 -26 -18q2 -23 67 -51l211 -90l136 -54q57 -26 69 -26 q21 0 23 14z" />
<glyph unicode="&#xf3;" d="M938 -35q395 6 620 246q226 235 228 594q-17 749 -828 766q-456 -8 -651 -269q-196 -253 -194 -534q-2 -287 192 -537q197 -258 633 -266zM1024 68q-297 4 -461 223q-168 213 -168 540q0 193 47 318q45 125 119 194q74 74 164 103q88 26 174 26q258 -2 428 -198 q168 -197 172 -545q-2 -219 -53 -350q-51 -133 -129 -201q-78 -65 -158 -88q-78 -22 -135 -22zM1248 1991q-11 24 -29 24q-10 0 -41 -18q-35 -23 -145 -107q-113 -86 -185 -151q-18 -15 -18 -27q2 -12 12 -12q8 0 35 16q61 33 164 72q100 37 186 49q58 2 70 0q22 -2 10 31 q-35 82 -59 123z" />
<glyph unicode="&#xf4;" d="M938 -35q395 6 620 246q226 235 228 594q-17 749 -828 766q-456 -8 -651 -269q-196 -253 -194 -534q-2 -287 192 -537q197 -258 633 -266zM1024 68q-297 4 -461 223q-168 213 -168 540q0 193 47 318q45 125 119 194q74 74 164 103q88 26 174 26q258 -2 428 -198 q168 -197 172 -545q-2 -219 -53 -350q-51 -133 -129 -201q-78 -65 -158 -88q-78 -22 -135 -22zM974 2009q-14 0 -43 -25q-32 -28 -135 -127q-104 -96 -135 -127q-18 -18 -18 -30q0 -21 18 -21q12 -2 41 25q113 92 217 151q19 11 31 11t26 -13q23 -14 87 -65q61 -51 94 -86 q22 -23 30 -23q15 0 27 15l59 59q11 10 11 20q0 7 -29 29q-33 27 -127 96l-117 88q-30 23 -37 23z" />
<glyph unicode="&#xf5;" d="M938 -35q395 6 620 246q226 235 228 594q-17 749 -828 766q-456 -8 -651 -269q-196 -253 -194 -534q-2 -287 192 -537q197 -258 633 -266zM1024 68q-297 4 -461 223q-168 213 -168 540q0 193 47 318q45 125 119 194q74 74 164 103q88 26 174 26q258 -2 428 -198 q168 -197 172 -545q-2 -219 -53 -350q-51 -133 -129 -201q-78 -65 -158 -88q-78 -22 -135 -22zM1107 1700q75 2 131 65q28 27 47 51q16 25 22 37q10 19 13 35q-3 17 -17 17t-33 -27q-6 -8 -36 -33q-31 -27 -89 -29q-71 0 -147 45q-33 23 -72 41q-39 17 -92 17 q-74 -2 -131 -60q-29 -24 -47 -51q-23 -28 -35 -47q-4 -6 -8 -16q-8 -13 -8 -23q0 -14 14 -14q8 -2 33 20q12 19 47 45q35 27 92 29q43 0 74 -14q31 -15 57 -31q33 -16 78 -35q43 -22 107 -22z" />
<glyph unicode="&#xf6;" d="M938 -35q395 6 620 246q226 235 228 594q-17 749 -828 766q-456 -8 -651 -269q-196 -253 -194 -534q-2 -287 192 -537q197 -258 633 -266zM1024 68q-297 4 -461 223q-168 213 -168 540q0 193 47 318q45 125 119 194q74 74 164 103q88 26 174 26q258 -2 428 -198 q168 -197 172 -545q-2 -219 -53 -350q-51 -133 -129 -201q-78 -65 -158 -88q-78 -22 -135 -22zM1177 1700q47 0 74 30q24 29 24 72q-4 88 -96 90q-49 -2 -69 -31q-25 -32 -25 -65t23 -64q20 -32 69 -32zM745 1700q47 0 74 30q24 29 24 72q-4 86 -96 88q-49 -2 -69 -31 q-25 -30 -25 -63t22 -64q21 -32 70 -32z" />
<glyph unicode="&#xf8;" d="M418 125q190 -156 520 -160q395 6 620 246q226 235 228 594q-2 342 -207 542l151 160q11 10 0 23l-57 49q-16 16 -29 4l-153 -162q-195 148 -533 150q-456 -8 -651 -269q-196 -253 -194 -534q0 -72 16 -145q12 -78 39 -152q51 -149 168 -272l-172 -183q-8 -8 4 -20 l57 -51q13 -11 21 0zM1401 1159q98 -176 100 -432q-2 -219 -53 -350q-51 -133 -129 -201q-78 -65 -158 -88q-78 -22 -135 -22q-145 0 -260 61q-117 57 -199 156zM504 377q-107 192 -107 452q0 193 47 318q45 125 119 194q74 74 164 103q88 26 174 26q266 -2 436 -213z" />
<glyph unicode="&#xf9;" horiz-adv-x="1745" d="M248 649q0 -219 53 -346q51 -129 129 -197q117 -96 244 -120q127 -23 211 -21q102 0 209 29q108 29 217 119q125 114 163 280q33 164 31 336v219q0 225 2 309q0 84 2 125q2 56 21 84q16 27 55 33q31 6 59 6q37 -2 37 19q0 18 -43 18q-63 0 -135 -2q-76 -4 -98 -4 q-41 4 -236 6q-43 0 -43 -18q0 -21 35 -19q41 0 74 -6q51 -8 69 -37q17 -26 19 -80q4 -32 4 -434v-256q2 -158 -14 -289q-21 -133 -105 -219q-61 -59 -137 -84q-76 -26 -145 -26q-25 0 -56 4q-30 2 -63 10q-31 8 -66 27q-34 16 -71 43q-74 57 -115 174q-45 112 -45 329v287 q0 225 2 309q0 84 2 125q2 56 20 84q17 27 56 33q30 6 59 6q33 -2 33 19q0 18 -45 18q-143 -4 -252 -6q-115 4 -299 6q-45 0 -45 -18q0 -21 35 -19q49 0 80 -6q51 -8 69 -37q17 -26 19 -80q4 -32 4 -434v-299zM1039 1714q-4 16 -43 37q-74 57 -142 123q-67 63 -86 86 q-24 45 -32 45q-11 0 -39 -14q-60 -25 -138 -52q-26 -4 -26 -18q2 -23 67 -51l211 -90l136 -54q57 -26 69 -26q21 0 23 14z" />
<glyph unicode="&#xfa;" horiz-adv-x="1745" d="M248 649q0 -219 53 -346q51 -129 129 -197q117 -96 244 -120q127 -23 211 -21q102 0 209 29q108 29 217 119q125 114 163 280q33 164 31 336v219q0 225 2 309q0 84 2 125q2 56 21 84q16 27 55 33q31 6 59 6q37 -2 37 19q0 18 -43 18q-63 0 -135 -2q-76 -4 -98 -4 q-41 4 -236 6q-43 0 -43 -18q0 -21 35 -19q41 0 74 -6q51 -8 69 -37q17 -26 19 -80q4 -32 4 -434v-256q2 -158 -14 -289q-21 -133 -105 -219q-61 -59 -137 -84q-76 -26 -145 -26q-25 0 -56 4q-30 2 -63 10q-31 8 -66 27q-34 16 -71 43q-74 57 -115 174q-45 112 -45 329v287 q0 225 2 309q0 84 2 125q2 56 20 84q17 27 56 33q30 6 59 6q33 -2 33 19q0 18 -45 18q-143 -4 -252 -6q-115 4 -299 6q-45 0 -45 -18q0 -21 35 -19q49 0 80 -6q51 -8 69 -37q17 -26 19 -80q4 -32 4 -434v-299zM1249 1991q-11 24 -29 24q-10 0 -41 -18q-35 -23 -145 -107 q-113 -86 -185 -151q-18 -15 -18 -27q2 -12 12 -12q8 0 35 16q61 33 164 72q100 37 186 49q58 2 70 0q22 -2 10 31q-35 82 -59 123z" />
<glyph unicode="&#xfb;" horiz-adv-x="1745" d="M248 649q0 -219 53 -346q51 -129 129 -197q117 -96 244 -120q127 -23 211 -21q102 0 209 29q108 29 217 119q125 114 163 280q33 164 31 336v219q0 225 2 309q0 84 2 125q2 56 21 84q16 27 55 33q31 6 59 6q37 -2 37 19q0 18 -43 18q-63 0 -135 -2q-76 -4 -98 -4 q-41 4 -236 6q-43 0 -43 -18q0 -21 35 -19q41 0 74 -6q51 -8 69 -37q17 -26 19 -80q4 -32 4 -434v-256q2 -158 -14 -289q-21 -133 -105 -219q-61 -59 -137 -84q-76 -26 -145 -26q-25 0 -56 4q-30 2 -63 10q-31 8 -66 27q-34 16 -71 43q-74 57 -115 174q-45 112 -45 329v287 q0 225 2 309q0 84 2 125q2 56 20 84q17 27 56 33q30 6 59 6q33 -2 33 19q0 18 -45 18q-143 -4 -252 -6q-115 4 -299 6q-45 0 -45 -18q0 -21 35 -19q49 0 80 -6q51 -8 69 -37q17 -26 19 -80q4 -32 4 -434v-299zM932 2009q-14 0 -43 -25q-32 -28 -135 -127q-104 -96 -135 -127 q-18 -18 -18 -30q0 -21 18 -21q12 -2 41 25q113 92 217 151q19 11 31 11t26 -13q23 -14 87 -65q61 -51 94 -86q22 -23 30 -23q15 0 27 15l59 59q11 10 11 20q0 7 -29 29q-33 27 -127 96l-117 88q-30 23 -37 23z" />
<glyph unicode="&#xfc;" horiz-adv-x="1745" d="M248 649q0 -219 53 -346q51 -129 129 -197q117 -96 244 -120q127 -23 211 -21q102 0 209 29q108 29 217 119q125 114 163 280q33 164 31 336v219q0 225 2 309q0 84 2 125q2 56 21 84q16 27 55 33q31 6 59 6q37 -2 37 19q0 18 -43 18q-63 0 -135 -2q-76 -4 -98 -4 q-41 4 -236 6q-43 0 -43 -18q0 -21 35 -19q41 0 74 -6q51 -8 69 -37q17 -26 19 -80q4 -32 4 -434v-256q2 -158 -14 -289q-21 -133 -105 -219q-61 -59 -137 -84q-76 -26 -145 -26q-25 0 -56 4q-30 2 -63 10q-31 8 -66 27q-34 16 -71 43q-74 57 -115 174q-45 112 -45 329v287 q0 225 2 309q0 84 2 125q2 56 20 84q17 27 56 33q30 6 59 6q33 -2 33 19q0 18 -45 18q-143 -4 -252 -6q-115 4 -299 6q-45 0 -45 -18q0 -21 35 -19q49 0 80 -6q51 -8 69 -37q17 -26 19 -80q4 -32 4 -434v-299zM1155 1700q47 0 74 30q24 29 24 72q-4 88 -96 90 q-49 -2 -69 -31q-25 -32 -25 -65t23 -64q20 -32 69 -32zM723 1700q47 0 74 30q24 29 24 72q-4 86 -96 88q-49 -2 -69 -31q-25 -30 -25 -63t22 -64q21 -32 70 -32z" />
<glyph unicode="&#xfd;" horiz-adv-x="1372" d="M565 356q0 -61 -6 -204q-2 -46 -16 -74q-17 -31 -47 -39q-29 -8 -72 -8q-33 0 -33 -17q0 -20 45 -20q148 4 256 6l313 -6q41 0 44 20q0 17 -33 17q-51 0 -103 8q-45 8 -61 39q-21 28 -23 74q-8 143 -6 204v168q0 51 4 103q4 24 11 51q6 24 16 51q16 37 70 129l116 201 q142 235 205 321q57 76 111 101q53 24 90 24t39 21q-2 16 -37 16q-105 -4 -219 -6q-90 4 -193 6q-35 0 -35 -18q2 -17 37 -21q27 -6 35 -18q8 -17 8 -33q0 -39 -28 -107l-156 -286l-96 -174q-45 -80 -56 -103l-174 307l-108 195l-66 111q-24 45 -24 69q0 29 28 37 q45 8 45 23q0 18 -30 18q-68 0 -125 -2q-60 -4 -94 -4q-152 4 -258 6q-37 0 -39 -18q2 -21 30 -19q41 -2 86 -26q62 -35 142 -150q69 -104 202 -321l109 -177q45 -75 49 -92q23 -41 35 -88t12 -127v-168zM1094 1991q-11 24 -29 24q-10 0 -41 -18q-35 -23 -145 -107 q-113 -86 -185 -151q-18 -15 -18 -27q2 -12 12 -12q8 0 35 16q61 33 164 72q100 37 186 49q58 2 70 0q22 -2 10 31q-35 82 -59 123z" />
<glyph unicode="&#xfe;" horiz-adv-x="1341" d="M336 588q0 -295 -10 -436q-4 -46 -17 -74q-12 -31 -43 -39q-26 -8 -74 -8q-34 0 -32 -17q0 -20 41 -20q155 4 258 6l305 -6q39 0 41 20q0 17 -27 17q-49 0 -100 8q-45 8 -60 39q-16 28 -20 71q-12 144 -10 439v487q0 33 16 39q33 12 88 12q39 0 92 -8q52 -12 105 -63 q43 -41 65 -84q25 -45 35 -88q12 -43 14 -78v-66q-4 -147 -88 -235q-86 -94 -180 -94q-57 0 -57 -23q2 -20 24 -18q23 -2 43 -2q224 2 363 135q139 131 141 352q-2 82 -31 147q-30 64 -69 95q-10 14 -35 32q-27 21 -72 39q-43 21 -110 33q-66 12 -164 12q-104 0 -180 -8 q0 60 4 184q-2 93 92 109q49 8 78 8q28 0 31 19q-3 18 -39 18q-185 -4 -287 -6q-107 4 -293 6q-45 0 -45 -18q0 -21 35 -19q49 0 80 -6q51 -8 69 -37q17 -26 19 -80q4 -32 4 -434v-360z" />
<glyph unicode="&#xff;" horiz-adv-x="1372" d="M565 356q0 -61 -6 -204q-2 -46 -16 -74q-17 -31 -47 -39q-29 -8 -72 -8q-33 0 -33 -17q0 -20 45 -20q148 4 256 6l313 -6q41 0 44 20q0 17 -33 17q-51 0 -103 8q-45 8 -61 39q-21 28 -23 74q-8 143 -6 204v168q0 51 4 103q4 24 11 51q6 24 16 51q16 37 70 129l116 201 q142 235 205 321q57 76 111 101q53 24 90 24t39 21q-2 16 -37 16q-105 -4 -219 -6q-90 4 -193 6q-35 0 -35 -18q2 -17 37 -21q27 -6 35 -18q8 -17 8 -33q0 -39 -28 -107l-156 -286l-96 -174q-45 -80 -56 -103l-174 307l-108 195l-66 111q-24 45 -24 69q0 29 28 37 q45 8 45 23q0 18 -30 18q-68 0 -125 -2q-60 -4 -94 -4q-152 4 -258 6q-37 0 -39 -18q2 -21 30 -19q41 -2 86 -26q62 -35 142 -150q69 -104 202 -321l109 -177q45 -75 49 -92q23 -41 35 -88t12 -127v-168zM980 1700q47 0 74 30q24 29 24 72q-4 88 -96 90q-49 -2 -69 -31 q-25 -32 -25 -65t23 -64q20 -32 69 -32zM548 1700q47 0 74 30q24 29 24 72q-4 86 -96 88q-49 -2 -69 -31q-25 -30 -25 -63t22 -64q21 -32 70 -32z" />
<glyph unicode="&#x131;" horiz-adv-x="926" d="M336 588q0 -307 -10 -447q-4 -90 -60 -102q-26 -8 -74 -8q-34 0 -32 -17q0 -20 41 -20q155 4 258 6q100 -2 319 -6q37 0 39 20q0 17 -33 17q-53 0 -104 8q-45 6 -60 35q-16 24 -22 65q-10 142 -8 449v360q0 225 2 309q0 84 2 125q2 56 20 84q17 27 56 33q34 6 61 6 q33 -2 33 21q-2 16 -43 16q-146 -4 -250 -6q-119 4 -266 6q-49 0 -49 -16q0 -23 32 -21q39 0 74 -8q66 -12 70 -115q4 -32 4 -434v-360z" />
<glyph unicode="&#x152;" horiz-adv-x="2437" d="M1737 752q-2 20 12 20q153 0 291 -8q57 -6 84 -27q24 -22 30 -53q9 -41 9 -74q-3 -18 18 -18q14 0 16 14q2 12 2 25q0 49 9 137q14 143 16 149q0 19 -14 19q-13 0 -33 -27q-27 -26 -98 -30q-45 -3 -162 -3q-119 -2 -166 -2q-16 0 -14 23v516q0 20 14 20q43 0 149 -2 q107 -2 142 -6q73 -8 102 -26q29 -19 35 -47q12 -45 12 -74q-2 -29 19 -29q20 2 20 23q6 71 10 135q15 127 17 133q0 16 -13 18q-16 -2 -32 -8q-27 -6 -88 -12q-236 -2 -512 -2q-92 4 -99 6q-20 -2 -20 -18q2 -23 4 -41q2 -27 2 -146h-6q-37 47 -88 90t-119 74 q-135 68 -364 70q-424 -8 -617 -256q-194 -244 -192 -545q-2 -289 186 -539q190 -258 610 -266q211 2 352 62q142 59 238 155q0 -78 -2 -112q-6 -39 -6 -62q0 -12 20 -14q25 4 70 6q168 -6 588 -12q57 0 80 8q22 8 30 45q10 37 19 113q8 73 8 114q2 35 -17 37q-8 0 -14 -6 t-8 -25q-16 -120 -92 -151q-41 -19 -96 -21q-54 -4 -97 -4q-151 -2 -198 35q-47 35 -47 139q-2 150 0 316v164zM391 831q2 334 152 488q145 151 344 151q293 -4 448 -225q156 -221 156 -549q-14 -635 -490 -630q-249 0 -426 200q-180 199 -184 565z" />
<glyph unicode="&#x153;" horiz-adv-x="2437" d="M1737 752q-2 20 12 20q153 0 291 -8q57 -6 84 -27q24 -22 30 -53q9 -41 9 -74q-3 -18 18 -18q14 0 16 14q2 12 2 25q0 49 9 137q14 143 16 149q0 19 -14 19q-13 0 -33 -27q-27 -26 -98 -30q-45 -3 -162 -3q-119 -2 -166 -2q-16 0 -14 23v516q0 20 14 20q43 0 149 -2 q107 -2 142 -6q73 -8 102 -26q29 -19 35 -47q12 -45 12 -74q-2 -29 19 -29q20 2 20 23q6 71 10 135q15 127 17 133q0 16 -13 18q-16 -2 -32 -8q-27 -6 -88 -12q-236 -2 -512 -2q-92 4 -99 6q-20 -2 -20 -18q2 -23 4 -41q2 -27 2 -146h-6q-37 47 -88 90t-119 74 q-135 68 -364 70q-424 -8 -617 -256q-194 -244 -192 -545q-2 -289 186 -539q190 -258 610 -266q211 2 352 62q142 59 238 155q0 -78 -2 -112q-6 -39 -6 -62q0 -12 20 -14q25 4 70 6q102 0 231 -6q131 -4 357 -6q57 0 80 8q22 8 30 45q10 37 19 113q8 73 8 114q2 35 -17 37 q-8 0 -14 -6t-8 -25q-16 -120 -92 -151q-41 -19 -96 -21q-54 -4 -97 -4q-151 -2 -198 35q-47 35 -47 139q-2 150 0 316v164zM391 831q2 334 152 488q145 151 344 151q293 -4 448 -225q156 -221 156 -549q-14 -635 -490 -630q-249 0 -426 200q-180 199 -184 565z" />
<glyph unicode="&#x178;" horiz-adv-x="1372" d="M565 356q0 -61 -6 -204q-2 -46 -16 -74q-17 -31 -47 -39q-29 -8 -72 -8q-33 0 -33 -17q0 -20 45 -20q148 4 256 6l313 -6q41 0 44 20q0 17 -33 17q-51 0 -103 8q-45 8 -61 39q-21 28 -23 74q-8 143 -6 204v168q0 51 4 103q4 24 11 51q6 24 16 51q16 37 70 129l116 201 q142 235 205 321q57 76 111 101q53 24 90 24t39 21q-2 16 -37 16q-105 -4 -219 -6q-90 4 -193 6q-35 0 -35 -18q2 -17 37 -21q27 -6 35 -18q8 -17 8 -33q0 -39 -28 -107l-156 -286l-96 -174q-45 -80 -56 -103l-174 307l-108 195l-66 111q-24 45 -24 69q0 29 28 37 q45 8 45 23q0 18 -30 18q-68 0 -125 -2q-60 -4 -94 -4q-152 4 -258 6q-37 0 -39 -18q2 -21 30 -19q41 -2 86 -26q62 -35 142 -150q69 -104 202 -321l109 -177q45 -75 49 -92q23 -41 35 -88t12 -127v-168zM980 1700q47 0 74 30q24 29 24 72q-4 88 -96 90q-49 -2 -69 -31 q-25 -32 -25 -65t23 -64q20 -32 69 -32zM548 1700q47 0 74 30q24 29 24 72q-4 86 -96 88q-49 -2 -69 -31q-25 -30 -25 -63t22 -64q21 -32 70 -32z" />
<glyph unicode="&#x2c6;" d="M960 2009q-14 0 -43 -25q-32 -28 -135 -127q-104 -96 -135 -127q-18 -18 -18 -30q0 -21 18 -21q12 -2 41 25q113 92 217 151q19 11 31 11t26 -13q23 -14 87 -65q61 -51 94 -86q22 -23 30 -23q15 0 27 15l59 59q11 10 11 20q0 7 -29 29q-33 27 -127 96l-117 88 q-30 23 -37 23z" />
<glyph unicode="&#x2da;" d="M895 1679q106 0 199 51q45 25 69 58q25 33 25 76q0 53 -51 86q-54 32 -144 32q-123 -2 -198 -53q-82 -53 -82 -127q0 -53 51 -86q47 -37 131 -37zM838 1831q2 53 43 78q36 22 73 22q56 0 84 -26q25 -29 25 -68q0 -45 -35 -74q-35 -33 -88 -33q-39 0 -68 29q-34 25 -34 72 z" />
<glyph unicode="&#x2dc;" d="M1094 1700q75 2 131 65q28 27 47 51q16 25 22 37q10 19 13 35q-3 17 -17 17t-33 -27q-6 -8 -36 -33q-31 -27 -89 -29q-71 0 -147 45q-33 23 -72 41q-39 17 -92 17q-74 -2 -131 -60q-29 -24 -47 -51q-23 -28 -35 -47q-4 -6 -8 -16q-8 -13 -8 -23q0 -14 14 -14q8 -2 33 20 q12 19 47 45q35 27 92 29q43 0 74 -14q31 -15 57 -31q33 -16 78 -35q43 -22 107 -22z" />
<glyph unicode="&#x2000;" horiz-adv-x="1007" />
<glyph unicode="&#x2001;" horiz-adv-x="2015" />
<glyph unicode="&#x2002;" horiz-adv-x="1007" />
<glyph unicode="&#x2003;" horiz-adv-x="2015" />
<glyph unicode="&#x2004;" horiz-adv-x="671" />
<glyph unicode="&#x2005;" horiz-adv-x="503" />
<glyph unicode="&#x2006;" horiz-adv-x="335" />
<glyph unicode="&#x2007;" horiz-adv-x="335" />
<glyph unicode="&#x2008;" horiz-adv-x="251" />
<glyph unicode="&#x2009;" horiz-adv-x="403" />
<glyph unicode="&#x200a;" horiz-adv-x="111" />
<glyph unicode="&#x2010;" horiz-adv-x="870" d="M154 891q-25 0 -33 -2q-10 -6 -17 -25l-30 -141q-4 -14 2 -25q2 -12 14 -12t37 14q22 11 53 19q74 18 262 53q187 33 267 45q90 8 92 45q0 19 -19 25q-18 4 -47 4h-581z" />
<glyph unicode="&#x2011;" horiz-adv-x="870" d="M154 891q-25 0 -33 -2q-10 -6 -17 -25l-30 -141q-4 -14 2 -25q2 -12 14 -12t37 14q22 11 53 19q74 18 262 53q187 33 267 45q90 8 92 45q0 19 -19 25q-18 4 -47 4h-581z" />
<glyph unicode="&#x2012;" horiz-adv-x="870" d="M154 891q-25 0 -33 -2q-10 -6 -17 -25l-30 -141q-4 -14 2 -25q2 -12 14 -12t37 14q22 11 53 19q74 18 262 53q187 33 267 45q90 8 92 45q0 19 -19 25q-18 4 -47 4h-581z" />
<glyph unicode="&#x2013;" horiz-adv-x="1024" d="M0 772h1024v119h-1024v-119z" />
<glyph unicode="&#x2014;" horiz-adv-x="2048" d="M2048 772v119h-2048v-119h2048z" />
<glyph unicode="&#x2018;" horiz-adv-x="446" d="M268 1321q0 49 11 96q6 47 18 86q22 84 51 137q10 23 10 27q-2 12 -12 12q-16 0 -33 -16q-71 -78 -145 -207q-33 -61 -55 -121q-25 -61 -25 -110q-2 -21 12 -33q13 -14 47 -27q35 -8 86 -22q50 -17 84 -17q21 2 23 17q2 10 -23 37q-45 34 -49 141z" />
<glyph unicode="&#x2019;" horiz-adv-x="446" d="M178 1485q-2 -97 -24 -178l-25 -76q-14 -37 -31 -66q-10 -22 -10 -26q0 -13 12 -13q17 0 33 17q76 78 150 209q34 63 55 122q20 60 20 107q0 22 -10 37q-10 12 -49 22q-31 11 -84 25q-51 14 -86 14q-20 -2 -23 -16q-2 -10 23 -37q43 -33 49 -141z" />
<glyph unicode="&#x201a;" horiz-adv-x="446" d="M178 100q-2 -96 -24 -178l-25 -76q-14 -36 -31 -65q-10 -23 -10 -27q0 -12 12 -12q17 0 33 16q76 78 150 209q34 64 55 123q20 59 20 107q0 22 -10 36q-10 13 -49 23q-31 10 -84 25q-51 14 -86 14q-20 -2 -23 -16q-2 -11 23 -37q43 -33 49 -142z" />
<glyph unicode="&#x201c;" horiz-adv-x="737" d="M565 1329q0 96 29 178q22 82 49 135q12 21 12 27q-2 10 -14 10q-14 0 -31 -16q-73 -74 -143 -201q-33 -61 -55 -121q-23 -61 -23 -108q-2 -21 12 -33q13 -12 47 -25q31 -6 84 -20q52 -16 82 -16q21 0 23 14q2 10 -23 37q-45 31 -49 139zM258 1329q0 96 29 178 q22 82 49 135q10 21 10 27q-2 10 -12 10q-15 0 -31 -16q-74 -74 -143 -201q-33 -61 -56 -121q-22 -61 -22 -108q-2 -21 12 -33q12 -12 47 -25q31 -6 84 -20q51 -16 82 -16q21 0 23 14q2 10 -23 37q-45 31 -49 139z" />
<glyph unicode="&#x201d;" horiz-adv-x="737" d="M348 1585q0 25 -10 35q-10 12 -49 22q-31 11 -80 25q-51 10 -86 12q-21 -2 -23 -14q-2 -10 23 -37q43 -31 49 -139q-4 -199 -78 -314q-12 -18 -12 -26q0 -10 12 -10q15 0 33 14q76 78 147 207q72 127 74 225zM479 1489q-4 -199 -78 -314q-10 -18 -10 -26q0 -10 12 -10 q15 0 33 14q76 78 146 207q71 127 73 225q0 25 -10 35q-10 12 -49 22q-31 11 -80 25q-51 10 -86 12q-20 -2 -22 -14q-3 -10 22 -37q43 -31 49 -139z" />
<glyph unicode="&#x201e;" horiz-adv-x="737" d="M172 100q-2 -96 -25 -178q-12 -41 -24 -76q-14 -36 -31 -65q-10 -23 -10 -27q0 -12 12 -12q17 0 33 16q76 78 149 209q35 64 56 123q20 59 20 107q0 22 -10 36q-10 13 -49 23q-31 10 -84 25q-51 14 -86 14q-21 -2 -23 -16q-2 -11 23 -37q43 -33 49 -142zM475 100 q-2 -96 -24 -178l-25 -76q-14 -36 -31 -65q-10 -23 -10 -27q0 -12 12 -12q17 0 33 16q76 78 150 209q34 64 55 123q20 59 20 107q0 22 -10 36q-10 13 -49 23q-31 10 -84 25q-51 14 -86 14q-21 -2 -23 -16q-2 -11 23 -37q43 -33 49 -142z" />
<glyph unicode="&#x2022;" horiz-adv-x="876" d="M342 795q0 -107 -27 -185q-2 -10 -6 -22q-6 -17 -6 -23q0 -12 12 -12q11 0 23 12q10 10 22 19q152 127 258 272q7 10 13 25q4 12 4 22q0 14 -8 25q-4 8 -76 26q-27 6 -68 17q-43 8 -88 14q-96 14 -127 14q-43 0 -41 -20q0 -12 33 -25q25 -8 53 -45q27 -39 29 -114z" />
<glyph unicode="&#x2026;" horiz-adv-x="2048" d="M340 0q59 0 92 39q31 35 31 86q0 53 -33 84q-35 31 -88 31q-61 -2 -90 -39q-31 -39 -31 -80q0 -43 31 -80q27 -41 88 -41zM1022 0q59 0 92 39q31 35 31 86q0 53 -33 84q-35 31 -88 31q-62 -2 -90 -39q-31 -39 -31 -80q0 -43 31 -80q26 -41 88 -41zM1704 0q59 0 92 39 q31 35 31 86q0 53 -33 84q-35 31 -88 31q-62 -2 -90 -39q-31 -39 -31 -80q0 -43 31 -80q26 -41 88 -41z" />
<glyph unicode="&#x202f;" horiz-adv-x="403" />
<glyph unicode="&#x2039;" horiz-adv-x="782" d="M565 506q8 8 8 14q0 4 -28 31l-164 164q-88 90 -123 129q45 63 158 196l145 174q10 11 12 27q-2 14 -24 16q-12 0 -39 -22q-37 -29 -191 -170l-204 -186q-41 -37 -39 -46q-2 -14 37 -49l288 -313q62 -72 66 -68q8 0 20 15z" />
<glyph unicode="&#x203a;" horiz-adv-x="782" d="M217 1155q-8 -6 -8 -14q-2 -2 29 -31l167 -160q89 -90 119 -133q-16 -27 -57 -78l-96 -116l-150 -177q-12 -10 -12 -26q2 -17 24 -17q15 0 39 23l193 172l203 184q39 37 39 45q0 15 -37 49l-289 314q-62 69 -66 67q-8 0 -20 -14z" />
<glyph unicode="&#x205f;" horiz-adv-x="503" />
<glyph unicode="&#x2122;" horiz-adv-x="1495" d="M125 1536q-27 0 -76 6q-35 8 -41 10q-4 -2 -8 -18q-10 -51 -20 -125q-7 -31 10 -31q14 0 22 31q6 53 92 55h113v-362q0 -137 -2 -180q-2 -19 -10 -35q-8 -17 -37 -21l-27 -2q-26 0 -26 -14q-2 -14 26 -14q78 2 146 4q67 -4 137 -4q29 0 29 16q2 10 -27 12l-25 2 q-20 4 -30 21q-9 16 -13 35q-2 24 -2 67q-2 43 -2 113v362h97q59 0 75 -12q17 -12 15 -35q2 -51 18 -49q16 0 21 39q0 51 2 106q0 31 -9 31q-6 -6 -90 -8h-358zM625 932q-2 -33 -13 -49q-10 -15 -22 -17l-19 -2q-24 0 -24 -14t22 -14q54 2 88 4q45 -4 107 -4q18 0 18 14 q-2 14 -24 14l-19 2q-12 0 -18 13q-8 10 -8 16q0 16 2 37l37 342h8l194 -385q8 -19 21 -33q8 -18 20 -18q19 0 39 51l193 377h8l55 -400q2 -18 23 -22q22 -4 88 -4q65 -4 90 -4q22 0 22 14q2 14 -18 14h-18q-19 2 -33 23q-15 18 -25 69l-88 564q0 16 -4 26q-6 10 -16 10 q-17 0 -29 -22l-252 -502l-260 496q-4 12 -10 22q-8 6 -23 6q-10 0 -16 -10q-6 -12 -8 -29z" />
<glyph unicode="&#xe000;" horiz-adv-x="1540" d="M0 1540h1540v-1540h-1540v1540z" />
<glyph unicode="&#xfb01;" horiz-adv-x="2200" d="M1610 588q0 -307 -10 -447q-4 -90 -60 -102q-26 -8 -74 -8q-34 0 -32 -17q0 -20 41 -20q155 4 258 6q100 -2 319 -6q37 0 39 20q0 17 -33 17q-53 0 -104 8q-45 6 -60 35q-16 24 -22 65q-10 142 -8 449v360q0 225 2 309q0 84 2 125q2 56 20 84q17 27 56 33q34 6 61 6 q33 -2 33 21q-2 16 -43 16q-146 -4 -250 -6q-119 4 -266 6q-49 0 -49 -16q0 -23 32 -21q39 0 74 -8q66 -12 70 -115q4 -32 4 -434v-360zM594 754q0 18 14 18h148q106 0 155 -6q25 -2 43 -8q19 -8 31 -21q25 -22 31 -45q12 -39 12 -63q0 -27 16 -29q17 0 19 14q2 11 2 25 q0 55 8 149q4 25 6 48q4 22 6 36q4 35 4 43q0 19 -12 19q-14 0 -26 -21q-31 -37 -89 -37q-40 -2 -92 -2l-262 -2q-16 0 -14 19v512q0 28 18 28l316 -6q59 -2 92 -18q35 -21 43 -43q10 -21 12 -43v-35q2 -33 21 -33q20 0 20 29q6 86 10 166q15 76 17 92q0 16 -15 18 q-14 -2 -32 -12q-29 -6 -84 -8q-248 -2 -541 -2q-113 4 -295 6q-47 0 -47 -20q0 -17 35 -17q49 0 80 -6q51 -8 69 -37q17 -26 19 -80q4 -32 4 -434v-360q0 -301 -10 -436q-4 -46 -17 -74q-12 -31 -43 -39q-26 -8 -74 -8q-32 0 -30 -17q0 -20 43 -20q149 4 260 6 q98 -2 311 -6q45 0 45 20q0 17 -35 17q-51 0 -102 8q-45 8 -59 39q-17 28 -21 74q-12 135 -10 436v166z" />
<glyph unicode="&#xfb02;" horiz-adv-x="2513" d="M1866 948q0 225 2 309q0 84 2 125q2 56 20 84q17 27 56 33q41 6 80 6q36 -2 36 19q0 18 -43 18q-161 -4 -278 -6q-109 4 -281 6q-45 0 -45 -18q0 -21 35 -19q41 0 68 -6q51 -8 69 -37q17 -26 19 -80q4 -32 4 -434v-360q0 -295 -10 -436q-4 -46 -17 -74q-12 -31 -43 -39 q-26 -8 -74 -8q-34 0 -32 -17q0 -20 41 -20q155 4 258 6q200 -6 596 -12q77 0 102 12q21 10 27 43q12 53 22 133q8 80 8 103q0 34 -16 34q-23 -2 -23 -30q-10 -70 -53 -123q-37 -39 -96 -47q-61 -11 -143 -11q-117 0 -170 13q-54 12 -78 32q-29 27 -37 138q-8 106 -6 303 v360zM594 754q0 18 14 18h148q106 0 155 -6q25 -2 43 -8q19 -8 31 -21q25 -22 31 -45q12 -39 12 -63q0 -27 16 -29q17 0 19 14q2 11 2 25q0 55 8 149q4 25 6 48q4 22 6 36q4 35 4 43q0 19 -12 19q-14 0 -26 -21q-31 -37 -89 -37q-40 -2 -92 -2l-262 -2q-16 0 -14 19v512 q0 28 18 28l316 -6q59 -2 92 -18q35 -21 43 -43q10 -21 12 -43v-35q2 -33 21 -33q20 0 20 29q6 86 10 166q15 76 17 92q0 16 -15 18q-14 -2 -32 -12q-29 -6 -84 -8q-248 -2 -541 -2q-113 4 -295 6q-47 0 -47 -20q0 -17 35 -17q49 0 80 -6q51 -8 69 -37q17 -26 19 -80 q4 -32 4 -434v-360q0 -301 -10 -436q-4 -46 -17 -74q-12 -31 -43 -39q-26 -8 -74 -8q-32 0 -30 -17q0 -20 43 -20q149 4 260 6q98 -2 311 -6q45 0 45 20q0 17 -35 17q-51 0 -102 8q-45 8 -59 39q-17 28 -21 74q-12 135 -10 436v166z" />
<glyph unicode="&#xfb03;" horiz-adv-x="3474" d="M2884 588q0 -307 -10 -447q-4 -90 -60 -102q-26 -8 -74 -8q-34 0 -32 -17q0 -20 41 -20q155 4 258 6q100 -2 319 -6q37 0 39 20q0 17 -33 17q-53 0 -104 8q-45 6 -60 35q-16 24 -22 65q-10 142 -8 449v360q0 225 2 309q0 84 2 125q2 56 20 84q17 27 56 33q34 6 61 6 q33 -2 33 21q-2 16 -43 16q-146 -4 -250 -6q-119 4 -266 6q-49 0 -49 -16q0 -23 32 -21q39 0 74 -8q66 -12 70 -115q4 -32 4 -434v-360zM1868 754q0 18 14 18h148q106 0 155 -6q25 -2 43 -8q19 -8 31 -21q25 -22 31 -45q12 -39 12 -63q0 -27 16 -29q17 0 19 14q2 11 2 25 q0 55 8 149q4 25 6 48q4 22 6 36q4 35 4 43q0 19 -12 19q-14 0 -26 -21q-31 -37 -89 -37q-40 -2 -92 -2l-262 -2q-16 0 -14 19v512q0 28 18 28l316 -6q59 -2 92 -18q35 -21 43 -43q10 -21 12 -43v-35q2 -33 21 -33q20 0 20 29q6 86 10 166q15 76 17 92q0 16 -15 18 q-14 -2 -32 -12q-29 -6 -84 -8q-248 -2 -541 -2q-113 4 -295 6q-47 0 -47 -20q0 -17 35 -17q49 0 80 -6q51 -8 69 -37q17 -26 19 -80q4 -32 4 -434v-360q0 -301 -10 -436q-4 -46 -17 -74q-12 -31 -43 -39q-26 -8 -74 -8q-32 0 -30 -17q0 -20 43 -20q149 4 260 6 q98 -2 311 -6q45 0 45 20q0 17 -35 17q-51 0 -102 8q-45 8 -59 39q-17 28 -21 74q-12 135 -10 436v166zM594 754q0 18 14 18h148q106 0 155 -6q25 -2 43 -8q19 -8 31 -21q25 -22 31 -45q12 -39 12 -63q0 -27 16 -29q17 0 19 14q2 11 2 25q0 55 8 149q4 25 6 48q4 22 6 36 q4 35 4 43q0 19 -12 19q-14 0 -26 -21q-31 -37 -89 -37q-40 -2 -92 -2l-262 -2q-16 0 -14 19v512q0 28 18 28l316 -6q59 -2 92 -18q35 -21 43 -43q10 -21 12 -43v-35q2 -33 21 -33q20 0 20 29q6 86 10 166q15 76 17 92q0 16 -15 18q-14 -2 -32 -12q-29 -6 -84 -8 q-248 -2 -541 -2q-113 4 -295 6q-47 0 -47 -20q0 -17 35 -17q49 0 80 -6q51 -8 69 -37q17 -26 19 -80q4 -32 4 -434v-360q0 -301 -10 -436q-4 -46 -17 -74q-12 -31 -43 -39q-26 -8 -74 -8q-32 0 -30 -17q0 -20 43 -20q149 4 260 6q98 -2 311 -6q45 0 45 20q0 17 -35 17 q-51 0 -102 8q-45 8 -59 39q-17 28 -21 74q-12 135 -10 436v166z" />
<glyph unicode="&#xfb04;" horiz-adv-x="3787" d="M3140 948q0 225 2 309q0 84 2 125q2 56 20 84q17 27 56 33q41 6 80 6q36 -2 36 19q0 18 -43 18q-161 -4 -278 -6q-109 4 -281 6q-45 0 -45 -18q0 -21 35 -19q41 0 68 -6q51 -8 69 -37q17 -26 19 -80q4 -32 4 -434v-360q0 -295 -10 -436q-4 -46 -17 -74q-12 -31 -43 -39 q-26 -8 -74 -8q-34 0 -32 -17q0 -20 41 -20q155 4 258 6q200 -6 596 -12q77 0 102 12q21 10 27 43q12 53 22 133q8 80 8 103q0 34 -16 34q-23 -2 -23 -30q-10 -70 -53 -123q-37 -39 -96 -47q-61 -11 -143 -11q-117 0 -170 13q-54 12 -78 32q-29 27 -37 138q-8 106 -6 303 v360zM1868 754q0 18 14 18h148q106 0 155 -6q25 -2 43 -8q19 -8 31 -21q25 -22 31 -45q12 -39 12 -63q0 -27 16 -29q17 0 19 14q2 11 2 25q0 55 8 149q4 25 6 48q4 22 6 36q4 35 4 43q0 19 -12 19q-14 0 -26 -21q-31 -37 -89 -37q-40 -2 -92 -2l-262 -2q-16 0 -14 19v512 q0 28 18 28l316 -6q59 -2 92 -18q35 -21 43 -43q10 -21 12 -43v-35q2 -33 21 -33q20 0 20 29q6 86 10 166q15 76 17 92q0 16 -15 18q-14 -2 -32 -12q-29 -6 -84 -8q-248 -2 -541 -2q-113 4 -295 6q-47 0 -47 -20q0 -17 35 -17q49 0 80 -6q51 -8 69 -37q17 -26 19 -80 q4 -32 4 -434v-360q0 -301 -10 -436q-4 -46 -17 -74q-12 -31 -43 -39q-26 -8 -74 -8q-32 0 -30 -17q0 -20 43 -20q149 4 260 6q98 -2 311 -6q45 0 45 20q0 17 -35 17q-51 0 -102 8q-45 8 -59 39q-17 28 -21 74q-12 135 -10 436v166zM594 754q0 18 14 18h148q106 0 155 -6 q25 -2 43 -8q19 -8 31 -21q25 -22 31 -45q12 -39 12 -63q0 -27 16 -29q17 0 19 14q2 11 2 25q0 55 8 149q4 25 6 48q4 22 6 36q4 35 4 43q0 19 -12 19q-14 0 -26 -21q-31 -37 -89 -37q-40 -2 -92 -2l-262 -2q-16 0 -14 19v512q0 28 18 28l316 -6q59 -2 92 -18q35 -21 43 -43 q10 -21 12 -43v-35q2 -33 21 -33q20 0 20 29q6 86 10 166q15 76 17 92q0 16 -15 18q-14 -2 -32 -12q-29 -6 -84 -8q-248 -2 -541 -2q-113 4 -295 6q-47 0 -47 -20q0 -17 35 -17q49 0 80 -6q51 -8 69 -37q17 -26 19 -80q4 -32 4 -434v-360q0 -301 -10 -436q-4 -46 -17 -74 q-12 -31 -43 -39q-26 -8 -74 -8q-32 0 -30 -17q0 -20 43 -20q149 4 260 6q98 -2 311 -6q45 0 45 20q0 17 -35 17q-51 0 -102 8q-45 8 -59 39q-17 28 -21 74q-12 135 -10 436v166z" />
</font>
</defs>
</svg>
